Asap-SemiBold.ufo
<glyph name="exclam" format="2">
  <advance width="294.0"/>
  <unicode hex="0021"/>
  <outline>
    <contour>
      <point x="141.65384615384616" y="215.07692307692307" type="curve" smooth="yes"/>
      <point x="152.65384615384616" y="215.07692307692307" type="line" smooth="yes"/>
      <point x="186.73076923076923" y="215.07692307692307"/>
      <point x="194.42307692307693" y="225.03846153846155"/>
      <point x="196.73076923076923" y="243.6153846153846" type="curve" smooth="yes"/>
      <point x="211.65384615384616" y="387.7692307692308"/>
      <point x="224.53846153846155" y="531.9230769230769"/>
      <point x="238.76923076923077" y="676.0769230769231" type="curve"/>
      <point x="238.76923076923077" y="692.6923076923077"/>
      <point x="221.23076923076923" y="702.0"/>
      <point x="186.03846153846155" y="702.0" type="curve" smooth="yes"/>
      <point x="151.0" y="702.0" type="line" smooth="yes"/>
      <point x="113.84615384615384" y="702.0"/>
      <point x="97.92307692307692" y="692.0384615384615"/>
      <point x="97.92307692307692" y="673.4615384615385" type="curve" smooth="yes"/>
      <point x="97.92307692307692" y="243.6153846153846" type="line" smooth="yes"/>
      <point x="97.92307692307692" y="225.03846153846155"/>
      <point x="107.57692307692308" y="215.07692307692307"/>
    </contour>
    <contour>
      <point x="133.76923076923077" y="-2.0" type="curve" smooth="yes"/>
      <point x="160.57692307692307" y="-2.0" type="line" smooth="yes"/>
      <point x="197.73076923076923" y="-2.0"/>
      <point x="213.65384615384616" y="7.961538461538462"/>
      <point x="213.65384615384616" y="26.53846153846154" type="curve" smooth="yes"/>
      <point x="213.65384615384616" y="109.53846153846155" type="line" smooth="yes"/>
      <point x="213.65384615384616" y="128.1153846153846"/>
      <point x="197.73076923076923" y="138.07692307692307"/>
      <point x="160.57692307692307" y="138.07692307692307" type="curve" smooth="yes"/>
      <point x="133.76923076923077" y="138.07692307692307" type="line" smooth="yes"/>
      <point x="96.61538461538461" y="138.07692307692307"/>
      <point x="80.6923076923077" y="128.1153846153846"/>
      <point x="80.6923076923077" y="109.53846153846155" type="curve" smooth="yes"/>
      <point x="80.6923076923077" y="26.53846153846154" type="line" smooth="yes"/>
      <point x="80.6923076923077" y="7.961538461538462"/>
      <point x="96.61538461538461" y="-2.0"/>
    </contour>
  </outline>
</glyph>
<glyph name="numbersign" format="2">
  <advance width="534.0"/>
  <unicode hex="0023"/>
  <outline>
    <contour>
      <point x="100.76923076923077" y="-2.0" type="curve" smooth="yes"/>
      <point x="110.65384615384616" y="-2.0" type="line" smooth="yes"/>
      <point x="144.69230769230768" y="-2.0"/>
      <point x="157.84615384615384" y="7.3076923076923075"/>
      <point x="161.5" y="25.884615384615387" type="curve" smooth="yes"/>
      <point x="191.53846153846155" y="187.5" type="line"/>
      <point x="293.84615384615387" y="187.5" type="line"/>
      <point x="267.5" y="43.73076923076923"/>
      <point x="263.15384615384613" y="25.26923076923077"/>
      <point x="263.15384615384613" y="18.923076923076923" type="curve" smooth="yes"/>
      <point x="263.15384615384613" y="3.3076923076923075"/>
      <point x="275.4230769230769" y="-2.0"/>
      <point x="302.9230769230769" y="-2.0" type="curve" smooth="yes"/>
      <point x="312.8076923076923" y="-2.0" type="line" smooth="yes"/>
      <point x="346.15384615384613" y="-2.0"/>
      <point x="360.34615384615387" y="7.3076923076923075"/>
      <point x="363.65384615384613" y="25.884615384615387" type="curve" smooth="yes"/>
      <point x="393.34615384615387" y="187.5" type="line"/>
      <point x="465.7307692307692" y="187.5" type="line" smooth="yes"/>
      <point x="484.3076923076923" y="187.5"/>
      <point x="492.2692307692308" y="200.42307692307693"/>
      <point x="492.2692307692308" y="230.57692307692307" type="curve" smooth="yes"/>
      <point x="492.2692307692308" y="243.0" type="line" smooth="yes"/>
      <point x="492.2692307692308" y="273.15384615384613"/>
      <point x="484.3076923076923" y="286.0769230769231"/>
      <point x="465.7307692307692" y="286.0769230769231" type="curve" smooth="yes"/>
      <point x="411.96153846153845" y="286.0769230769231" type="line"/>
      <point x="434.34615384615387" y="408.88461538461536" type="line"/>
      <point x="497.7307692307692" y="408.88461538461536" type="line" smooth="yes"/>
      <point x="516.3076923076923" y="408.88461538461536"/>
      <point x="524.2692307692307" y="421.8076923076923"/>
      <point x="524.2692307692307" y="451.96153846153845" type="curve" smooth="yes"/>
      <point x="524.2692307692307" y="464.38461538461536" type="line" smooth="yes"/>
      <point x="524.2692307692307" y="494.53846153846155"/>
      <point x="516.3076923076923" y="507.46153846153845"/>
      <point x="497.7307692307692" y="507.46153846153845" type="curve" smooth="yes"/>
      <point x="452.61538461538464" y="507.46153846153845" type="line"/>
      <point x="481.0" y="666.4230769230769" type="line"/>
      <point x="481.0" y="678.6923076923077"/>
      <point x="468.7307692307692" y="686.0"/>
      <point x="441.88461538461536" y="686.0" type="curve" smooth="yes"/>
      <point x="431.65384615384613" y="686.0" type="line" smooth="yes"/>
      <point x="396.9230769230769" y="686.0"/>
      <point x="383.46153846153845" y="676.6923076923077"/>
      <point x="379.8076923076923" y="658.1153846153846" type="curve" smooth="yes"/>
      <point x="352.4230769230769" y="507.46153846153845" type="line"/>
      <point x="249.76923076923077" y="507.46153846153845" type="line"/>
      <point x="278.84615384615387" y="666.4230769230769" type="line"/>
      <point x="278.84615384615387" y="678.6923076923077"/>
      <point x="266.5769230769231" y="686.0"/>
      <point x="239.73076923076923" y="686.0" type="curve" smooth="yes"/>
      <point x="229.84615384615384" y="686.0" type="line" smooth="yes"/>
      <point x="195.1153846153846" y="686.0"/>
      <point x="181.65384615384616" y="676.6923076923077"/>
      <point x="178.0" y="658.1153846153846" type="curve" smooth="yes"/>
      <point x="150.26923076923077" y="507.46153846153845" type="line"/>
      <point x="73.26923076923077" y="507.46153846153845" type="line" smooth="yes"/>
      <point x="54.69230769230769" y="507.46153846153845"/>
      <point x="46.73076923076923" y="494.53846153846155"/>
      <point x="46.73076923076923" y="464.38461538461536" type="curve" smooth="yes"/>
      <point x="46.73076923076923" y="451.96153846153845" type="line" smooth="yes"/>
      <point x="46.73076923076923" y="421.8076923076923"/>
      <point x="54.69230769230769" y="408.88461538461536"/>
      <point x="73.26923076923077" y="408.88461538461536" type="curve" smooth="yes"/>
      <point x="132.69230769230768" y="408.88461538461536" type="line"/>
      <point x="109.96153846153847" y="286.0769230769231" type="line"/>
      <point x="37.26923076923077" y="286.0769230769231" type="line" smooth="yes"/>
      <point x="18.692307692307693" y="286.0769230769231"/>
      <point x="10.73076923076923" y="273.15384615384613"/>
      <point x="10.73076923076923" y="243.0" type="curve" smooth="yes"/>
      <point x="10.73076923076923" y="230.57692307692307" type="line" smooth="yes"/>
      <point x="10.73076923076923" y="200.42307692307693"/>
      <point x="18.692307692307693" y="187.5"/>
      <point x="37.26923076923077" y="187.5" type="curve" smooth="yes"/>
      <point x="91.6923076923077" y="187.5" type="line"/>
      <point x="65.34615384615384" y="43.73076923076923"/>
      <point x="61.0" y="25.26923076923077"/>
      <point x="61.0" y="18.923076923076923" type="curve" smooth="yes"/>
      <point x="61.0" y="3.3076923076923075"/>
      <point x="73.26923076923077" y="-2.0"/>
    </contour>
    <contour>
      <point x="209.80769230769232" y="286.0769230769231" type="line"/>
      <point x="232.53846153846155" y="408.88461538461536" type="line"/>
      <point x="334.84615384615387" y="408.88461538461536" type="line"/>
      <point x="312.11538461538464" y="286.0769230769231" type="line"/>
    </contour>
  </outline>
</glyph>
<glyph name="dollar" format="2">
  <advance width="500.0"/>
  <unicode hex="0024"/>
  <outline>
    <contour>
      <point x="250.53846153846155" y="-6.653846153846154" type="curve" smooth="yes"/>
      <point x="402.0769230769231" y="-5.615384615384615"/>
      <point x="475.7692307692308" y="71.96153846153847"/>
      <point x="475.7692307692308" y="201.46153846153845" type="curve" smooth="yes"/>
      <point x="475.7692307692308" y="309.15384615384613"/>
      <point x="388.65384615384613" y="372.5"/>
      <point x="286.65384615384613" y="415.7692307692308" type="curve" smooth="yes"/>
      <point x="221.84615384615384" y="443.15384615384613"/>
      <point x="165.34615384615384" y="466.53846153846155"/>
      <point x="165.34615384615384" y="520.1153846153846" type="curve" smooth="yes"/>
      <point x="165.34615384615384" y="565.5"/>
      <point x="201.30769230769232" y="594.6923076923077"/>
      <point x="254.42307692307693" y="594.6923076923077" type="curve" smooth="yes"/>
      <point x="304.46153846153845" y="594.6923076923077"/>
      <point x="337.8076923076923" y="585.6153846153846"/>
      <point x="360.8076923076923" y="577.2307692307693" type="curve" smooth="yes"/>
      <point x="378.4230769230769" y="570.8846153846154"/>
      <point x="391.03846153846155" y="565.1923076923077"/>
      <point x="397.6923076923077" y="565.1923076923077" type="curve" smooth="yes"/>
      <point x="416.84615384615387" y="565.1923076923077"/>
      <point x="444.7307692307692" y="617.5769230769231"/>
      <point x="444.7307692307692" y="640.4230769230769" type="curve" smooth="yes"/>
      <point x="444.7307692307692" y="651.4230769230769"/>
      <point x="435.03846153846155" y="662.3846153846154"/>
      <point x="419.03846153846155" y="672.3461538461538" type="curve" smooth="yes"/>
      <point x="386.61538461538464" y="692.0"/>
      <point x="328.5" y="705.9230769230769"/>
      <point x="270.2307692307692" y="705.9230769230769" type="curve" smooth="yes"/>
      <point x="128.23076923076923" y="705.9230769230769"/>
      <point x="39.5" y="628.0"/>
      <point x="39.5" y="509.5769230769231" type="curve" smooth="yes"/>
      <point x="39.5" y="408.1923076923077"/>
      <point x="123.92307692307692" y="342.65384615384613"/>
      <point x="223.1153846153846" y="303.4230769230769" type="curve" smooth="yes"/>
      <point x="290.3076923076923" y="277.0"/>
      <point x="350.53846153846155" y="254.53846153846155"/>
      <point x="350.53846153846155" y="190.80769230769232" type="curve" smooth="yes"/>
      <point x="350.53846153846155" y="126.5"/>
      <point x="307.6923076923077" y="107.07692307692308"/>
      <point x="244.53846153846155" y="105.34615384615384" type="curve" smooth="yes"/>
      <point x="190.34615384615384" y="103.26923076923077"/>
      <point x="140.92307692307693" y="121.8076923076923"/>
      <point x="104.73076923076923" y="141.3846153846154" type="curve" smooth="yes"/>
      <point x="92.07692307692308" y="148.03846153846155"/>
      <point x="83.46153846153847" y="152.3846153846154"/>
      <point x="78.5" y="152.3846153846154" type="curve" smooth="yes"/>
      <point x="60.96153846153846" y="152.3846153846154"/>
      <point x="25.846153846153847" y="101.3076923076923"/>
      <point x="25.846153846153847" y="75.5" type="curve" smooth="yes"/>
      <point x="25.846153846153847" y="60.5"/>
      <point x="44.65384615384615" y="41.80769230769231"/>
      <point x="78.5" y="26.153846153846153" type="curve" smooth="yes"/>
      <point x="116.8076923076923" y="7.923076923076923"/>
      <point x="174.96153846153845" y="-7.0"/>
    </contour>
    <contour>
      <point x="258.61538461538464" y="-77.53846153846153" type="curve" smooth="yes"/>
      <point x="263.61538461538464" y="-77.53846153846153" type="line" smooth="yes"/>
      <point x="280.61538461538464" y="-77.53846153846153"/>
      <point x="289.61538461538464" y="-70.23076923076923"/>
      <point x="289.61538461538464" y="-54.96153846153846" type="curve" smooth="yes"/>
      <point x="289.61538461538464" y="742.3076923076923" type="line" smooth="yes"/>
      <point x="289.61538461538464" y="757.5769230769231"/>
      <point x="280.61538461538464" y="764.8846153846154"/>
      <point x="263.61538461538464" y="764.8846153846154" type="curve" smooth="yes"/>
      <point x="258.61538461538464" y="764.8846153846154" type="line" smooth="yes"/>
      <point x="241.6153846153846" y="764.8846153846154"/>
      <point x="232.6153846153846" y="757.5769230769231"/>
      <point x="232.6153846153846" y="742.3076923076923" type="curve" smooth="yes"/>
      <point x="232.6153846153846" y="-54.96153846153846" type="line" smooth="yes"/>
      <point x="232.6153846153846" y="-70.23076923076923"/>
      <point x="241.6153846153846" y="-77.53846153846153"/>
    </contour>
  </outline>
</glyph>
<glyph name="percent" format="2">
  <advance width="765.0"/>
  <unicode hex="0025"/>
  <outline>
    <contour>
      <point x="173.8846153846154" y="-3.730769230769231" type="curve" smooth="yes"/>
      <point x="204.3846153846154" y="-3.730769230769231" type="line" smooth="yes"/>
      <point x="224.69230769230768" y="-3.730769230769231"/>
      <point x="238.03846153846155" y="4.884615384615385"/>
      <point x="247.0" y="21.153846153846153" type="curve" smooth="yes"/>
      <point x="609.5384615384615" y="678.5" type="line" smooth="yes"/>
      <point x="612.1923076923077" y="683.8076923076923"/>
      <point x="614.1923076923077" y="688.1153846153846"/>
      <point x="614.1923076923077" y="691.1153846153846" type="curve" smooth="yes"/>
      <point x="614.1923076923077" y="698.0769230769231"/>
      <point x="606.5" y="703.3846153846154"/>
      <point x="592.1538461538462" y="703.3846153846154" type="curve" smooth="yes"/>
      <point x="561.6538461538462" y="703.3846153846154" type="line" smooth="yes"/>
      <point x="541.3461538461538" y="703.3846153846154"/>
      <point x="528.0" y="694.7692307692307"/>
      <point x="519.0384615384615" y="678.5" type="curve" smooth="yes"/>
      <point x="156.5" y="21.153846153846153" type="line"/>
      <point x="153.5" y="15.846153846153847"/>
      <point x="151.84615384615384" y="11.192307692307693"/>
      <point x="151.84615384615384" y="7.884615384615385" type="curve" smooth="yes"/>
      <point x="151.84615384615384" y="1.5769230769230766"/>
      <point x="159.53846153846155" y="-3.730769230769231"/>
    </contour>
    <contour>
      <point x="573.2307692307693" y="-6.961538461538462" type="curve" smooth="yes"/>
      <point x="639.7692307692307" y="-6.961538461538462"/>
      <point x="718.7307692307693" y="21.346153846153847"/>
      <point x="718.7307692307693" y="158.6153846153846" type="curve" smooth="yes"/>
      <point x="718.7307692307693" y="296.2307692307692"/>
      <point x="640.4615384615385" y="325.2307692307692"/>
      <point x="573.2307692307693" y="325.2307692307692" type="curve" smooth="yes"/>
      <point x="504.61538461538464" y="325.2307692307692"/>
      <point x="427.7307692307692" y="296.2307692307692"/>
      <point x="427.7307692307692" y="158.6153846153846" type="curve" smooth="yes"/>
      <point x="427.7307692307692" y="21.346153846153847"/>
      <point x="506.0" y="-6.961538461538462"/>
    </contour>
    <contour>
      <point x="573.2307692307693" y="65.6923076923077" type="curve" smooth="yes"/>
      <point x="525.2307692307693" y="65.6923076923077"/>
      <point x="517.2692307692307" y="116.84615384615384"/>
      <point x="517.2692307692307" y="158.6153846153846" type="curve" smooth="yes"/>
      <point x="517.2692307692307" y="200.3846153846154"/>
      <point x="524.8846153846154" y="250.30769230769232"/>
      <point x="573.2307692307693" y="250.30769230769232" type="curve" smooth="yes"/>
      <point x="622.2692307692307" y="250.30769230769232"/>
      <point x="629.2307692307693" y="200.3846153846154"/>
      <point x="629.2307692307693" y="158.6153846153846" type="curve" smooth="yes"/>
      <point x="629.2307692307693" y="116.84615384615384"/>
      <point x="620.5384615384615" y="65.6923076923077"/>
    </contour>
    <contour>
      <point x="191.76923076923077" y="375.11538461538464" type="curve" smooth="yes"/>
      <point x="258.3076923076923" y="375.11538461538464"/>
      <point x="337.2692307692308" y="403.4230769230769"/>
      <point x="337.2692307692308" y="540.6923076923077" type="curve" smooth="yes"/>
      <point x="337.2692307692308" y="678.3076923076923"/>
      <point x="259.0" y="707.3076923076923"/>
      <point x="191.76923076923077" y="707.3076923076923" type="curve" smooth="yes"/>
      <point x="123.15384615384616" y="707.3076923076923"/>
      <point x="46.26923076923077" y="678.3076923076923"/>
      <point x="46.26923076923077" y="540.6923076923077" type="curve" smooth="yes"/>
      <point x="46.26923076923077" y="403.4230769230769"/>
      <point x="124.53846153846153" y="375.11538461538464"/>
    </contour>
    <contour>
      <point x="191.76923076923077" y="447.7692307692308" type="curve" smooth="yes"/>
      <point x="143.76923076923077" y="447.7692307692308"/>
      <point x="135.80769230769232" y="498.9230769230769"/>
      <point x="135.80769230769232" y="540.6923076923077" type="curve" smooth="yes"/>
      <point x="135.80769230769232" y="582.4615384615385"/>
      <point x="143.42307692307693" y="632.3846153846154"/>
      <point x="191.76923076923077" y="632.3846153846154" type="curve" smooth="yes"/>
      <point x="240.80769230769232" y="632.3846153846154"/>
      <point x="247.76923076923077" y="582.4615384615385"/>
      <point x="247.76923076923077" y="540.6923076923077" type="curve" smooth="yes"/>
      <point x="247.76923076923077" y="498.9230769230769"/>
      <point x="239.07692307692307" y="447.7692307692308"/>
    </contour>
  </outline>
</glyph>
<glyph name="ampersand" format="2">
  <advance width="624.0"/>
  <unicode hex="0026"/>
  <outline>
    <contour>
      <point x="257.3076923076923" y="-7.3076923076923075" type="curve" smooth="yes"/>
      <point x="334.5769230769231" y="-7.3076923076923075"/>
      <point x="384.03846153846155" y="8.5"/>
      <point x="432.0769230769231" y="33.73076923076923" type="curve"/>
      <point x="458.11538461538464" y="3.9615384615384617"/>
      <point x="496.53846153846155" y="-7.3076923076923075"/>
      <point x="538.6538461538462" y="-7.3076923076923075" type="curve" smooth="yes"/>
      <point x="568.2692307692307" y="-7.3076923076923075"/>
      <point x="626.6923076923077" y="-4.3076923076923075"/>
      <point x="626.6923076923077" y="35.11538461538461" type="curve" smooth="yes"/>
      <point x="626.6923076923077" y="43.11538461538461"/>
      <point x="617.0769230769231" y="98.46153846153847"/>
      <point x="599.1538461538462" y="98.46153846153847" type="curve" smooth="yes"/>
      <point x="592.1153846153846" y="98.46153846153847"/>
      <point x="582.5384615384615" y="94.11538461538461"/>
      <point x="566.6153846153846" y="94.11538461538461" type="curve" smooth="yes"/>
      <point x="539.5769230769231" y="94.11538461538461"/>
      <point x="524.3846153846154" y="107.46153846153847"/>
      <point x="524.3846153846154" y="147.84615384615384" type="curve" smooth="yes"/>
      <point x="524.3846153846154" y="318.34615384615387" type="line"/>
      <point x="585.5" y="318.34615384615387" type="line" smooth="yes"/>
      <point x="604.0769230769231" y="318.34615384615387"/>
      <point x="612.0384615384615" y="331.2692307692308"/>
      <point x="612.0384615384615" y="361.4230769230769" type="curve" smooth="yes"/>
      <point x="612.0384615384615" y="376.6923076923077" type="line" smooth="yes"/>
      <point x="612.0384615384615" y="406.84615384615387"/>
      <point x="604.0769230769231" y="419.7692307692308"/>
      <point x="585.5" y="419.7692307692308" type="curve" smooth="yes"/>
      <point x="524.3846153846154" y="419.7692307692308" type="line"/>
      <point x="524.3846153846154" y="518.2307692307693" type="line" smooth="yes"/>
      <point x="524.3846153846154" y="536.8076923076923"/>
      <point x="511.46153846153845" y="546.7692307692307"/>
      <point x="481.3076923076923" y="546.7692307692307" type="curve" smooth="yes"/>
      <point x="457.5769230769231" y="546.7692307692307" type="line" smooth="yes"/>
      <point x="428.7307692307692" y="546.7692307692307"/>
      <point x="413.6730769230769" y="536.8076923076923"/>
      <point x="411.1923076923077" y="518.2307692307693" type="curve" smooth="yes"/>
      <point x="398.53846153846155" y="419.7692307692308" type="line"/>
      <point x="296.2307692307692" y="419.7692307692308" type="line" smooth="yes"/>
      <point x="220.15384615384616" y="419.7692307692308"/>
      <point x="182.5" y="465.9230769230769"/>
      <point x="182.5" y="515.9230769230769" type="curve" smooth="yes"/>
      <point x="182.5" y="560.7692307692307"/>
      <point x="205.69230769230768" y="605.8846153846154"/>
      <point x="277.0" y="605.8846153846154" type="curve" smooth="yes"/>
      <point x="303.11538461538464" y="605.8846153846154"/>
      <point x="324.11538461538464" y="598.1923076923077"/>
      <point x="330.15384615384613" y="598.1923076923077" type="curve" smooth="yes"/>
      <point x="346.8076923076923" y="598.1923076923077"/>
      <point x="360.65384615384613" y="636.0"/>
      <point x="360.65384615384613" y="668.7692307692307" type="curve" smooth="yes"/>
      <point x="360.65384615384613" y="703.6153846153846"/>
      <point x="300.8076923076923" y="707.3076923076923"/>
      <point x="259.3076923076923" y="707.3076923076923" type="curve" smooth="yes"/>
      <point x="137.42307692307693" y="707.3076923076923"/>
      <point x="55.34615384615385" y="643.8076923076923"/>
      <point x="55.34615384615385" y="534.7307692307693" type="curve" smooth="yes"/>
      <point x="55.34615384615385" y="464.0"/>
      <point x="95.15384615384616" y="411.6923076923077"/>
      <point x="151.80769230769232" y="388.38461538461536" type="curve"/>
      <point x="151.80769230769232" y="384.38461538461536" type="line"/>
      <point x="79.38461538461539" y="359.2307692307692"/>
      <point x="32.34615384615385" y="293.61538461538464"/>
      <point x="32.34615384615385" y="203.65384615384616" type="curve" smooth="yes"/>
      <point x="32.34615384615385" y="63.38461538461539"/>
      <point x="136.07692307692307" y="-7.3076923076923075"/>
    </contour>
    <contour>
      <point x="275.11538461538464" y="94.11538461538461" type="curve" smooth="yes"/>
      <point x="215.76923076923077" y="94.11538461538461"/>
      <point x="160.53846153846155" y="127.03846153846155"/>
      <point x="160.53846153846155" y="205.30769230769232" type="curve" smooth="yes"/>
      <point x="160.53846153846155" y="283.7692307692308"/>
      <point x="202.8846153846154" y="318.34615384615387"/>
      <point x="288.96153846153845" y="318.34615384615387" type="curve" smooth="yes"/>
      <point x="398.53846153846155" y="318.34615384615387" type="line"/>
      <point x="398.53846153846155" y="130.69230769230768" type="line" smooth="yes"/>
      <point x="398.53846153846155" y="110.34615384615384"/>
      <point x="403.8076923076923" y="91.07692307692308"/>
      <point x="413.7307692307692" y="72.11538461538461" type="curve"/>
      <point x="441.03846153846155" y="146.0" type="line"/>
      <point x="380.34615384615387" y="111.0"/>
      <point x="327.2307692307692" y="94.11538461538461"/>
    </contour>
  </outline>
</glyph>
<glyph name="quotesingle" format="2">
  <advance width="192.0"/>
  <unicode hex="0027"/>
  <outline>
    <contour>
      <point x="89.76923076923077" y="466.7692307692308" type="curve" smooth="yes"/>
      <point x="101.88461538461539" y="466.7692307692308" type="line" smooth="yes"/>
      <point x="120.11538461538461" y="466.7692307692308"/>
      <point x="129.42307692307693" y="474.03846153846155"/>
      <point x="131.73076923076923" y="490.53846153846155" type="curve" smooth="yes"/>
      <point x="154.07692307692307" y="673.4615384615385" type="line" smooth="yes"/>
      <point x="156.73076923076923" y="692.0384615384615"/>
      <point x="138.15384615384616" y="702.0"/>
      <point x="101.0" y="702.0" type="curve" smooth="yes"/>
      <point x="91.0" y="702.0" type="line" smooth="yes"/>
      <point x="53.84615384615385" y="702.0"/>
      <point x="35.26923076923077" y="692.0384615384615"/>
      <point x="37.92307692307692" y="673.4615384615385" type="curve" smooth="yes"/>
      <point x="59.92307692307692" y="490.53846153846155" type="line" smooth="yes"/>
      <point x="62.230769230769226" y="474.03846153846155"/>
      <point x="71.53846153846153" y="466.7692307692308"/>
    </contour>
  </outline>
</glyph>
<glyph name="parenleft" format="2">
  <advance width="301.0"/>
  <unicode hex="0028"/>
  <outline>
    <contour>
      <point x="239.42307692307693" y="-209.3846153846154" type="curve" smooth="yes"/>
      <point x="257.6923076923077" y="-209.3846153846154"/>
      <point x="286.38461538461536" y="-188.1153846153846"/>
      <point x="286.38461538461536" y="-169.6153846153846" type="curve" smooth="yes"/>
      <point x="286.38461538461536" y="-163.6153846153846"/>
      <point x="284.6923076923077" y="-156.6153846153846"/>
      <point x="280.0" y="-149.6153846153846" type="curve" smooth="yes"/>
      <point x="194.09615384615384" y="-14.865384615384613"/>
      <point x="156.92307692307693" y="126.23076923076923"/>
      <point x="156.92307692307693" y="286.65384615384613" type="curve" smooth="yes"/>
      <point x="156.92307692307693" y="447.7307692307692"/>
      <point x="196.57692307692307" y="587.8461538461538"/>
      <point x="280.34615384615387" y="723.5769230769231" type="curve" smooth="yes"/>
      <point x="285.21153846153845" y="730.9230769230769"/>
      <point x="286.7307692307692" y="737.9230769230769"/>
      <point x="286.7307692307692" y="744.2692307692307" type="curve" smooth="yes"/>
      <point x="286.7307692307692" y="764.1538461538462"/>
      <point x="256.3076923076923" y="783.0"/>
      <point x="239.07692307692307" y="783.0" type="curve" smooth="yes"/>
      <point x="230.1153846153846" y="783.0"/>
      <point x="221.80769230769232" y="778.6923076923077"/>
      <point x="214.15384615384616" y="769.0769230769231" type="curve" smooth="yes"/>
      <point x="112.03846153846153" y="642.8269230769231"/>
      <point x="52.38461538461539" y="471.38461538461536"/>
      <point x="52.38461538461539" y="286.65384615384613" type="curve" smooth="yes"/>
      <point x="52.38461538461539" y="101.92307692307692"/>
      <point x="112.3076923076923" y="-68.92307692307692"/>
      <point x="214.15384615384616" y="-195.1153846153846" type="curve" smooth="yes"/>
      <point x="221.80769230769232" y="-204.73076923076923"/>
      <point x="230.46153846153845" y="-209.3846153846154"/>
    </contour>
  </outline>
</glyph>
<glyph name="parenright" format="2">
  <advance width="301.0"/>
  <unicode hex="0029"/>
  <outline>
    <contour>
      <point x="59.96153846153847" y="-209.03846153846155" type="curve" smooth="yes"/>
      <point x="68.92307692307692" y="-209.03846153846155"/>
      <point x="77.23076923076923" y="-204.73076923076923"/>
      <point x="84.88461538461539" y="-195.1153846153846" type="curve" smooth="yes"/>
      <point x="187.0" y="-68.86538461538461"/>
      <point x="246.65384615384616" y="101.92307692307692"/>
      <point x="246.65384615384616" y="286.65384615384613" type="curve" smooth="yes"/>
      <point x="246.65384615384616" y="471.38461538461536"/>
      <point x="186.73076923076923" y="642.8846153846154"/>
      <point x="84.88461538461539" y="769.0769230769231" type="curve" smooth="yes"/>
      <point x="77.23076923076923" y="778.6923076923077"/>
      <point x="68.57692307692308" y="783.3461538461538"/>
      <point x="59.61538461538461" y="783.3461538461538" type="curve" smooth="yes"/>
      <point x="41.34615384615385" y="783.3461538461538"/>
      <point x="12.653846153846153" y="762.0769230769231"/>
      <point x="12.653846153846153" y="743.5769230769231" type="curve" smooth="yes"/>
      <point x="12.653846153846153" y="737.5769230769231"/>
      <point x="14.346153846153847" y="730.5769230769231"/>
      <point x="19.03846153846154" y="723.5769230769231" type="curve" smooth="yes"/>
      <point x="104.9423076923077" y="588.8269230769231"/>
      <point x="142.1153846153846" y="447.7307692307692"/>
      <point x="142.1153846153846" y="286.65384615384613" type="curve" smooth="yes"/>
      <point x="142.1153846153846" y="124.84615384615384"/>
      <point x="101.76923076923077" y="-15.96153846153846"/>
      <point x="17.307692307692307" y="-151.69230769230768" type="curve" smooth="yes"/>
      <point x="13.307692307692308" y="-158.0"/>
      <point x="11.615384615384615" y="-164.30769230769232"/>
      <point x="11.615384615384615" y="-169.96153846153845" type="curve" smooth="yes"/>
      <point x="11.615384615384615" y="-189.15384615384616"/>
      <point x="42.03846153846154" y="-209.03846153846155"/>
    </contour>
  </outline>
</glyph>
<glyph name="asterisk" format="2">
  <advance width="373.0"/>
  <unicode hex="002A"/>
  <outline>
    <contour>
      <point x="102.92307692307692" y="412.03846153846155" type="curve" smooth="yes"/>
      <point x="109.23076923076923" y="412.03846153846155"/>
      <point x="116.53846153846153" y="415.6923076923077"/>
      <point x="123.15384615384616" y="424.96153846153845" type="curve" smooth="yes"/>
      <point x="187.0" y="514.1923076923077" type="line"/>
      <point x="250.84615384615384" y="424.96153846153845" type="line" smooth="yes"/>
      <point x="256.8076923076923" y="416.34615384615387"/>
      <point x="263.7692307692308" y="412.03846153846155"/>
      <point x="271.0769230769231" y="412.03846153846155" type="curve" smooth="yes"/>
      <point x="282.6923076923077" y="412.03846153846155"/>
      <point x="300.2692307692308" y="426.96153846153845"/>
      <point x="300.2692307692308" y="437.9230769230769" type="curve" smooth="yes"/>
      <point x="300.2692307692308" y="443.2307692307692"/>
      <point x="298.61538461538464" y="449.1923076923077"/>
      <point x="293.3076923076923" y="455.5" type="curve" smooth="yes"/>
      <point x="231.1153846153846" y="541.4230769230769" type="line"/>
      <point x="315.0769230769231" y="568.1923076923077" type="line" smooth="yes"/>
      <point x="328.34615384615387" y="572.5"/>
      <point x="334.3076923076923" y="578.1538461538462"/>
      <point x="334.3076923076923" y="588.7692307692307" type="curve" smooth="yes"/>
      <point x="334.3076923076923" y="609.6538461538462"/>
      <point x="320.38461538461536" y="620.9230769230769"/>
      <point x="309.11538461538464" y="620.9230769230769" type="curve" smooth="yes"/>
      <point x="305.46153846153845" y="620.9230769230769"/>
      <point x="301.8076923076923" y="620.9230769230769"/>
      <point x="297.5" y="619.2692307692307" type="curve" smooth="yes"/>
      <point x="214.19230769230768" y="591.8461538461538" type="line"/>
      <point x="214.19230769230768" y="681.8076923076923" type="line" smooth="yes"/>
      <point x="214.19230769230768" y="700.3846153846154"/>
      <point x="206.23076923076923" y="708.3461538461538"/>
      <point x="187.65384615384616" y="708.3461538461538" type="curve" smooth="yes"/>
      <point x="169.07692307692307" y="708.3461538461538"/>
      <point x="161.1153846153846" y="700.3846153846154"/>
      <point x="161.1153846153846" y="681.8076923076923" type="curve" smooth="yes"/>
      <point x="161.1153846153846" y="591.8461538461538" type="line"/>
      <point x="76.5" y="619.2692307692307" type="line" smooth="yes"/>
      <point x="72.1923076923077" y="620.9230769230769"/>
      <point x="67.88461538461539" y="620.9230769230769"/>
      <point x="64.23076923076923" y="620.9230769230769" type="curve" smooth="yes"/>
      <point x="47.38461538461539" y="620.9230769230769"/>
      <point x="39.69230769230769" y="602.7692307692307"/>
      <point x="39.69230769230769" y="588.4230769230769" type="curve" smooth="yes"/>
      <point x="39.69230769230769" y="578.8076923076923"/>
      <point x="45.65384615384615" y="572.5"/>
      <point x="58.92307692307692" y="568.1923076923077" type="curve" smooth="yes"/>
      <point x="141.8846153846154" y="541.4230769230769" type="line"/>
      <point x="80.6923076923077" y="455.5" type="line" smooth="yes"/>
      <point x="75.38461538461539" y="449.1923076923077"/>
      <point x="73.07692307692308" y="443.2307692307692"/>
      <point x="73.07692307692308" y="437.9230769230769" type="curve" smooth="yes"/>
      <point x="73.07692307692308" y="426.96153846153845"/>
      <point x="90.3076923076923" y="412.03846153846155"/>
    </contour>
  </outline>
</glyph>
<glyph name="plus" format="2">
  <advance width="560.0"/>
  <unicode hex="002B"/>
  <outline>
    <contour>
      <point x="273.7307692307692" y="-0.6923076923076923" type="curve" smooth="yes"/>
      <point x="285.3076923076923" y="-0.6923076923076923" type="line" smooth="yes"/>
      <point x="315.46153846153845" y="-0.6923076923076923"/>
      <point x="328.38461538461536" y="7.269230769230769"/>
      <point x="328.38461538461536" y="25.846153846153847" type="curve" smooth="yes"/>
      <point x="328.38461538461536" y="187.19230769230768" type="line"/>
      <point x="490.0" y="187.19230769230768" type="line" smooth="yes"/>
      <point x="508.5769230769231" y="187.19230769230768"/>
      <point x="516.5384615384615" y="200.1153846153846"/>
      <point x="516.5384615384615" y="230.26923076923077" type="curve" smooth="yes"/>
      <point x="516.5384615384615" y="237.26923076923077" type="line" smooth="yes"/>
      <point x="516.5384615384615" y="267.4230769230769"/>
      <point x="508.5769230769231" y="280.34615384615387"/>
      <point x="490.0" y="280.34615384615387" type="curve" smooth="yes"/>
      <point x="328.38461538461536" y="280.34615384615387" type="line"/>
      <point x="328.38461538461536" y="443.0" type="line" smooth="yes"/>
      <point x="328.38461538461536" y="461.5769230769231"/>
      <point x="315.46153846153845" y="469.53846153846155"/>
      <point x="285.3076923076923" y="469.53846153846155" type="curve" smooth="yes"/>
      <point x="273.7307692307692" y="469.53846153846155" type="line" smooth="yes"/>
      <point x="243.57692307692307" y="469.53846153846155"/>
      <point x="230.65384615384616" y="461.5769230769231"/>
      <point x="230.65384615384616" y="443.0" type="curve" smooth="yes"/>
      <point x="230.65384615384616" y="280.34615384615387" type="line"/>
      <point x="70.0" y="280.34615384615387" type="line" smooth="yes"/>
      <point x="51.42307692307692" y="280.34615384615387"/>
      <point x="43.46153846153846" y="267.4230769230769"/>
      <point x="43.46153846153846" y="237.26923076923077" type="curve" smooth="yes"/>
      <point x="43.46153846153846" y="230.26923076923077" type="line" smooth="yes"/>
      <point x="43.46153846153846" y="200.1153846153846"/>
      <point x="51.42307692307692" y="187.19230769230768"/>
      <point x="70.0" y="187.19230769230768" type="curve" smooth="yes"/>
      <point x="230.65384615384616" y="187.19230769230768" type="line"/>
      <point x="230.65384615384616" y="25.846153846153847" type="line" smooth="yes"/>
      <point x="230.65384615384616" y="7.269230769230769"/>
      <point x="243.57692307692307" y="-0.6923076923076923"/>
    </contour>
  </outline>
</glyph>
<glyph name="comma" format="2">
  <advance width="198.0"/>
  <unicode hex="002C"/>
  <outline>
    <contour>
      <point x="36.46153846153846" y="-121.88461538461539" type="curve" smooth="yes"/>
      <point x="76.65384615384616" y="-121.88461538461539"/>
      <point x="162.34615384615384" y="-15.153846153846153"/>
      <point x="162.34615384615384" y="99.61538461538461" type="curve" smooth="yes"/>
      <point x="162.34615384615384" y="121.84615384615384"/>
      <point x="145.3846153846154" y="138.07692307692307"/>
      <point x="109.26923076923077" y="138.07692307692307" type="curve" smooth="yes"/>
      <point x="93.73076923076923" y="138.07692307692307" type="line" smooth="yes"/>
      <point x="56.92307692307692" y="138.07692307692307"/>
      <point x="40.65384615384615" y="122.46153846153847"/>
      <point x="40.65384615384615" y="98.23076923076923" type="curve" smooth="yes"/>
      <point x="40.65384615384615" y="12.692307692307692"/>
      <point x="21.46153846153846" y="-36.26923076923077"/>
      <point x="6.0" y="-72.42307692307692" type="curve" smooth="yes"/>
      <point x="1.3461538461538467" y="-83.6923076923077"/>
      <point x="-3.0" y="-94.34615384615384"/>
      <point x="-3.0" y="-102.3076923076923" type="curve" smooth="yes"/>
      <point x="-3.0" y="-116.92307692307692"/>
      <point x="20.884615384615387" y="-121.88461538461539"/>
    </contour>
  </outline>
</glyph>
<glyph name="hyphen" format="2">
  <advance width="320.0"/>
  <unicode hex="002D"/>
  <outline>
    <contour>
      <point x="60.42307692307692" y="218.23076923076923" type="curve"/>
      <point x="259.5769230769231" y="218.23076923076923" type="line" smooth="yes"/>
      <point x="278.15384615384613" y="218.23076923076923"/>
      <point x="286.11538461538464" y="231.15384615384616"/>
      <point x="286.11538461538464" y="261.3076923076923" type="curve" smooth="yes"/>
      <point x="286.11538461538464" y="269.34615384615387" type="line" smooth="yes"/>
      <point x="286.11538461538464" y="299.5"/>
      <point x="278.15384615384613" y="312.4230769230769"/>
      <point x="259.5769230769231" y="312.4230769230769" type="curve" smooth="yes"/>
      <point x="60.42307692307692" y="312.4230769230769" type="line" smooth="yes"/>
      <point x="41.84615384615385" y="312.4230769230769"/>
      <point x="33.88461538461539" y="299.5"/>
      <point x="33.88461538461539" y="269.34615384615387" type="curve" smooth="yes"/>
      <point x="33.88461538461539" y="261.3076923076923" type="line" smooth="yes"/>
      <point x="33.88461538461539" y="231.15384615384616"/>
      <point x="41.84615384615385" y="218.23076923076923"/>
    </contour>
  </outline>
</glyph>
<glyph name="period" format="2">
  <advance width="198.0"/>
  <unicode hex="002E"/>
  <outline>
    <contour>
      <point x="85.76923076923077" y="-2.0" type="curve" smooth="yes"/>
      <point x="112.57692307692308" y="-2.0" type="line" smooth="yes"/>
      <point x="149.73076923076923" y="-2.0"/>
      <point x="165.65384615384616" y="7.961538461538462"/>
      <point x="165.65384615384616" y="26.53846153846154" type="curve" smooth="yes"/>
      <point x="165.65384615384616" y="109.53846153846155" type="line" smooth="yes"/>
      <point x="165.65384615384616" y="128.1153846153846"/>
      <point x="149.73076923076923" y="138.07692307692307"/>
      <point x="112.57692307692308" y="138.07692307692307" type="curve" smooth="yes"/>
      <point x="85.76923076923077" y="138.07692307692307" type="line" smooth="yes"/>
      <point x="48.61538461538461" y="138.07692307692307"/>
      <point x="32.69230769230769" y="128.1153846153846"/>
      <point x="32.69230769230769" y="109.53846153846155" type="curve" smooth="yes"/>
      <point x="32.69230769230769" y="26.53846153846154" type="line" smooth="yes"/>
      <point x="32.69230769230769" y="7.961538461538462"/>
      <point x="48.61538461538461" y="-2.0"/>
    </contour>
  </outline>
</glyph>
<glyph name="slash" format="2">
  <advance width="422.0"/>
  <unicode hex="002F"/>
  <outline>
    <contour>
      <point x="50.03846153846154" y="-77.96153846153847" type="curve" smooth="yes"/>
      <point x="63.19230769230769" y="-77.96153846153847" type="line" smooth="yes"/>
      <point x="89.34615384615384" y="-77.96153846153847"/>
      <point x="104.88461538461539" y="-74.3076923076923"/>
      <point x="111.84615384615384" y="-56.42307692307692" type="curve" smooth="yes"/>
      <point x="404.2692307692308" y="659.5" type="line" smooth="yes"/>
      <point x="410.61538461538464" y="674.1923076923077"/>
      <point x="413.0" y="682.0"/>
      <point x="413.0" y="686.3461538461538" type="curve" smooth="yes"/>
      <point x="413.0" y="696.6923076923077"/>
      <point x="401.15384615384613" y="702.3461538461538"/>
      <point x="370.7307692307692" y="702.3461538461538" type="curve" smooth="yes"/>
      <point x="360.84615384615387" y="702.3461538461538" type="line" smooth="yes"/>
      <point x="333.3076923076923" y="702.3461538461538"/>
      <point x="317.11538461538464" y="697.0384615384615"/>
      <point x="309.11538461538464" y="677.6923076923077" type="curve" smooth="yes"/>
      <point x="17.346153846153847" y="-38.23076923076923" type="line" smooth="yes"/>
      <point x="13.346153846153847" y="-48.23076923076923"/>
      <point x="9.0" y="-57.92307692307692"/>
      <point x="9.0" y="-62.30769230769231" type="curve" smooth="yes"/>
      <point x="9.0" y="-73.0"/>
      <point x="21.269230769230766" y="-77.96153846153847"/>
    </contour>
  </outline>
</glyph>
<glyph name="zero" format="2">
  <advance width="535.0"/>
  <unicode hex="0030"/>
  <outline>
    <contour>
      <point x="267.65384615384613" y="-7.3076923076923075" type="curve" smooth="yes"/>
      <point x="406.3076923076923" y="-7.3076923076923075"/>
      <point x="501.88461538461536" y="116.6923076923077"/>
      <point x="501.88461538461536" y="350.0" type="curve" smooth="yes"/>
      <point x="501.88461538461536" y="583.3076923076923"/>
      <point x="406.3076923076923" y="707.3076923076923"/>
      <point x="267.65384615384613" y="707.3076923076923" type="curve" smooth="yes"/>
      <point x="129.34615384615384" y="707.3076923076923"/>
      <point x="34.11538461538461" y="583.3076923076923"/>
      <point x="34.11538461538461" y="350.0" type="curve" smooth="yes"/>
      <point x="34.11538461538461" y="116.6923076923077"/>
      <point x="129.34615384615384" y="-7.3076923076923075"/>
    </contour>
    <contour>
      <point x="267.65384615384613" y="94.11538461538461" type="curve" smooth="yes"/>
      <point x="206.1153846153846" y="94.11538461538461"/>
      <point x="161.6153846153846" y="173.69230769230768"/>
      <point x="161.6153846153846" y="350.0" type="curve" smooth="yes"/>
      <point x="161.6153846153846" y="526.3076923076923"/>
      <point x="206.1153846153846" y="605.8846153846154"/>
      <point x="267.65384615384613" y="605.8846153846154" type="curve" smooth="yes"/>
      <point x="329.1923076923077" y="605.8846153846154"/>
      <point x="374.38461538461536" y="526.3076923076923"/>
      <point x="374.38461538461536" y="350.0" type="curve" smooth="yes"/>
      <point x="374.38461538461536" y="173.69230769230768"/>
      <point x="329.1923076923077" y="94.11538461538461"/>
    </contour>
  </outline>
</glyph>
<glyph name="one" format="2">
  <advance width="535.0"/>
  <unicode hex="0031"/>
  <outline>
    <contour>
      <point x="82.61538461538461" y="0.0" type="curve" smooth="yes"/>
      <point x="470.3076923076923" y="0.0" type="line" smooth="yes"/>
      <point x="488.88461538461536" y="0.0"/>
      <point x="496.84615384615387" y="12.923076923076923"/>
      <point x="496.84615384615387" y="43.07692307692308" type="curve" smooth="yes"/>
      <point x="496.84615384615387" y="58.34615384615385" type="line" smooth="yes"/>
      <point x="496.84615384615387" y="88.5"/>
      <point x="488.88461538461536" y="101.42307692307692"/>
      <point x="470.3076923076923" y="101.42307692307692" type="curve" smooth="yes"/>
      <point x="355.65384615384613" y="101.42307692307692" type="line"/>
      <point x="355.65384615384613" y="680.3461538461538" type="line" smooth="yes"/>
      <point x="355.65384615384613" y="692.3461538461538"/>
      <point x="333.7692307692308" y="703.3076923076923"/>
      <point x="318.11538461538464" y="703.3076923076923" type="curve"/>
      <point x="75.0" y="655.5769230769231" type="line" smooth="yes"/>
      <point x="59.73076923076923" y="652.5769230769231"/>
      <point x="51.76923076923077" y="644.3076923076923"/>
      <point x="51.76923076923077" y="630.6923076923077" type="curve" smooth="yes"/>
      <point x="51.76923076923077" y="606.1538461538462"/>
      <point x="57.76923076923077" y="558.1153846153846"/>
      <point x="79.61538461538461" y="558.1153846153846" type="curve"/>
      <point x="229.80769230769232" y="581.5769230769231" type="line"/>
      <point x="229.80769230769232" y="101.42307692307692" type="line"/>
      <point x="82.61538461538461" y="101.42307692307692" type="line" smooth="yes"/>
      <point x="64.03846153846153" y="101.42307692307692"/>
      <point x="56.07692307692308" y="88.5"/>
      <point x="56.07692307692308" y="58.34615384615385" type="curve" smooth="yes"/>
      <point x="56.07692307692308" y="43.07692307692308" type="line" smooth="yes"/>
      <point x="56.07692307692308" y="12.923076923076923"/>
      <point x="64.03846153846153" y="0.0"/>
    </contour>
  </outline>
</glyph>
<glyph name="two" format="2">
  <advance width="535.0"/>
  <unicode hex="0032"/>
  <outline>
    <contour>
      <point x="65.76923076923077" y="0.0" type="curve" smooth="yes"/>
      <point x="458.2307692307692" y="0.0" type="line" smooth="yes"/>
      <point x="476.8076923076923" y="0.0"/>
      <point x="484.7692307692308" y="12.923076923076923"/>
      <point x="484.7692307692308" y="43.07692307692308" type="curve" smooth="yes"/>
      <point x="484.7692307692308" y="58.0" type="line" smooth="yes"/>
      <point x="484.7692307692308" y="88.15384615384616"/>
      <point x="476.8076923076923" y="101.07692307692308"/>
      <point x="458.2307692307692" y="101.07692307692308" type="curve" smooth="yes"/>
      <point x="207.5" y="101.07692307692308" type="line"/>
      <point x="355.6923076923077" y="283.5769230769231" type="line" smooth="yes"/>
      <point x="449.5" y="397.84615384615387"/>
      <point x="474.84615384615387" y="445.2307692307692"/>
      <point x="474.84615384615387" y="520.3076923076923" type="curve" smooth="yes"/>
      <point x="474.84615384615387" y="631.1923076923077"/>
      <point x="396.11538461538464" y="707.3076923076923"/>
      <point x="258.5769230769231" y="707.3076923076923" type="curve" smooth="yes"/>
      <point x="176.0" y="707.3076923076923"/>
      <point x="66.15384615384616" y="675.0"/>
      <point x="66.15384615384616" y="621.8846153846154" type="curve" smooth="yes"/>
      <point x="66.15384615384616" y="599.6923076923077"/>
      <point x="90.76923076923077" y="559.4615384615385"/>
      <point x="114.5" y="559.4615384615385" type="curve" smooth="yes"/>
      <point x="132.15384615384616" y="559.4615384615385"/>
      <point x="169.57692307692307" y="605.2307692307693"/>
      <point x="242.92307692307693" y="605.2307692307693" type="curve" smooth="yes"/>
      <point x="304.2307692307692" y="605.2307692307693"/>
      <point x="347.0" y="573.7307692307693"/>
      <point x="347.0" y="516.2692307692307" type="curve" smooth="yes"/>
      <point x="347.0" y="477.53846153846155"/>
      <point x="334.8076923076923" y="449.6923076923077"/>
      <point x="298.61538461538464" y="403.3076923076923" type="curve" smooth="yes"/>
      <point x="43.88461538461539" y="88.46153846153847" type="line"/>
      <point x="41.53846153846154" y="85.46153846153847"/>
      <point x="40.53846153846154" y="79.76923076923077"/>
      <point x="40.53846153846154" y="72.76923076923077" type="curve" smooth="yes"/>
      <point x="40.53846153846154" y="47.230769230769226"/>
      <point x="51.80769230769231" y="0.0"/>
    </contour>
  </outline>
</glyph>
<glyph name="three" format="2">
  <advance width="535.0"/>
  <unicode hex="0033"/>
  <outline>
    <contour>
      <point x="250.57692307692307" y="-7.3076923076923075" type="curve" smooth="yes"/>
      <point x="371.8076923076923" y="-7.3076923076923075"/>
      <point x="475.53846153846155" y="63.38461538461539"/>
      <point x="475.53846153846155" y="203.65384615384616" type="curve" smooth="yes"/>
      <point x="475.53846153846155" y="293.61538461538464"/>
      <point x="428.5" y="359.2307692307692"/>
      <point x="356.0769230769231" y="384.38461538461536" type="curve"/>
      <point x="356.0769230769231" y="388.38461538461536" type="line"/>
      <point x="411.6923076923077" y="411.34615384615387"/>
      <point x="452.53846153846155" y="462.2692307692308"/>
      <point x="452.53846153846155" y="531.6153846153846" type="curve" smooth="yes"/>
      <point x="452.53846153846155" y="642.7692307692307"/>
      <point x="371.5" y="707.3076923076923"/>
      <point x="248.57692307692307" y="707.3076923076923" type="curve" smooth="yes"/>
      <point x="162.73076923076923" y="707.3076923076923"/>
      <point x="59.76923076923077" y="684.3076923076923"/>
      <point x="59.76923076923077" y="641.2307692307693" type="curve" smooth="yes"/>
      <point x="59.76923076923077" y="618.3846153846154"/>
      <point x="87.0" y="573.5384615384615"/>
      <point x="103.88461538461539" y="573.5384615384615" type="curve" smooth="yes"/>
      <point x="121.53846153846153" y="573.5384615384615"/>
      <point x="149.69230769230768" y="605.2307692307693"/>
      <point x="230.8846153846154" y="605.2307692307693" type="curve" smooth="yes"/>
      <point x="299.7692307692308" y="605.2307692307693"/>
      <point x="325.03846153846155" y="564.2307692307693"/>
      <point x="325.03846153846155" y="519.0384615384615" type="curve" smooth="yes"/>
      <point x="325.03846153846155" y="469.7307692307692"/>
      <point x="289.8076923076923" y="419.4230769230769"/>
      <point x="211.65384615384616" y="419.4230769230769" type="curve" smooth="yes"/>
      <point x="189.19230769230768" y="419.4230769230769" type="line" smooth="yes"/>
      <point x="170.6153846153846" y="419.4230769230769"/>
      <point x="162.65384615384616" y="406.5"/>
      <point x="162.65384615384616" y="376.34615384615387" type="curve" smooth="yes"/>
      <point x="162.65384615384616" y="360.7692307692308" type="line" smooth="yes"/>
      <point x="162.65384615384616" y="330.61538461538464"/>
      <point x="170.6153846153846" y="317.6923076923077"/>
      <point x="189.19230769230768" y="317.6923076923077" type="curve" smooth="yes"/>
      <point x="218.92307692307693" y="317.6923076923077" type="line" smooth="yes"/>
      <point x="305.0" y="317.6923076923077"/>
      <point x="347.34615384615387" y="283.7692307692308"/>
      <point x="347.34615384615387" y="205.30769230769232" type="curve" smooth="yes"/>
      <point x="347.34615384615387" y="127.03846153846155"/>
      <point x="292.11538461538464" y="94.11538461538461"/>
      <point x="232.76923076923077" y="94.11538461538461" type="curve" smooth="yes"/>
      <point x="149.0" y="94.11538461538461"/>
      <point x="101.61538461538461" y="133.03846153846155"/>
      <point x="83.26923076923077" y="133.03846153846155" type="curve" smooth="yes"/>
      <point x="64.42307692307692" y="133.03846153846155"/>
      <point x="39.11538461538461" y="85.03846153846153"/>
      <point x="39.11538461538461" y="66.03846153846153" type="curve" smooth="yes"/>
      <point x="39.11538461538461" y="16.846153846153847"/>
      <point x="161.03846153846155" y="-7.3076923076923075"/>
    </contour>
  </outline>
</glyph>
<glyph name="four" format="2">
  <advance width="535.0"/>
  <unicode hex="0034"/>
  <outline>
    <contour>
      <point x="366.84615384615387" y="-2.0" type="curve" smooth="yes"/>
      <point x="393.11538461538464" y="-2.0" type="line" smooth="yes"/>
      <point x="427.84615384615387" y="-2.0"/>
      <point x="442.7307692307692" y="7.961538461538462"/>
      <point x="442.7307692307692" y="26.53846153846154" type="curve" smooth="yes"/>
      <point x="442.7307692307692" y="150.65384615384616" type="line"/>
      <point x="490.7692307692308" y="150.65384615384616" type="line" smooth="yes"/>
      <point x="509.34615384615387" y="150.65384615384616"/>
      <point x="517.3076923076923" y="163.57692307692307"/>
      <point x="517.3076923076923" y="193.73076923076923" type="curve" smooth="yes"/>
      <point x="517.3076923076923" y="209.0" type="line" smooth="yes"/>
      <point x="517.3076923076923" y="239.15384615384616"/>
      <point x="509.34615384615387" y="252.07692307692307"/>
      <point x="490.7692307692308" y="252.07692307692307" type="curve" smooth="yes"/>
      <point x="442.7307692307692" y="252.07692307692307" type="line"/>
      <point x="442.7307692307692" y="673.4615384615385" type="line" smooth="yes"/>
      <point x="442.7307692307692" y="692.0384615384615"/>
      <point x="427.84615384615387" y="702.0"/>
      <point x="393.11538461538464" y="702.0" type="curve" smooth="yes"/>
      <point x="369.9230769230769" y="702.0" type="line" smooth="yes"/>
      <point x="346.11538461538464" y="702.0"/>
      <point x="328.53846153846155" y="698.9615384615385"/>
      <point x="318.2692307692308" y="684.7307692307693" type="curve" smooth="yes"/>
      <point x="10.192307692307692" y="240.1153846153846" type="line" smooth="yes"/>
      <point x="8.846153846153847" y="238.1153846153846"/>
      <point x="8.192307692307692" y="234.1153846153846"/>
      <point x="8.192307692307692" y="229.1153846153846" type="curve" smooth="yes"/>
      <point x="8.192307692307692" y="204.8846153846154"/>
      <point x="25.76923076923077" y="150.65384615384616"/>
      <point x="40.69230769230769" y="150.65384615384616" type="curve"/>
      <point x="317.2307692307692" y="150.65384615384616" type="line"/>
      <point x="317.2307692307692" y="26.53846153846154" type="line" smooth="yes"/>
      <point x="317.2307692307692" y="7.961538461538462"/>
      <point x="332.11538461538464" y="-2.0"/>
    </contour>
    <contour>
      <point x="139.8846153846154" y="252.07692307692307" type="line"/>
      <point x="322.15384615384613" y="527.4230769230769" type="line"/>
      <point x="326.15384615384613" y="526.0769230769231" type="line"/>
      <point x="320.84615384615387" y="504.4230769230769"/>
      <point x="317.2307692307692" y="466.84615384615387"/>
      <point x="317.2307692307692" y="438.61538461538464" type="curve" smooth="yes"/>
      <point x="317.2307692307692" y="252.07692307692307" type="line"/>
    </contour>
  </outline>
</glyph>
<glyph name="five" format="2">
  <advance width="535.0"/>
  <unicode hex="0035"/>
  <outline>
    <contour>
      <point x="234.0" y="-7.3076923076923075" type="curve" smooth="yes"/>
      <point x="352.2307692307692" y="-7.3076923076923075"/>
      <point x="484.46153846153845" y="44.23076923076923"/>
      <point x="484.46153846153845" y="214.96153846153845" type="curve" smooth="yes"/>
      <point x="484.46153846153845" y="383.5"/>
      <point x="372.6923076923077" y="433.7692307692308"/>
      <point x="236.57692307692307" y="433.7692307692308" type="curve" smooth="yes"/>
      <point x="201.57692307692307" y="433.7692307692308" type="line"/>
      <point x="212.6153846153846" y="598.5769230769231" type="line"/>
      <point x="419.8076923076923" y="598.5769230769231" type="line" smooth="yes"/>
      <point x="438.38461538461536" y="598.5769230769231"/>
      <point x="446.34615384615387" y="609.5384615384615"/>
      <point x="446.34615384615387" y="635.1153846153846" type="curve" smooth="yes"/>
      <point x="446.34615384615387" y="656.9230769230769" type="line" smooth="yes"/>
      <point x="446.34615384615387" y="687.0769230769231"/>
      <point x="438.38461538461536" y="700.0"/>
      <point x="419.8076923076923" y="700.0" type="curve" smooth="yes"/>
      <point x="134.84615384615384" y="700.0" type="line" smooth="yes"/>
      <point x="108.61538461538461" y="700.0"/>
      <point x="97.96153846153847" y="689.0384615384615"/>
      <point x="96.3076923076923" y="663.4615384615385" type="curve" smooth="yes"/>
      <point x="78.0" y="368.88461538461536" type="line"/>
      <point x="78.0" y="343.3076923076923"/>
      <point x="85.3076923076923" y="332.34615384615387"/>
      <point x="111.88461538461539" y="332.34615384615387" type="curve" smooth="yes"/>
      <point x="212.57692307692307" y="332.34615384615387" type="line" smooth="yes"/>
      <point x="313.2307692307692" y="332.34615384615387"/>
      <point x="356.61538461538464" y="288.9230769230769"/>
      <point x="356.61538461538464" y="212.34615384615384" type="curve" smooth="yes"/>
      <point x="356.61538461538464" y="135.57692307692307"/>
      <point x="303.53846153846155" y="94.11538461538461"/>
      <point x="233.0" y="94.11538461538461" type="curve" smooth="yes"/>
      <point x="150.57692307692307" y="94.11538461538461"/>
      <point x="102.3076923076923" y="129.5"/>
      <point x="88.53846153846153" y="129.5" type="curve" smooth="yes"/>
      <point x="69.6923076923077" y="129.5"/>
      <point x="41.11538461538461" y="78.88461538461539"/>
      <point x="41.11538461538461" y="60.53846153846154" type="curve" smooth="yes"/>
      <point x="41.11538461538461" y="25.73076923076923"/>
      <point x="121.6923076923077" y="-7.3076923076923075"/>
    </contour>
  </outline>
</glyph>
<glyph name="six" format="2">
  <advance width="535.0"/>
  <unicode hex="0036"/>
  <outline>
    <contour>
      <point x="267.2692307692308" y="-6.961538461538462" type="curve" smooth="yes"/>
      <point x="383.03846153846155" y="-6.961538461538462"/>
      <point x="495.6923076923077" y="61.61538461538461"/>
      <point x="495.6923076923077" y="211.5" type="curve" smooth="yes"/>
      <point x="495.6923076923077" y="360.0"/>
      <point x="385.84615384615387" y="420.03846153846155"/>
      <point x="300.7692307692308" y="420.03846153846155" type="curve" smooth="yes"/>
      <point x="260.6923076923077" y="420.03846153846155"/>
      <point x="224.8846153846154" y="412.2307692307692"/>
      <point x="188.65384615384616" y="392.2692307692308" type="curve"/>
      <point x="221.30769230769232" y="495.7692307692308"/>
      <point x="305.53846153846155" y="574.8076923076923"/>
      <point x="416.03846153846155" y="613.1538461538462" type="curve" smooth="yes"/>
      <point x="425.65384615384613" y="616.1538461538462"/>
      <point x="427.3076923076923" y="620.5"/>
      <point x="427.3076923076923" y="630.6923076923077" type="curve" smooth="yes"/>
      <point x="427.3076923076923" y="647.9230769230769"/>
      <point x="412.6923076923077" y="703.3076923076923"/>
      <point x="383.1923076923077" y="703.3076923076923" type="curve" smooth="yes"/>
      <point x="350.84615384615387" y="703.3076923076923"/>
      <point x="39.230769230769226" y="602.0384615384615"/>
      <point x="39.230769230769226" y="250.92307692307693" type="curve" smooth="yes"/>
      <point x="39.230769230769226" y="69.6923076923077"/>
      <point x="144.23076923076923" y="-6.961538461538462"/>
    </contour>
    <contour>
      <point x="269.65384615384613" y="94.46153846153847" type="curve" smooth="yes"/>
      <point x="217.1153846153846" y="94.46153846153847"/>
      <point x="167.03846153846155" y="127.11538461538461"/>
      <point x="167.03846153846155" y="240.30769230769232" type="curve" smooth="yes"/>
      <point x="167.03846153846155" y="257.34615384615387"/>
      <point x="167.73076923076923" y="274.4230769230769"/>
      <point x="169.07692307692307" y="291.15384615384613" type="curve"/>
      <point x="195.1153846153846" y="305.84615384615387"/>
      <point x="228.0" y="318.61538461538464"/>
      <point x="264.0" y="318.61538461538464" type="curve" smooth="yes"/>
      <point x="324.7692307692308" y="318.61538461538464"/>
      <point x="368.84615384615387" y="281.3076923076923"/>
      <point x="368.84615384615387" y="207.5" type="curve" smooth="yes"/>
      <point x="368.84615384615387" y="135.76923076923077"/>
      <point x="319.0769230769231" y="94.46153846153847"/>
    </contour>
  </outline>
</glyph>
<glyph name="seven" format="2">
  <advance width="535.0"/>
  <unicode hex="0037"/>
  <outline>
    <contour>
      <point x="142.6153846153846" y="-2.0" type="curve" smooth="yes"/>
      <point x="170.96153846153845" y="-2.0" type="line" smooth="yes"/>
      <point x="196.84615384615384" y="-2.0"/>
      <point x="216.42307692307693" y="2.6923076923076925"/>
      <point x="222.73076923076923" y="16.615384615384617" type="curve" smooth="yes"/>
      <point x="497.15384615384613" y="611.1923076923077" type="line" smooth="yes"/>
      <point x="498.15384615384613" y="614.1923076923077"/>
      <point x="499.15384615384613" y="618.8461538461538"/>
      <point x="499.15384615384613" y="623.5" type="curve" smooth="yes"/>
      <point x="499.15384615384613" y="650.6923076923077"/>
      <point x="482.5769230769231" y="700.0"/>
      <point x="472.61538461538464" y="700.0" type="curve" smooth="yes"/>
      <point x="76.96153846153847" y="700.0" type="line" smooth="yes"/>
      <point x="58.38461538461539" y="700.0"/>
      <point x="50.42307692307692" y="687.0769230769231"/>
      <point x="50.42307692307692" y="656.9230769230769" type="curve" smooth="yes"/>
      <point x="50.42307692307692" y="641.6538461538462" type="line" smooth="yes"/>
      <point x="50.42307692307692" y="611.5"/>
      <point x="58.38461538461539" y="598.5769230769231"/>
      <point x="76.96153846153847" y="598.5769230769231" type="curve" smooth="yes"/>
      <point x="356.65384615384613" y="598.5769230769231" type="line"/>
      <point x="94.46153846153847" y="33.23076923076923" type="line" smooth="yes"/>
      <point x="91.15384615384616" y="26.26923076923077"/>
      <point x="89.15384615384616" y="20.96153846153846"/>
      <point x="89.15384615384616" y="16.653846153846153" type="curve" smooth="yes"/>
      <point x="89.15384615384616" y="3.9615384615384617"/>
      <point x="106.42307692307692" y="-2.0"/>
    </contour>
  </outline>
</glyph>
<glyph name="eight" format="2">
  <advance width="535.0"/>
  <unicode hex="0038"/>
  <outline>
    <contour>
      <point x="269.61538461538464" y="-7.3076923076923075" type="curve" smooth="yes"/>
      <point x="422.96153846153845" y="-7.3076923076923075"/>
      <point x="498.38461538461536" y="85.8076923076923"/>
      <point x="498.38461538461536" y="195.46153846153845" type="curve" smooth="yes"/>
      <point x="498.38461538461536" y="305.11538461538464"/>
      <point x="447.96153846153845" y="355.2692307692308"/>
      <point x="384.9230769230769" y="383.61538461538464" type="curve"/>
      <point x="436.3076923076923" y="409.9230769230769"/>
      <point x="475.38461538461536" y="450.34615384615387"/>
      <point x="475.38461538461536" y="533.6538461538462" type="curve" smooth="yes"/>
      <point x="475.38461538461536" y="634.5769230769231"/>
      <point x="394.9230769230769" y="707.3076923076923"/>
      <point x="273.5769230769231" y="707.3076923076923" type="curve" smooth="yes"/>
      <point x="139.80769230769232" y="707.3076923076923"/>
      <point x="63.96153846153846" y="627.3846153846154"/>
      <point x="63.96153846153846" y="523.8461538461538" type="curve" smooth="yes"/>
      <point x="63.96153846153846" y="449.8076923076923"/>
      <point x="96.6923076923077" y="405.38461538461536"/>
      <point x="141.07692307692307" y="376.7307692307692" type="curve"/>
      <point x="84.0" y="352.96153846153845"/>
      <point x="36.61538461538461" y="299.5"/>
      <point x="36.61538461538461" y="201.34615384615384" type="curve" smooth="yes"/>
      <point x="36.61538461538461" y="79.26923076923077"/>
      <point x="116.26923076923077" y="-7.3076923076923075"/>
    </contour>
    <contour>
      <point x="268.3076923076923" y="94.11538461538461" type="curve" smooth="yes"/>
      <point x="205.80769230769232" y="94.11538461538461"/>
      <point x="163.80769230769232" y="136.5"/>
      <point x="163.80769230769232" y="207.23076923076923" type="curve" smooth="yes"/>
      <point x="163.80769230769232" y="271.15384615384613"/>
      <point x="191.73076923076923" y="307.5769230769231"/>
      <point x="231.6153846153846" y="334.3076923076923" type="curve"/>
      <point x="302.15384615384613" y="307.88461538461536"/>
      <point x="370.53846153846155" y="287.3076923076923"/>
      <point x="370.53846153846155" y="200.69230769230768" type="curve" smooth="yes"/>
      <point x="370.53846153846155" y="141.73076923076923"/>
      <point x="330.8076923076923" y="94.11538461538461"/>
    </contour>
    <contour>
      <point x="287.0769230769231" y="423.6923076923077" type="curve"/>
      <point x="232.80769230769232" y="444.0769230769231"/>
      <point x="188.5" y="466.0769230769231"/>
      <point x="188.5" y="527.1153846153846" type="curve" smooth="yes"/>
      <point x="188.5" y="580.4615384615385"/>
      <point x="226.34615384615384" y="605.8846153846154"/>
      <point x="270.3076923076923" y="605.8846153846154" type="curve" smooth="yes"/>
      <point x="314.2692307692308" y="605.8846153846154"/>
      <point x="352.15384615384613" y="579.1538461538462"/>
      <point x="352.15384615384613" y="527.1153846153846" type="curve" smooth="yes"/>
      <point x="352.15384615384613" y="483.15384615384613"/>
      <point x="327.2307692307692" y="449.0769230769231"/>
    </contour>
  </outline>
</glyph>
<glyph name="nine" format="2">
  <advance width="535.0"/>
  <unicode hex="0039"/>
  <outline>
    <contour>
      <point x="151.15384615384616" y="-3.9615384615384617" type="curve" smooth="yes"/>
      <point x="183.5" y="-3.9615384615384617"/>
      <point x="495.11538461538464" y="97.3076923076923"/>
      <point x="495.11538461538464" y="448.4230769230769" type="curve" smooth="yes"/>
      <point x="495.11538461538464" y="629.6538461538462"/>
      <point x="390.11538461538464" y="706.3076923076923"/>
      <point x="267.0769230769231" y="706.3076923076923" type="curve" smooth="yes"/>
      <point x="151.30769230769232" y="706.3076923076923"/>
      <point x="38.65384615384615" y="637.7307692307693"/>
      <point x="38.65384615384615" y="487.84615384615387" type="curve" smooth="yes"/>
      <point x="38.65384615384615" y="339.34615384615387"/>
      <point x="148.5" y="279.3076923076923"/>
      <point x="233.57692307692307" y="279.3076923076923" type="curve" smooth="yes"/>
      <point x="273.65384615384613" y="279.3076923076923"/>
      <point x="309.46153846153845" y="287.11538461538464"/>
      <point x="345.6923076923077" y="307.0769230769231" type="curve"/>
      <point x="313.03846153846155" y="203.57692307692307"/>
      <point x="229.46153846153845" y="123.23076923076923"/>
      <point x="118.3076923076923" y="86.1923076923077" type="curve" smooth="yes"/>
      <point x="108.6923076923077" y="83.1923076923077"/>
      <point x="107.03846153846153" y="78.84615384615384"/>
      <point x="107.03846153846153" y="68.65384615384616" type="curve" smooth="yes"/>
      <point x="107.03846153846153" y="51.42307692307692"/>
      <point x="121.65384615384616" y="-3.9615384615384617"/>
    </contour>
    <contour>
      <point x="270.34615384615387" y="380.7307692307692" type="curve" smooth="yes"/>
      <point x="209.57692307692307" y="380.7307692307692"/>
      <point x="165.5" y="418.03846153846155"/>
      <point x="165.5" y="491.84615384615387" type="curve" smooth="yes"/>
      <point x="165.5" y="563.5769230769231"/>
      <point x="215.26923076923077" y="604.8846153846154"/>
      <point x="264.6923076923077" y="604.8846153846154" type="curve" smooth="yes"/>
      <point x="317.2307692307692" y="604.8846153846154"/>
      <point x="367.3076923076923" y="572.2307692307693"/>
      <point x="367.3076923076923" y="459.03846153846155" type="curve" smooth="yes"/>
      <point x="367.3076923076923" y="442.0"/>
      <point x="366.61538461538464" y="424.9230769230769"/>
      <point x="365.2692307692308" y="408.1923076923077" type="curve"/>
      <point x="339.2307692307692" y="393.5"/>
      <point x="306.34615384615387" y="380.7307692307692"/>
    </contour>
  </outline>
</glyph>
<glyph name="colon" format="2">
  <advance width="198.0"/>
  <unicode hex="003A"/>
  <outline>
    <contour>
      <point x="85.76923076923077" y="384.9230769230769" type="curve" smooth="yes"/>
      <point x="112.57692307692308" y="384.9230769230769" type="line" smooth="yes"/>
      <point x="149.73076923076923" y="384.9230769230769"/>
      <point x="165.65384615384616" y="394.88461538461536"/>
      <point x="165.65384615384616" y="413.46153846153845" type="curve" smooth="yes"/>
      <point x="165.65384615384616" y="496.46153846153845" type="line" smooth="yes"/>
      <point x="165.65384615384616" y="515.0384615384615"/>
      <point x="149.73076923076923" y="525.0"/>
      <point x="112.57692307692308" y="525.0" type="curve" smooth="yes"/>
      <point x="85.76923076923077" y="525.0" type="line" smooth="yes"/>
      <point x="48.61538461538461" y="525.0"/>
      <point x="32.69230769230769" y="515.0384615384615"/>
      <point x="32.69230769230769" y="496.46153846153845" type="curve" smooth="yes"/>
      <point x="32.69230769230769" y="413.46153846153845" type="line" smooth="yes"/>
      <point x="32.69230769230769" y="394.88461538461536"/>
      <point x="48.61538461538461" y="384.9230769230769"/>
    </contour>
    <contour>
      <point x="85.76923076923077" y="-2.0" type="curve" smooth="yes"/>
      <point x="112.57692307692308" y="-2.0" type="line" smooth="yes"/>
      <point x="149.73076923076923" y="-2.0"/>
      <point x="165.65384615384616" y="7.961538461538462"/>
      <point x="165.65384615384616" y="26.53846153846154" type="curve" smooth="yes"/>
      <point x="165.65384615384616" y="109.53846153846155" type="line" smooth="yes"/>
      <point x="165.65384615384616" y="128.1153846153846"/>
      <point x="149.73076923076923" y="138.07692307692307"/>
      <point x="112.57692307692308" y="138.07692307692307" type="curve" smooth="yes"/>
      <point x="85.76923076923077" y="138.07692307692307" type="line" smooth="yes"/>
      <point x="48.61538461538461" y="138.07692307692307"/>
      <point x="32.69230769230769" y="128.1153846153846"/>
      <point x="32.69230769230769" y="109.53846153846155" type="curve" smooth="yes"/>
      <point x="32.69230769230769" y="26.53846153846154" type="line" smooth="yes"/>
      <point x="32.69230769230769" y="7.961538461538462"/>
      <point x="48.61538461538461" y="-2.0"/>
    </contour>
  </outline>
</glyph>
<glyph name="semicolon" format="2">
  <advance width="198.0"/>
  <unicode hex="003B"/>
  <outline>
    <contour>
      <point x="85.76923076923077" y="384.9230769230769" type="curve" smooth="yes"/>
      <point x="112.57692307692308" y="384.9230769230769" type="line" smooth="yes"/>
      <point x="149.73076923076923" y="384.9230769230769"/>
      <point x="165.65384615384616" y="394.88461538461536"/>
      <point x="165.65384615384616" y="413.46153846153845" type="curve" smooth="yes"/>
      <point x="165.65384615384616" y="496.46153846153845" type="line" smooth="yes"/>
      <point x="165.65384615384616" y="515.0384615384615"/>
      <point x="149.73076923076923" y="525.0"/>
      <point x="112.57692307692308" y="525.0" type="curve" smooth="yes"/>
      <point x="85.76923076923077" y="525.0" type="line" smooth="yes"/>
      <point x="48.61538461538461" y="525.0"/>
      <point x="32.69230769230769" y="515.0384615384615"/>
      <point x="32.69230769230769" y="496.46153846153845" type="curve" smooth="yes"/>
      <point x="32.69230769230769" y="413.46153846153845" type="line" smooth="yes"/>
      <point x="32.69230769230769" y="394.88461538461536"/>
      <point x="48.61538461538461" y="384.9230769230769"/>
    </contour>
    <component base="comma"/>
  </outline>
</glyph>
<glyph name="less" format="2">
  <advance width="560.0"/>
  <unicode hex="003C"/>
  <outline>
    <contour>
      <point x="500.88461538461536" y="8.615384615384615" type="curve" smooth="yes"/>
      <point x="496.53846153846155" y="8.615384615384615"/>
      <point x="491.53846153846155" y="9.615384615384615"/>
      <point x="485.88461538461536" y="12.26923076923077" type="curve" smooth="yes"/>
      <point x="69.0" y="190.19230769230768" type="line" smooth="yes"/>
      <point x="50.38461538461539" y="198.5"/>
      <point x="42.73076923076923" y="209.5"/>
      <point x="42.73076923076923" y="229.76923076923077" type="curve" smooth="yes"/>
      <point x="42.73076923076923" y="248.07692307692307" type="line" smooth="yes"/>
      <point x="42.73076923076923" y="267.6923076923077"/>
      <point x="50.38461538461539" y="279.34615384615387"/>
      <point x="69.0" y="287.65384615384613" type="curve" smooth="yes"/>
      <point x="485.2307692307692" y="464.9230769230769" type="line" smooth="yes"/>
      <point x="490.88461538461536" y="467.5769230769231"/>
      <point x="495.88461538461536" y="467.9230769230769"/>
      <point x="500.2307692307692" y="467.9230769230769" type="curve" smooth="yes"/>
      <point x="510.2692307692308" y="467.9230769230769"/>
      <point x="516.9615384615385" y="456.96153846153845"/>
      <point x="516.9615384615385" y="432.11538461538464" type="curve" smooth="yes"/>
      <point x="516.9615384615385" y="416.8076923076923" type="line" smooth="yes"/>
      <point x="516.9615384615385" y="390.65384615384613"/>
      <point x="509.3076923076923" y="373.11538461538464"/>
      <point x="489.38461538461536" y="364.8076923076923" type="curve" smooth="yes"/>
      <point x="175.23076923076923" y="238.76923076923077" type="line"/>
      <point x="490.03846153846155" y="112.38461538461539" type="line" smooth="yes"/>
      <point x="509.96153846153845" y="104.07692307692308"/>
      <point x="517.6153846153846" y="86.53846153846155"/>
      <point x="517.6153846153846" y="60.38461538461539" type="curve" smooth="yes"/>
      <point x="517.6153846153846" y="45.07692307692308" type="line" smooth="yes"/>
      <point x="517.6153846153846" y="20.23076923076923"/>
      <point x="510.9230769230769" y="8.615384615384615"/>
    </contour>
  </outline>
</glyph>
<glyph name="equal" format="2">
  <advance width="560.0"/>
  <unicode hex="003D"/>
  <outline>
    <contour>
      <point x="70.0" y="267.34615384615387" type="curve" smooth="yes"/>
      <point x="490.0" y="267.34615384615387" type="line" smooth="yes"/>
      <point x="508.5769230769231" y="267.34615384615387"/>
      <point x="516.5384615384615" y="280.2692307692308"/>
      <point x="516.5384615384615" y="310.4230769230769" type="curve" smooth="yes"/>
      <point x="516.5384615384615" y="319.5" type="line" smooth="yes"/>
      <point x="516.5384615384615" y="349.65384615384613"/>
      <point x="508.5769230769231" y="362.5769230769231"/>
      <point x="490.0" y="362.5769230769231" type="curve" smooth="yes"/>
      <point x="70.0" y="362.5769230769231" type="line" smooth="yes"/>
      <point x="51.42307692307692" y="362.5769230769231"/>
      <point x="43.46153846153846" y="349.65384615384613"/>
      <point x="43.46153846153846" y="319.5" type="curve" smooth="yes"/>
      <point x="43.46153846153846" y="310.4230769230769" type="line" smooth="yes"/>
      <point x="43.46153846153846" y="280.2692307692308"/>
      <point x="51.42307692307692" y="267.34615384615387"/>
    </contour>
    <contour>
      <point x="70.0" y="92.88461538461539" type="curve" smooth="yes"/>
      <point x="490.0" y="92.88461538461539" type="line" smooth="yes"/>
      <point x="508.5769230769231" y="92.88461538461539"/>
      <point x="516.5384615384615" y="105.8076923076923"/>
      <point x="516.5384615384615" y="135.96153846153845" type="curve" smooth="yes"/>
      <point x="516.5384615384615" y="145.03846153846155" type="line" smooth="yes"/>
      <point x="516.5384615384615" y="175.19230769230768"/>
      <point x="508.5769230769231" y="188.1153846153846"/>
      <point x="490.0" y="188.1153846153846" type="curve" smooth="yes"/>
      <point x="70.0" y="188.1153846153846" type="line" smooth="yes"/>
      <point x="51.42307692307692" y="188.1153846153846"/>
      <point x="43.46153846153846" y="175.19230769230768"/>
      <point x="43.46153846153846" y="145.03846153846155" type="curve" smooth="yes"/>
      <point x="43.46153846153846" y="135.96153846153845" type="line" smooth="yes"/>
      <point x="43.46153846153846" y="105.8076923076923"/>
      <point x="51.42307692307692" y="92.88461538461539"/>
    </contour>
  </outline>
</glyph>
<glyph name="greater" format="2">
  <advance width="560.0"/>
  <unicode hex="003E"/>
  <outline>
    <contour>
      <point x="58.80769230769231" y="8.615384615384615" type="curve" smooth="yes"/>
      <point x="63.15384615384615" y="8.615384615384615"/>
      <point x="68.15384615384616" y="9.615384615384615"/>
      <point x="73.8076923076923" y="12.26923076923077" type="curve" smooth="yes"/>
      <point x="490.6923076923077" y="190.19230769230768" type="line" smooth="yes"/>
      <point x="509.3076923076923" y="198.5"/>
      <point x="516.9615384615385" y="209.5"/>
      <point x="516.9615384615385" y="229.76923076923077" type="curve" smooth="yes"/>
      <point x="516.9615384615385" y="248.07692307692307" type="line" smooth="yes"/>
      <point x="516.9615384615385" y="267.6923076923077"/>
      <point x="509.3076923076923" y="279.34615384615387"/>
      <point x="490.6923076923077" y="287.65384615384613" type="curve" smooth="yes"/>
      <point x="74.46153846153847" y="464.9230769230769" type="line" smooth="yes"/>
      <point x="68.8076923076923" y="467.5769230769231"/>
      <point x="63.80769230769231" y="467.9230769230769"/>
      <point x="59.46153846153846" y="467.9230769230769" type="curve" smooth="yes"/>
      <point x="49.42307692307692" y="467.9230769230769"/>
      <point x="42.73076923076923" y="456.96153846153845"/>
      <point x="42.73076923076923" y="432.11538461538464" type="curve" smooth="yes"/>
      <point x="42.73076923076923" y="416.8076923076923" type="line" smooth="yes"/>
      <point x="42.73076923076923" y="390.65384615384613"/>
      <point x="50.38461538461539" y="373.11538461538464"/>
      <point x="70.3076923076923" y="364.8076923076923" type="curve" smooth="yes"/>
      <point x="384.46153846153845" y="238.76923076923077" type="line"/>
      <point x="69.65384615384616" y="112.38461538461539" type="line" smooth="yes"/>
      <point x="49.73076923076923" y="104.07692307692308"/>
      <point x="42.07692307692308" y="86.53846153846155"/>
      <point x="42.07692307692308" y="60.38461538461539" type="curve" smooth="yes"/>
      <point x="42.07692307692308" y="45.07692307692308" type="line" smooth="yes"/>
      <point x="42.07692307692308" y="20.23076923076923"/>
      <point x="48.76923076923077" y="8.615384615384615"/>
    </contour>
  </outline>
</glyph>
<glyph name="question" format="2">
  <advance width="445.0"/>
  <unicode hex="003F"/>
  <outline>
    <contour>
      <point x="168.3846153846154" y="215.07692307692307" type="curve" smooth="yes"/>
      <point x="188.6153846153846" y="215.07692307692307" type="line" smooth="yes"/>
      <point x="218.5" y="215.07692307692307"/>
      <point x="231.3846153846154" y="221.42307692307693"/>
      <point x="234.69230769230768" y="239.65384615384616" type="curve" smooth="yes"/>
      <point x="243.69230769230768" y="288.8076923076923"/>
      <point x="287.4230769230769" y="324.65384615384613"/>
      <point x="330.5" y="364.7692307692308" type="curve" smooth="yes"/>
      <point x="377.53846153846155" y="408.1923076923077"/>
      <point x="424.84615384615387" y="455.9230769230769"/>
      <point x="424.84615384615387" y="532.7692307692307" type="curve" smooth="yes"/>
      <point x="424.84615384615387" y="635.8461538461538"/>
      <point x="345.65384615384613" y="707.3076923076923"/>
      <point x="212.0" y="707.3076923076923" type="curve" smooth="yes"/>
      <point x="135.73076923076923" y="707.3076923076923"/>
      <point x="29.53846153846154" y="684.9615384615385"/>
      <point x="29.53846153846154" y="634.6153846153846" type="curve" smooth="yes"/>
      <point x="29.53846153846154" y="616.0384615384615"/>
      <point x="60.03846153846154" y="563.3461538461538"/>
      <point x="81.8076923076923" y="563.3461538461538" type="curve" smooth="yes"/>
      <point x="96.15384615384616" y="563.3461538461538"/>
      <point x="138.23076923076923" y="595.3846153846154"/>
      <point x="197.96153846153845" y="595.3846153846154" type="curve" smooth="yes"/>
      <point x="260.03846153846155" y="595.3846153846154"/>
      <point x="289.96153846153845" y="569.8846153846154"/>
      <point x="289.96153846153845" y="522.7692307692307" type="curve" smooth="yes"/>
      <point x="289.96153846153845" y="483.88461538461536"/>
      <point x="245.30769230769232" y="443.5"/>
      <point x="200.19230769230768" y="393.8076923076923" type="curve" smooth="yes"/>
      <point x="158.26923076923077" y="347.96153846153845"/>
      <point x="125.96153846153847" y="295.5"/>
      <point x="125.96153846153847" y="242.0" type="curve" smooth="yes"/>
      <point x="125.96153846153847" y="223.42307692307693"/>
      <point x="138.23076923076923" y="215.07692307692307"/>
    </contour>
    <contour>
      <point x="164.07692307692307" y="-2.0" type="curve" smooth="yes"/>
      <point x="190.8846153846154" y="-2.0" type="line" smooth="yes"/>
      <point x="228.03846153846155" y="-2.0"/>
      <point x="243.96153846153845" y="7.961538461538462"/>
      <point x="243.96153846153845" y="26.53846153846154" type="curve" smooth="yes"/>
      <point x="243.96153846153845" y="109.53846153846155" type="line" smooth="yes"/>
      <point x="243.96153846153845" y="128.1153846153846"/>
      <point x="228.03846153846155" y="138.07692307692307"/>
      <point x="190.8846153846154" y="138.07692307692307" type="curve" smooth="yes"/>
      <point x="164.07692307692307" y="138.07692307692307" type="line" smooth="yes"/>
      <point x="126.92307692307692" y="138.07692307692307"/>
      <point x="111.0" y="128.1153846153846"/>
      <point x="111.0" y="109.53846153846155" type="curve" smooth="yes"/>
      <point x="111.0" y="26.53846153846154" type="line" smooth="yes"/>
      <point x="111.0" y="7.961538461538462"/>
      <point x="126.92307692307692" y="-2.0"/>
    </contour>
  </outline>
</glyph>
<glyph name="at" format="2">
  <advance width="974.0"/>
  <unicode hex="0040"/>
  <outline>
    <contour>
      <point x="420.6923076923077" y="-124.03846153846153" type="curve" smooth="yes"/>
      <point x="471.6923076923077" y="-124.03846153846153"/>
      <point x="588.6923076923077" y="-113.03846153846153"/>
      <point x="588.6923076923077" y="-74.03846153846153" type="curve" smooth="yes"/>
      <point x="588.6923076923077" y="-53.46153846153846"/>
      <point x="583.6923076923077" y="-44.5"/>
      <point x="574.6923076923077" y="-44.5" type="curve" smooth="yes"/>
      <point x="550.6923076923077" y="-44.5"/>
      <point x="517.6923076923077" y="-73.5"/>
      <point x="420.6923076923077" y="-73.5" type="curve" smooth="yes"/>
      <point x="262.61538461538464" y="-73.5"/>
      <point x="155.23076923076923" y="52.88461538461539"/>
      <point x="155.23076923076923" y="238.96153846153845" type="curve" smooth="yes"/>
      <point x="155.23076923076923" y="473.03846153846155"/>
      <point x="326.61538461538464" y="656.4230769230769"/>
      <point x="544.6923076923077" y="656.4230769230769" type="curve" smooth="yes"/>
      <point x="707.7692307692307" y="656.4230769230769"/>
      <point x="817.1538461538462" y="547.0384615384615"/>
      <point x="817.1538461538462" y="381.96153846153845" type="curve" smooth="yes"/>
      <point x="817.1538461538462" y="246.1153846153846"/>
      <point x="754.6923076923077" y="129.23076923076923"/>
      <point x="683.3076923076923" y="129.23076923076923" type="curve" smooth="yes"/>
      <point x="664.1538461538462" y="129.23076923076923"/>
      <point x="646.5769230769231" y="137.07692307692307"/>
      <point x="646.5769230769231" y="167.30769230769232" type="curve" smooth="yes"/>
      <point x="646.5769230769231" y="187.3846153846154"/>
      <point x="678.2692307692307" y="475.11538461538464"/>
      <point x="678.2692307692307" y="478.38461538461536" type="curve"/>
      <point x="678.2692307692307" y="493.34615384615387"/>
      <point x="667.6923076923077" y="502.65384615384613"/>
      <point x="639.9230769230769" y="502.65384615384613" type="curve" smooth="yes"/>
      <point x="630.0" y="502.65384615384613" type="line" smooth="yes"/>
      <point x="597.1538461538462" y="502.65384615384613"/>
      <point x="592.2692307692307" y="489.61538461538464"/>
      <point x="583.8846153846154" y="461.2692307692308" type="curve"/>
      <point x="566.5384615384615" y="478.61538461538464"/>
      <point x="529.1923076923077" y="506.96153846153845"/>
      <point x="478.7692307692308" y="506.96153846153845" type="curve" smooth="yes"/>
      <point x="363.1923076923077" y="506.96153846153845"/>
      <point x="284.7692307692308" y="397.5769230769231"/>
      <point x="284.7692307692308" y="237.96153846153845" type="curve" smooth="yes"/>
      <point x="284.7692307692308" y="109.92307692307692"/>
      <point x="350.53846153846155" y="56.61538461538461"/>
      <point x="423.2307692307692" y="56.61538461538461" type="curve" smooth="yes"/>
      <point x="486.8076923076923" y="56.61538461538461"/>
      <point x="539.1923076923077" y="99.76923076923077"/>
      <point x="558.8461538461538" y="165.84615384615384" type="curve"/>
      <point x="541.2307692307693" y="178.73076923076923" type="line"/>
      <point x="541.2307692307693" y="142.23076923076923" type="line" smooth="yes"/>
      <point x="541.2307692307693" y="101.5"/>
      <point x="579.8461538461538" y="56.61538461538461"/>
      <point x="652.6538461538462" y="56.61538461538461" type="curve" smooth="yes"/>
      <point x="781.2307692307693" y="56.61538461538461"/>
      <point x="877.6923076923077" y="200.6153846153846"/>
      <point x="877.6923076923077" y="381.96153846153845" type="curve" smooth="yes"/>
      <point x="877.6923076923077" y="577.9615384615385"/>
      <point x="745.6923076923077" y="706.9615384615385"/>
      <point x="544.6923076923077" y="706.9615384615385" type="curve" smooth="yes"/>
      <point x="291.6923076923077" y="706.9615384615385"/>
      <point x="94.6923076923077" y="501.96153846153845"/>
      <point x="94.6923076923077" y="238.96153846153845" type="curve" smooth="yes"/>
      <point x="94.6923076923077" y="22.96153846153846"/>
      <point x="226.69230769230768" y="-124.03846153846153"/>
    </contour>
    <contour>
      <point x="459.5" y="143.76923076923077" type="curve" smooth="yes"/>
      <point x="418.03846153846155" y="143.76923076923077"/>
      <point x="391.7692307692308" y="173.76923076923077"/>
      <point x="391.7692307692308" y="244.92307692307693" type="curve" smooth="yes"/>
      <point x="391.7692307692308" y="349.84615384615387"/>
      <point x="423.38461538461536" y="421.4230769230769"/>
      <point x="499.8076923076923" y="421.4230769230769" type="curve" smooth="yes"/>
      <point x="530.0769230769231" y="421.4230769230769"/>
      <point x="551.9230769230769" y="407.96153846153845"/>
      <point x="566.9615384615385" y="394.61538461538464" type="curve"/>
      <point x="556.0384615384615" y="347.4230769230769"/>
      <point x="551.0" y="280.84615384615387"/>
      <point x="546.6538461538462" y="223.96153846153845" type="curve"/>
      <point x="523.0769230769231" y="168.8846153846154"/>
      <point x="490.3076923076923" y="143.76923076923077"/>
    </contour>
  </outline>
</glyph>
<glyph name="A" format="2">
  <advance width="613.0"/>
  <unicode hex="0041"/>
  <anchor x="307.0" y="0.0" name="bottom"/>
  <anchor x="585.1538461538462" y="0.0" name="ogonek"/>
  <anchor x="307.0" y="700.0" name="top"/>
  <outline>
    <contour>
      <point x="58.92307692307692" y="-2.0" type="curve" smooth="yes"/>
      <point x="86.8076923076923" y="-2.0" type="line" smooth="yes"/>
      <point x="109.42307692307692" y="-2.0"/>
      <point x="126.07692307692308" y="3.3076923076923075"/>
      <point x="130.73076923076923" y="17.26923076923077" type="curve" smooth="yes"/>
      <point x="176.6153846153846" y="153.80769230769232" type="line"/>
      <point x="432.6923076923077" y="153.80769230769232" type="line"/>
      <point x="479.2692307692308" y="17.26923076923077" type="line" smooth="yes"/>
      <point x="483.9230769230769" y="2.6538461538461537"/>
      <point x="503.84615384615387" y="-2.0"/>
      <point x="529.7307692307693" y="-2.0" type="curve" smooth="yes"/>
      <point x="561.2692307692307" y="-2.0" type="line" smooth="yes"/>
      <point x="594.5384615384615" y="-2.0"/>
      <point x="608.8461538461538" y="5.653846153846154"/>
      <point x="608.8461538461538" y="18.26923076923077" type="curve" smooth="yes"/>
      <point x="608.8461538461538" y="22.923076923076923"/>
      <point x="607.8461538461538" y="28.23076923076923"/>
      <point x="605.8461538461538" y="34.53846153846154" type="curve" smooth="yes"/>
      <point x="379.96153846153845" y="682.7307692307693" type="line" smooth="yes"/>
      <point x="375.4807692307692" y="695.5192307692307"/>
      <point x="358.71153846153845" y="702.0"/>
      <point x="328.84615384615387" y="702.0" type="curve" smooth="yes"/>
      <point x="284.8076923076923" y="702.0" type="line" smooth="yes"/>
      <point x="254.94230769230768" y="702.0"/>
      <point x="238.17307692307693" y="695.5192307692307"/>
      <point x="233.69230769230768" y="682.7307692307693" type="curve" smooth="yes"/>
      <point x="7.8076923076923075" y="34.88461538461539" type="line" smooth="yes"/>
      <point x="5.8076923076923075" y="28.23076923076923"/>
      <point x="4.153846153846153" y="22.923076923076923"/>
      <point x="4.153846153846153" y="18.26923076923077" type="curve" smooth="yes"/>
      <point x="4.153846153846153" y="5.3076923076923075"/>
      <point x="21.076923076923077" y="-2.0"/>
    </contour>
    <contour>
      <point x="214.42307692307693" y="266.4230769230769" type="line"/>
      <point x="289.34615384615387" y="485.96153846153845" type="line" smooth="yes"/>
      <point x="296.6730769230769" y="506.2692307692308"/>
      <point x="300.34615384615387" y="527.5769230769231"/>
      <point x="304.34615384615387" y="547.8846153846154" type="curve"/>
      <point x="307.65384615384613" y="547.8846153846154" type="line"/>
      <point x="311.3076923076923" y="527.5769230769231"/>
      <point x="314.96153846153845" y="505.9230769230769"/>
      <point x="321.61538461538464" y="485.96153846153845" type="curve" smooth="yes"/>
      <point x="395.2307692307692" y="266.4230769230769" type="line"/>
    </contour>
  </outline>
</glyph>
<glyph name="B" format="2">
  <advance width="593.0"/>
  <unicode hex="0042"/>
  <anchor x="301.5769230769231" y="0.0" name="bottom"/>
  <anchor x="301.5769230769231" y="700.0" name="top"/>
  <outline>
    <contour>
      <point x="119.8076923076923" y="0.0" type="curve" smooth="yes"/>
      <point x="317.96153846153845" y="0.0" type="line" smooth="yes"/>
      <point x="486.61538461538464" y="0.0"/>
      <point x="571.7692307692307" y="69.84615384615384"/>
      <point x="571.7692307692307" y="202.30769230769232" type="curve" smooth="yes"/>
      <point x="571.7692307692307" y="298.34615384615387"/>
      <point x="487.34615384615387" y="356.53846153846155"/>
      <point x="435.03846153846155" y="367.0" type="curve"/>
      <point x="434.38461538461536" y="371.0" type="line"/>
      <point x="493.6923076923077" y="392.88461538461536"/>
      <point x="543.0769230769231" y="455.34615384615387"/>
      <point x="543.0769230769231" y="523.0" type="curve" smooth="yes"/>
      <point x="543.0769230769231" y="628.0"/>
      <point x="473.3076923076923" y="700.0"/>
      <point x="311.2307692307692" y="700.0" type="curve" smooth="yes"/>
      <point x="119.8076923076923" y="700.0" type="line" smooth="yes"/>
      <point x="94.23076923076923" y="700.0"/>
      <point x="83.26923076923077" y="689.0384615384615"/>
      <point x="83.26923076923077" y="663.4615384615385" type="curve" smooth="yes"/>
      <point x="83.26923076923077" y="36.53846153846154" type="line" smooth="yes"/>
      <point x="83.26923076923077" y="10.961538461538462"/>
      <point x="94.23076923076923" y="0.0"/>
    </contour>
    <contour>
      <point x="214.42307692307693" y="111.96153846153845" type="line"/>
      <point x="214.42307692307693" y="301.0769230769231" type="line"/>
      <point x="312.6923076923077" y="301.0769230769231" type="line" smooth="yes"/>
      <point x="393.46153846153845" y="301.0769230769231"/>
      <point x="436.96153846153845" y="268.84615384615387"/>
      <point x="436.96153846153845" y="209.57692307692307" type="curve" smooth="yes"/>
      <point x="436.96153846153845" y="148.23076923076923"/>
      <point x="397.7692307692308" y="111.96153846153845"/>
      <point x="329.03846153846155" y="111.96153846153845" type="curve" smooth="yes"/>
    </contour>
    <contour>
      <point x="214.42307692307693" y="413.03846153846155" type="line"/>
      <point x="214.42307692307693" y="588.6923076923077" type="line"/>
      <point x="299.61538461538464" y="588.6923076923077" type="line" smooth="yes"/>
      <point x="374.11538461538464" y="588.6923076923077"/>
      <point x="408.2692307692308" y="560.2307692307693"/>
      <point x="408.2692307692308" y="502.5769230769231" type="curve" smooth="yes"/>
      <point x="408.2692307692308" y="452.61538461538464"/>
      <point x="366.96153846153845" y="413.03846153846155"/>
      <point x="299.6923076923077" y="413.03846153846155" type="curve" smooth="yes"/>
    </contour>
  </outline>
</glyph>
<glyph name="C" format="2">
  <advance width="619.0"/>
  <unicode hex="0043"/>
  <anchor x="347.5" y="0.0" name="bottom"/>
  <anchor x="366.96153846153845" y="700.0" name="top"/>
  <outline>
    <contour>
      <point x="375.7307692307692" y="-7.3076923076923075" type="curve" smooth="yes"/>
      <point x="437.65384615384613" y="-7.3076923076923075"/>
      <point x="515.3846153846154" y="6.461538461538462"/>
      <point x="559.2307692307693" y="31.03846153846154" type="curve" smooth="yes"/>
      <point x="579.8846153846154" y="42.69230769230769"/>
      <point x="593.1923076923077" y="56.65384615384615"/>
      <point x="593.1923076923077" y="72.53846153846153" type="curve" smooth="yes"/>
      <point x="593.1923076923077" y="87.8076923076923"/>
      <point x="567.9230769230769" y="148.1153846153846"/>
      <point x="542.5" y="148.1153846153846" type="curve" smooth="yes"/>
      <point x="528.1923076923077" y="148.1153846153846"/>
      <point x="473.5" y="104.65384615384616"/>
      <point x="375.7307692307692" y="104.65384615384616" type="curve" smooth="yes"/>
      <point x="246.19230769230768" y="104.65384615384616"/>
      <point x="183.96153846153845" y="185.76923076923077"/>
      <point x="183.96153846153845" y="350.3076923076923" type="curve" smooth="yes"/>
      <point x="183.96153846153845" y="516.5769230769231"/>
      <point x="245.8846153846154" y="594.6923076923077"/>
      <point x="378.4230769230769" y="594.6923076923077" type="curve" smooth="yes"/>
      <point x="473.7692307692308" y="594.6923076923077"/>
      <point x="516.5384615384615" y="558.5384615384615"/>
      <point x="528.1923076923077" y="558.5384615384615" type="curve" smooth="yes"/>
      <point x="549.0384615384615" y="558.5384615384615"/>
      <point x="582.4615384615385" y="615.8846153846154"/>
      <point x="582.4615384615385" y="640.0769230769231" type="curve" smooth="yes"/>
      <point x="582.4615384615385" y="650.6923076923077"/>
      <point x="572.8076923076923" y="661.0"/>
      <point x="557.1538461538462" y="670.0" type="curve" smooth="yes"/>
      <point x="519.2307692307693" y="692.2692307692307"/>
      <point x="444.4230769230769" y="707.3076923076923"/>
      <point x="379.6923076923077" y="707.3076923076923" type="curve" smooth="yes"/>
      <point x="160.46153846153845" y="707.3076923076923"/>
      <point x="49.15384615384615" y="589.6538461538462"/>
      <point x="49.15384615384615" y="351.3076923076923" type="curve" smooth="yes"/>
      <point x="49.15384615384615" y="105.34615384615384"/>
      <point x="153.46153846153845" y="-7.3076923076923075"/>
    </contour>
  </outline>
</glyph>
<glyph name="D" format="2">
  <advance width="695.0"/>
  <unicode hex="0044"/>
  <anchor x="334.1923076923077" y="0.0" name="bottom"/>
  <anchor x="149.5" y="350.0" name="center"/>
  <anchor x="330.3076923076923" y="700.0" name="top"/>
  <outline>
    <contour>
      <point x="119.8076923076923" y="0.0" type="curve" smooth="yes"/>
      <point x="329.65384615384613" y="0.0" type="line" smooth="yes"/>
      <point x="523.8846153846154" y="0.0"/>
      <point x="645.8461538461538" y="112.23076923076923"/>
      <point x="645.8461538461538" y="350.0" type="curve" smooth="yes"/>
      <point x="645.8461538461538" y="587.4230769230769"/>
      <point x="523.8846153846154" y="700.0"/>
      <point x="329.65384615384613" y="700.0" type="curve" smooth="yes"/>
      <point x="119.8076923076923" y="700.0" type="line" smooth="yes"/>
      <point x="94.23076923076923" y="700.0"/>
      <point x="83.26923076923077" y="689.0384615384615"/>
      <point x="83.26923076923077" y="663.4615384615385" type="curve" smooth="yes"/>
      <point x="83.26923076923077" y="36.53846153846154" type="line" smooth="yes"/>
      <point x="83.26923076923077" y="10.961538461538462"/>
      <point x="94.23076923076923" y="0.0"/>
    </contour>
    <contour>
      <point x="215.07692307692307" y="111.96153846153845" type="line"/>
      <point x="215.07692307692307" y="588.0384615384615" type="line"/>
      <point x="327.2307692307692" y="588.0384615384615" type="line" smooth="yes"/>
      <point x="440.46153846153845" y="588.0384615384615"/>
      <point x="511.03846153846155" y="511.7307692307692"/>
      <point x="511.03846153846155" y="350.0" type="curve" smooth="yes"/>
      <point x="511.03846153846155" y="187.92307692307693"/>
      <point x="440.46153846153845" y="111.96153846153845"/>
      <point x="327.2307692307692" y="111.96153846153845" type="curve" smooth="yes"/>
    </contour>
  </outline>
</glyph>
<glyph name="E" format="2">
  <advance width="546.0"/>
  <unicode hex="0045"/>
  <anchor x="297.0769230769231" y="0.0" name="bottom"/>
  <anchor x="476.03846153846155" y="0.0" name="ogonek"/>
  <anchor x="289.8076923076923" y="700.0" name="top"/>
  <outline>
    <contour>
      <point x="120.8076923076923" y="0.0" type="curve" smooth="yes"/>
      <point x="472.11538461538464" y="0.0" type="line" smooth="yes"/>
      <point x="490.6923076923077" y="0.0"/>
      <point x="498.65384615384613" y="12.923076923076923"/>
      <point x="498.65384615384613" y="43.07692307692308" type="curve" smooth="yes"/>
      <point x="498.65384615384613" y="68.88461538461539" type="line" smooth="yes"/>
      <point x="498.65384615384613" y="99.03846153846155"/>
      <point x="490.6923076923077" y="111.96153846153845"/>
      <point x="472.11538461538464" y="111.96153846153845" type="curve" smooth="yes"/>
      <point x="215.42307692307693" y="111.96153846153845" type="line"/>
      <point x="215.42307692307693" y="302.34615384615387" type="line"/>
      <point x="443.0769230769231" y="302.34615384615387" type="line" smooth="yes"/>
      <point x="461.65384615384613" y="302.34615384615387"/>
      <point x="469.61538461538464" y="315.2692307692308"/>
      <point x="469.61538461538464" y="345.4230769230769" type="curve" smooth="yes"/>
      <point x="469.61538461538464" y="371.2307692307692" type="line" smooth="yes"/>
      <point x="469.61538461538464" y="401.38461538461536"/>
      <point x="461.65384615384613" y="414.3076923076923"/>
      <point x="443.0769230769231" y="414.3076923076923" type="curve" smooth="yes"/>
      <point x="215.42307692307693" y="414.3076923076923" type="line"/>
      <point x="215.42307692307693" y="588.0384615384615" type="line"/>
      <point x="471.11538461538464" y="588.0384615384615" type="line" smooth="yes"/>
      <point x="489.6923076923077" y="588.0384615384615"/>
      <point x="497.65384615384613" y="600.9615384615385"/>
      <point x="497.65384615384613" y="631.1153846153846" type="curve" smooth="yes"/>
      <point x="497.65384615384613" y="656.9230769230769" type="line" smooth="yes"/>
      <point x="497.65384615384613" y="687.0769230769231"/>
      <point x="489.6923076923077" y="700.0"/>
      <point x="471.11538461538464" y="700.0" type="curve" smooth="yes"/>
      <point x="120.8076923076923" y="700.0" type="line" smooth="yes"/>
      <point x="95.23076923076923" y="700.0"/>
      <point x="84.26923076923077" y="689.0384615384615"/>
      <point x="84.26923076923077" y="663.4615384615385" type="curve" smooth="yes"/>
      <point x="84.26923076923077" y="36.53846153846154" type="line" smooth="yes"/>
      <point x="84.26923076923077" y="10.961538461538462"/>
      <point x="95.23076923076923" y="0.0"/>
    </contour>
  </outline>
</glyph>
<glyph name="F" format="2">
  <advance width="503.0"/>
  <unicode hex="0046"/>
  <anchor x="148.84615384615384" y="0.0" name="bottom"/>
  <anchor x="283.5192307692308" y="700.0" name="top"/>
  <outline>
    <contour>
      <point x="136.34615384615384" y="-2.0" type="curve" smooth="yes"/>
      <point x="161.34615384615384" y="-2.0" type="line" smooth="yes"/>
      <point x="198.5" y="-2.0"/>
      <point x="214.42307692307693" y="7.961538461538462"/>
      <point x="214.42307692307693" y="26.53846153846154" type="curve" smooth="yes"/>
      <point x="214.42307692307693" y="275.15384615384613" type="line"/>
      <point x="433.15384615384613" y="275.15384615384613" type="line" smooth="yes"/>
      <point x="451.7307692307692" y="275.15384615384613"/>
      <point x="459.6923076923077" y="288.0769230769231"/>
      <point x="459.6923076923077" y="318.2307692307692" type="curve" smooth="yes"/>
      <point x="459.6923076923077" y="344.03846153846155" type="line" smooth="yes"/>
      <point x="459.6923076923077" y="374.1923076923077"/>
      <point x="451.7307692307692" y="387.11538461538464"/>
      <point x="433.15384615384613" y="387.11538461538464" type="curve" smooth="yes"/>
      <point x="214.42307692307693" y="387.11538461538464" type="line"/>
      <point x="214.42307692307693" y="588.0384615384615" type="line"/>
      <point x="443.96153846153845" y="588.0384615384615" type="line" smooth="yes"/>
      <point x="462.53846153846155" y="588.0384615384615"/>
      <point x="470.5" y="600.9615384615385"/>
      <point x="470.5" y="631.1153846153846" type="curve" smooth="yes"/>
      <point x="470.5" y="656.9230769230769" type="line" smooth="yes"/>
      <point x="470.5" y="687.0769230769231"/>
      <point x="462.53846153846155" y="700.0"/>
      <point x="443.96153846153845" y="700.0" type="curve" smooth="yes"/>
      <point x="119.8076923076923" y="700.0" type="line" smooth="yes"/>
      <point x="94.23076923076923" y="700.0"/>
      <point x="83.26923076923077" y="689.0384615384615"/>
      <point x="83.26923076923077" y="663.4615384615385" type="curve" smooth="yes"/>
      <point x="83.26923076923077" y="26.53846153846154" type="line" smooth="yes"/>
      <point x="83.26923076923077" y="7.961538461538462"/>
      <point x="99.1923076923077" y="-2.0"/>
    </contour>
  </outline>
</glyph>
<glyph name="G" format="2">
  <advance width="672.0"/>
  <unicode hex="0047"/>
  <anchor x="366.0769230769231" y="0.0" name="bottom"/>
  <anchor x="350.15384615384613" y="700.0" name="top"/>
  <outline>
    <contour>
      <point x="371.2307692307692" y="-7.3076923076923075" type="curve" smooth="yes"/>
      <point x="457.11538461538464" y="-7.3076923076923075"/>
      <point x="600.7692307692307" y="4.769230769230769"/>
      <point x="600.7692307692307" y="69.26923076923077" type="curve" smooth="yes"/>
      <point x="600.7692307692307" y="342.7692307692308" type="line" smooth="yes"/>
      <point x="600.7692307692307" y="368.34615384615387"/>
      <point x="589.8076923076923" y="379.3076923076923"/>
      <point x="564.2307692307693" y="379.3076923076923" type="curve" smooth="yes"/>
      <point x="370.9230769230769" y="379.3076923076923" type="line" smooth="yes"/>
      <point x="352.34615384615387" y="379.3076923076923"/>
      <point x="344.38461538461536" y="366.38461538461536"/>
      <point x="344.38461538461536" y="336.2307692307692" type="curve" smooth="yes"/>
      <point x="344.38461538461536" y="309.7692307692308" type="line" smooth="yes"/>
      <point x="344.38461538461536" y="279.61538461538464"/>
      <point x="352.34615384615387" y="266.6923076923077"/>
      <point x="370.9230769230769" y="266.6923076923077" type="curve" smooth="yes"/>
      <point x="468.96153846153845" y="266.6923076923077" type="line"/>
      <point x="468.96153846153845" y="63.86538461538461" type="line"/>
      <point x="501.88461538461536" y="121.32692307692308" type="line"/>
      <point x="462.0769230769231" y="110.53846153846155"/>
      <point x="421.88461538461536" y="104.65384615384616"/>
      <point x="373.3076923076923" y="104.65384615384616" type="curve" smooth="yes"/>
      <point x="236.5" y="104.65384615384616"/>
      <point x="183.96153846153845" y="200.65384615384616"/>
      <point x="183.96153846153845" y="351.6923076923077" type="curve" smooth="yes"/>
      <point x="183.96153846153845" y="510.0"/>
      <point x="240.0" y="594.6923076923077"/>
      <point x="378.4230769230769" y="594.6923076923077" type="curve" smooth="yes"/>
      <point x="473.7692307692308" y="594.6923076923077"/>
      <point x="519.8076923076923" y="558.5384615384615"/>
      <point x="531.4615384615385" y="558.5384615384615" type="curve" smooth="yes"/>
      <point x="552.3076923076923" y="558.5384615384615"/>
      <point x="585.7307692307693" y="615.8846153846154"/>
      <point x="585.7307692307693" y="640.0769230769231" type="curve" smooth="yes"/>
      <point x="585.7307692307693" y="676.8846153846154"/>
      <point x="471.5" y="707.3076923076923"/>
      <point x="379.6923076923077" y="707.3076923076923" type="curve" smooth="yes"/>
      <point x="162.19230769230768" y="707.3076923076923"/>
      <point x="49.15384615384615" y="591.0384615384615"/>
      <point x="49.15384615384615" y="349.2307692307692" type="curve" smooth="yes"/>
      <point x="49.15384615384615" y="105.34615384615384"/>
      <point x="155.8846153846154" y="-7.3076923076923075"/>
    </contour>
  </outline>
</glyph>
<glyph name="H" format="2">
  <advance width="733.0"/>
  <unicode hex="0048"/>
  <anchor x="366.0" y="0.0" name="bottom"/>
  <anchor x="366.0" y="539.5384615384615" name="center"/>
  <anchor x="366.0" y="700.0" name="top"/>
  <outline>
    <contour>
      <point x="137.34615384615384" y="-2.0" type="curve" smooth="yes"/>
      <point x="163.0" y="-2.0" type="line" smooth="yes"/>
      <point x="200.15384615384616" y="-2.0"/>
      <point x="216.07692307692307" y="7.961538461538462"/>
      <point x="216.07692307692307" y="26.53846153846154" type="curve" smooth="yes"/>
      <point x="216.07692307692307" y="301.38461538461536" type="line"/>
      <point x="517.9230769230769" y="301.38461538461536" type="line"/>
      <point x="517.9230769230769" y="26.53846153846154" type="line" smooth="yes"/>
      <point x="517.9230769230769" y="7.961538461538462"/>
      <point x="533.8461538461538" y="-2.0"/>
      <point x="571.0" y="-2.0" type="curve" smooth="yes"/>
      <point x="596.6538461538462" y="-2.0" type="line" smooth="yes"/>
      <point x="633.8076923076923" y="-2.0"/>
      <point x="649.7307692307693" y="7.961538461538462"/>
      <point x="649.7307692307693" y="26.53846153846154" type="curve" smooth="yes"/>
      <point x="649.7307692307693" y="673.4615384615385" type="line" smooth="yes"/>
      <point x="649.7307692307693" y="692.0384615384615"/>
      <point x="633.8076923076923" y="702.0"/>
      <point x="596.6538461538462" y="702.0" type="curve" smooth="yes"/>
      <point x="571.0" y="702.0" type="line" smooth="yes"/>
      <point x="533.8461538461538" y="702.0"/>
      <point x="517.9230769230769" y="692.0384615384615"/>
      <point x="517.9230769230769" y="673.4615384615385" type="curve" smooth="yes"/>
      <point x="517.9230769230769" y="414.0" type="line"/>
      <point x="216.07692307692307" y="414.0" type="line"/>
      <point x="216.07692307692307" y="673.4615384615385" type="line" smooth="yes"/>
      <point x="216.07692307692307" y="692.0384615384615"/>
      <point x="200.15384615384616" y="702.0"/>
      <point x="163.0" y="702.0" type="curve" smooth="yes"/>
      <point x="137.34615384615384" y="702.0" type="line" smooth="yes"/>
      <point x="100.1923076923077" y="702.0"/>
      <point x="84.26923076923077" y="692.0384615384615"/>
      <point x="84.26923076923077" y="673.4615384615385" type="curve" smooth="yes"/>
      <point x="84.26923076923077" y="26.53846153846154" type="line" smooth="yes"/>
      <point x="84.26923076923077" y="7.961538461538462"/>
      <point x="100.1923076923077" y="-2.0"/>
    </contour>
  </outline>
</glyph>
<glyph name="I" format="2">
  <advance width="283.0"/>
  <unicode hex="0049"/>
  <anchor x="141.96153846153845" y="0.0" name="bottom"/>
  <anchor x="182.03846153846155" y="0.0" name="ogonek"/>
  <anchor x="141.65384615384616" y="700.0" name="top"/>
  <outline>
    <contour>
      <point x="128.5" y="-2.6538461538461537" type="curve" smooth="yes"/>
      <point x="154.15384615384616" y="-2.6538461538461537" type="line" smooth="yes"/>
      <point x="191.30769230769232" y="-2.6538461538461537"/>
      <point x="207.23076923076923" y="7.961538461538462"/>
      <point x="207.23076923076923" y="26.53846153846154" type="curve" smooth="yes"/>
      <point x="207.23076923076923" y="673.4615384615385" type="line" smooth="yes"/>
      <point x="207.23076923076923" y="692.0384615384615"/>
      <point x="191.30769230769232" y="702.6538461538462"/>
      <point x="154.15384615384616" y="702.6538461538462" type="curve" smooth="yes"/>
      <point x="128.5" y="702.6538461538462" type="line" smooth="yes"/>
      <point x="91.34615384615384" y="702.6538461538462"/>
      <point x="75.42307692307692" y="692.0384615384615"/>
      <point x="75.42307692307692" y="673.4615384615385" type="curve" smooth="yes"/>
      <point x="75.42307692307692" y="26.53846153846154" type="line" smooth="yes"/>
      <point x="75.42307692307692" y="7.961538461538462"/>
      <point x="91.34615384615384" y="-2.6538461538461537"/>
    </contour>
  </outline>
</glyph>
<glyph name="J" format="2">
  <advance width="402.0"/>
  <unicode hex="004A"/>
  <anchor x="263.88461538461536" y="700.0" name="top"/>
  <outline>
    <contour>
      <point x="118.11538461538461" y="-7.3076923076923075" type="curve" smooth="yes"/>
      <point x="268.84615384615387" y="-7.3076923076923075"/>
      <point x="330.11538461538464" y="76.38461538461539"/>
      <point x="330.11538461538464" y="203.03846153846155" type="curve" smooth="yes"/>
      <point x="330.11538461538464" y="673.4615384615385" type="line" smooth="yes"/>
      <point x="330.11538461538464" y="692.0384615384615"/>
      <point x="314.1923076923077" y="702.6538461538462"/>
      <point x="277.03846153846155" y="702.6538461538462" type="curve" smooth="yes"/>
      <point x="251.3846153846154" y="702.6538461538462" type="line" smooth="yes"/>
      <point x="214.23076923076923" y="702.6538461538462"/>
      <point x="198.30769230769232" y="692.0384615384615"/>
      <point x="198.30769230769232" y="673.4615384615385" type="curve" smooth="yes"/>
      <point x="198.30769230769232" y="215.92307692307693" type="line" smooth="yes"/>
      <point x="198.30769230769232" y="138.42307692307693"/>
      <point x="168.42307692307693" y="105.34615384615384"/>
      <point x="94.92307692307692" y="105.34615384615384" type="curve" smooth="yes"/>
      <point x="62.92307692307692" y="105.34615384615384"/>
      <point x="45.80769230769231" y="113.6923076923077"/>
      <point x="36.5" y="113.6923076923077" type="curve" smooth="yes"/>
      <point x="10.692307692307692" y="111.73076923076923"/>
      <point x="2.0769230769230766" y="47.0"/>
      <point x="2.0769230769230766" y="33.84615384615385" type="curve" smooth="yes"/>
      <point x="2.0769230769230766" y="-3.6153846153846154"/>
      <point x="89.26923076923077" y="-7.3076923076923075"/>
    </contour>
  </outline>
</glyph>
<glyph name="K" format="2">
  <advance width="576.0"/>
  <unicode hex="004B"/>
  <anchor x="294.53846153846155" y="0.0" name="bottom"/>
  <anchor x="301.0769230769231" y="700.0" name="top"/>
  <outline>
    <contour>
      <point x="131.76923076923077" y="-2.0" type="curve" smooth="yes"/>
      <point x="157.42307692307693" y="-2.0" type="line" smooth="yes"/>
      <point x="194.57692307692307" y="-2.0"/>
      <point x="210.5" y="7.961538461538462"/>
      <point x="210.5" y="26.53846153846154" type="curve" smooth="yes"/>
      <point x="210.5" y="324.5" type="line"/>
      <point x="214.5" y="325.15384615384613" type="line"/>
      <point x="436.4230769230769" y="14.923076923076923" type="line" smooth="yes"/>
      <point x="446.46153846153845" y="0.6153846153846154"/>
      <point x="468.7692307692308" y="-2.0"/>
      <point x="495.34615384615387" y="-2.0" type="curve" smooth="yes"/>
      <point x="537.4230769230769" y="-2.0" type="line" smooth="yes"/>
      <point x="573.6538461538462" y="-2.0"/>
      <point x="589.2692307692307" y="2.9615384615384617"/>
      <point x="589.2692307692307" y="12.653846153846153" type="curve" smooth="yes"/>
      <point x="589.2692307692307" y="17.307692307692307"/>
      <point x="587.2692307692307" y="23.26923076923077"/>
      <point x="580.9230769230769" y="31.923076923076923" type="curve" smooth="yes"/>
      <point x="332.84615384615387" y="365.5" type="line"/>
      <point x="545.5769230769231" y="667.0384615384615" type="line" smooth="yes"/>
      <point x="551.9230769230769" y="675.6923076923077"/>
      <point x="554.2692307692307" y="682.6923076923077"/>
      <point x="554.2692307692307" y="687.6923076923077" type="curve" smooth="yes"/>
      <point x="554.2692307692307" y="696.0"/>
      <point x="539.3461538461538" y="702.0"/>
      <point x="505.53846153846155" y="702.0" type="curve" smooth="yes"/>
      <point x="471.34615384615387" y="702.0" type="line" smooth="yes"/>
      <point x="444.7692307692308" y="702.0"/>
      <point x="422.4230769230769" y="698.3461538461538"/>
      <point x="413.4230769230769" y="684.7307692307693" type="curve" smooth="yes"/>
      <point x="214.5" y="391.65384615384613" type="line"/>
      <point x="210.5" y="392.3076923076923" type="line"/>
      <point x="210.5" y="673.4615384615385" type="line" smooth="yes"/>
      <point x="210.5" y="692.0384615384615"/>
      <point x="194.57692307692307" y="702.0"/>
      <point x="157.42307692307693" y="702.0" type="curve" smooth="yes"/>
      <point x="131.76923076923077" y="702.0" type="line" smooth="yes"/>
      <point x="94.61538461538461" y="702.0"/>
      <point x="78.6923076923077" y="692.0384615384615"/>
      <point x="78.6923076923077" y="673.4615384615385" type="curve" smooth="yes"/>
      <point x="78.6923076923077" y="26.53846153846154" type="line" smooth="yes"/>
      <point x="78.6923076923077" y="7.961538461538462"/>
      <point x="94.61538461538461" y="-2.0"/>
    </contour>
  </outline>
</glyph>
<glyph name="L" format="2">
  <advance width="484.0"/>
  <unicode hex="004C"/>
  <anchor x="282.1923076923077" y="0.0" name="bottom"/>
  <anchor x="384.9230769230769" y="335.0" name="center"/>
  <anchor x="152.84615384615384" y="700.6923076923077" name="top"/>
  <anchor x="340.88461538461536" y="700.0" name="topright"/>
  <outline>
    <contour>
      <point x="119.8076923076923" y="0.0" type="curve" smooth="yes"/>
      <point x="450.84615384615387" y="0.0" type="line" smooth="yes"/>
      <point x="469.4230769230769" y="0.0"/>
      <point x="477.38461538461536" y="12.923076923076923"/>
      <point x="477.38461538461536" y="43.07692307692308" type="curve" smooth="yes"/>
      <point x="477.38461538461536" y="68.88461538461539" type="line" smooth="yes"/>
      <point x="477.38461538461536" y="99.03846153846155"/>
      <point x="469.4230769230769" y="111.96153846153845"/>
      <point x="450.84615384615387" y="111.96153846153845" type="curve" smooth="yes"/>
      <point x="214.42307692307693" y="111.96153846153845" type="line"/>
      <point x="214.42307692307693" y="673.4615384615385" type="line" smooth="yes"/>
      <point x="214.42307692307693" y="692.0384615384615"/>
      <point x="198.5" y="702.0"/>
      <point x="161.34615384615384" y="702.0" type="curve" smooth="yes"/>
      <point x="136.34615384615384" y="702.0" type="line" smooth="yes"/>
      <point x="99.1923076923077" y="702.0"/>
      <point x="83.26923076923077" y="692.0384615384615"/>
      <point x="83.26923076923077" y="673.4615384615385" type="curve" smooth="yes"/>
      <point x="83.26923076923077" y="36.53846153846154" type="line" smooth="yes"/>
      <point x="83.26923076923077" y="10.961538461538462"/>
      <point x="94.23076923076923" y="0.0"/>
    </contour>
  </outline>
</glyph>
<glyph name="M" format="2">
  <advance width="843.0"/>
  <unicode hex="004D"/>
  <outline>
    <contour>
      <point x="405.61538461538464" y="176.69230769230768" type="curve" smooth="yes"/>
      <point x="438.4230769230769" y="176.69230769230768" type="line" smooth="yes"/>
      <point x="454.65384615384613" y="176.69230769230768"/>
      <point x="464.5769230769231" y="182.65384615384616"/>
      <point x="472.1923076923077" y="193.6153846153846" type="curve" smooth="yes"/>
      <point x="613.1923076923077" y="442.6923076923077" type="line" smooth="yes"/>
      <point x="621.5384615384615" y="456.38461538461536"/>
      <point x="628.5384615384615" y="469.0769230769231"/>
      <point x="635.8846153846154" y="483.7692307692308" type="curve"/>
      <point x="639.8846153846154" y="482.7692307692308" type="line"/>
      <point x="639.1923076923077" y="466.0769230769231"/>
      <point x="639.1923076923077" y="449.38461538461536"/>
      <point x="639.1923076923077" y="431.6923076923077" type="curve" smooth="yes"/>
      <point x="639.1923076923077" y="26.53846153846154" type="line" smooth="yes"/>
      <point x="639.1923076923077" y="7.961538461538462"/>
      <point x="655.1153846153846" y="-2.0"/>
      <point x="692.2692307692307" y="-2.0" type="curve" smooth="yes"/>
      <point x="713.6538461538462" y="-2.0" type="line" smooth="yes"/>
      <point x="750.8076923076923" y="-2.0"/>
      <point x="766.7307692307693" y="7.961538461538462"/>
      <point x="766.7307692307693" y="26.53846153846154" type="curve" smooth="yes"/>
      <point x="766.7307692307693" y="673.4615384615385" type="line" smooth="yes"/>
      <point x="766.7307692307693" y="692.0384615384615"/>
      <point x="750.8076923076923" y="702.0"/>
      <point x="713.6538461538462" y="702.0" type="curve" smooth="yes"/>
      <point x="668.2307692307693" y="702.0" type="line" smooth="yes"/>
      <point x="640.9615384615385" y="702.0"/>
      <point x="621.7692307692307" y="695.0"/>
      <point x="612.5" y="678.1153846153846" type="curve" smooth="yes"/>
      <point x="438.3076923076923" y="372.0769230769231" type="line" smooth="yes"/>
      <point x="433.2307692307692" y="362.61538461538464"/>
      <point x="426.0769230769231" y="349.65384615384613"/>
      <point x="421.6923076923077" y="338.11538461538464" type="curve"/>
      <point x="418.0" y="349.3076923076923"/>
      <point x="411.5769230769231" y="361.2307692307692"/>
      <point x="406.15384615384613" y="371.03846153846155" type="curve" smooth="yes"/>
      <point x="232.19230769230768" y="678.1153846153846" type="line" smooth="yes"/>
      <point x="222.92307692307693" y="695.0"/>
      <point x="203.73076923076923" y="702.0"/>
      <point x="176.46153846153845" y="702.0" type="curve" smooth="yes"/>
      <point x="129.34615384615384" y="702.0" type="line" smooth="yes"/>
      <point x="92.1923076923077" y="702.0"/>
      <point x="76.26923076923077" y="692.0384615384615"/>
      <point x="76.26923076923077" y="673.4615384615385" type="curve" smooth="yes"/>
      <point x="76.26923076923077" y="26.53846153846154" type="line" smooth="yes"/>
      <point x="76.26923076923077" y="7.961538461538462"/>
      <point x="92.1923076923077" y="-2.0"/>
      <point x="129.34615384615384" y="-2.0" type="curve" smooth="yes"/>
      <point x="150.73076923076923" y="-2.0" type="line" smooth="yes"/>
      <point x="187.8846153846154" y="-2.0"/>
      <point x="203.80769230769232" y="7.961538461538462"/>
      <point x="203.80769230769232" y="26.53846153846154" type="curve" smooth="yes"/>
      <point x="203.80769230769232" y="433.7692307692308" type="line" smooth="yes"/>
      <point x="203.80769230769232" y="451.46153846153845"/>
      <point x="203.80769230769232" y="468.15384615384613"/>
      <point x="203.1153846153846" y="484.8461538461538" type="curve"/>
      <point x="207.1153846153846" y="485.8461538461538" type="line"/>
      <point x="214.46153846153845" y="471.15384615384613"/>
      <point x="221.46153846153845" y="458.46153846153845"/>
      <point x="229.80769230769232" y="444.7692307692308" type="curve" smooth="yes"/>
      <point x="371.84615384615387" y="193.6153846153846" type="line" smooth="yes"/>
      <point x="379.46153846153845" y="182.65384615384616"/>
      <point x="389.7307692307692" y="176.69230769230768"/>
    </contour>
  </outline>
</glyph>
<glyph name="N" format="2">
  <advance width="719.0"/>
  <unicode hex="004E"/>
  <anchor x="360.0" y="0.0" name="bottom"/>
  <anchor x="360.0" y="700.0" name="top"/>
  <outline>
    <contour>
      <point x="129.34615384615384" y="-2.0" type="curve" smooth="yes"/>
      <point x="150.73076923076923" y="-2.0" type="line" smooth="yes"/>
      <point x="187.8846153846154" y="-2.0"/>
      <point x="203.80769230769232" y="7.961538461538462"/>
      <point x="203.80769230769232" y="26.53846153846154" type="curve" smooth="yes"/>
      <point x="203.80769230769232" y="409.2307692307692" type="line" smooth="yes"/>
      <point x="203.80769230769232" y="438.2307692307692"/>
      <point x="203.80769230769232" y="454.2307692307692"/>
      <point x="201.80769230769232" y="477.2307692307692" type="curve"/>
      <point x="205.80769230769232" y="478.2307692307692" type="line"/>
      <point x="216.46153846153845" y="457.2307692307692"/>
      <point x="227.1153846153846" y="438.88461538461536"/>
      <point x="240.76923076923077" y="418.88461538461536" type="curve" smooth="yes"/>
      <point x="502.61538461538464" y="20.5" type="line" smooth="yes"/>
      <point x="514.5" y="2.3461538461538463"/>
      <point x="532.3461538461538" y="-2.0"/>
      <point x="557.8846153846154" y="-2.0" type="curve" smooth="yes"/>
      <point x="589.6538461538462" y="-2.0" type="line" smooth="yes"/>
      <point x="626.8076923076923" y="-2.0"/>
      <point x="642.7307692307693" y="7.961538461538462"/>
      <point x="642.7307692307693" y="26.53846153846154" type="curve" smooth="yes"/>
      <point x="642.7307692307693" y="673.4615384615385" type="line" smooth="yes"/>
      <point x="642.7307692307693" y="692.0384615384615"/>
      <point x="626.8076923076923" y="702.0"/>
      <point x="589.6538461538462" y="702.0" type="curve" smooth="yes"/>
      <point x="568.2692307692307" y="702.0" type="line" smooth="yes"/>
      <point x="531.1153846153846" y="702.0"/>
      <point x="515.1923076923077" y="692.0384615384615"/>
      <point x="515.1923076923077" y="673.4615384615385" type="curve" smooth="yes"/>
      <point x="515.1923076923077" y="296.46153846153845" type="line" smooth="yes"/>
      <point x="515.1923076923077" y="267.46153846153845"/>
      <point x="515.1923076923077" y="251.46153846153845"/>
      <point x="517.1923076923077" y="228.46153846153845" type="curve"/>
      <point x="513.1923076923077" y="227.46153846153845" type="line"/>
      <point x="502.53846153846155" y="248.46153846153845"/>
      <point x="491.88461538461536" y="266.8076923076923"/>
      <point x="478.2307692307692" y="286.8076923076923" type="curve" smooth="yes"/>
      <point x="222.42307692307693" y="677.7692307692307" type="line" smooth="yes"/>
      <point x="209.5" y="697.6538461538462"/>
      <point x="191.30769230769232" y="702.0"/>
      <point x="164.73076923076923" y="702.0" type="curve" smooth="yes"/>
      <point x="129.34615384615384" y="702.0" type="line" smooth="yes"/>
      <point x="92.1923076923077" y="702.0"/>
      <point x="76.26923076923077" y="692.0384615384615"/>
      <point x="76.26923076923077" y="673.4615384615385" type="curve" smooth="yes"/>
      <point x="76.26923076923077" y="26.53846153846154" type="line" smooth="yes"/>
      <point x="76.26923076923077" y="7.961538461538462"/>
      <point x="92.1923076923077" y="-2.0"/>
    </contour>
  </outline>
</glyph>
<glyph name="O" format="2">
  <advance width="731.0"/>
  <unicode hex="004F"/>
  <anchor x="367.0" y="0.0" name="bottom"/>
  <anchor x="476.7692307692308" y="682.0" name="horn"/>
  <anchor x="428.9230769230769" y="0.0" name="ogonek"/>
  <anchor x="366.0" y="700.0" name="top"/>
  <outline>
    <contour>
      <point x="365.65384615384613" y="-7.3076923076923075" type="curve" smooth="yes"/>
      <point x="569.9230769230769" y="-7.3076923076923075"/>
      <point x="681.8461538461538" y="118.65384615384616"/>
      <point x="681.8461538461538" y="350.6923076923077" type="curve" smooth="yes"/>
      <point x="681.8461538461538" y="582.7307692307693"/>
      <point x="569.9230769230769" y="707.3076923076923"/>
      <point x="365.65384615384613" y="707.3076923076923" type="curve" smooth="yes"/>
      <point x="161.73076923076923" y="707.3076923076923"/>
      <point x="49.15384615384615" y="582.7307692307693"/>
      <point x="49.15384615384615" y="350.6923076923077" type="curve" smooth="yes"/>
      <point x="49.15384615384615" y="118.65384615384616"/>
      <point x="161.73076923076923" y="-7.3076923076923075"/>
    </contour>
    <contour>
      <point x="365.65384615384613" y="104.65384615384616" type="curve" smooth="yes"/>
      <point x="246.8846153846154" y="104.65384615384616"/>
      <point x="183.96153846153845" y="190.8846153846154"/>
      <point x="183.96153846153845" y="350.6923076923077" type="curve" smooth="yes"/>
      <point x="183.96153846153845" y="510.5"/>
      <point x="246.8846153846154" y="594.6923076923077"/>
      <point x="365.65384615384613" y="594.6923076923077" type="curve" smooth="yes"/>
      <point x="484.4230769230769" y="594.6923076923077"/>
      <point x="547.0384615384615" y="510.5"/>
      <point x="547.0384615384615" y="350.6923076923077" type="curve" smooth="yes"/>
      <point x="547.0384615384615" y="190.8846153846154"/>
      <point x="484.4230769230769" y="104.65384615384616"/>
    </contour>
  </outline>
</glyph>
<glyph name="P" format="2">
  <advance width="570.0"/>
  <unicode hex="0050"/>
  <anchor x="140.1153846153846" y="0.0" name="bottom"/>
  <anchor x="285.0" y="700.0" name="top"/>
  <outline>
    <contour>
      <point x="127.61538461538461" y="-2.0" type="curve" smooth="yes"/>
      <point x="152.6153846153846" y="-2.0" type="line" smooth="yes"/>
      <point x="189.76923076923077" y="-2.0"/>
      <point x="205.69230769230768" y="7.961538461538462"/>
      <point x="205.69230769230768" y="26.53846153846154" type="curve" smooth="yes"/>
      <point x="205.69230769230768" y="274.46153846153845" type="line"/>
      <point x="328.65384615384613" y="274.46153846153845" type="line" smooth="yes"/>
      <point x="381.96153846153845" y="274.46153846153845"/>
      <point x="551.4615384615385" y="299.4230769230769"/>
      <point x="551.4615384615385" y="488.96153846153845" type="curve" smooth="yes"/>
      <point x="551.4615384615385" y="673.6538461538462"/>
      <point x="406.61538461538464" y="700.0"/>
      <point x="318.65384615384613" y="700.0" type="curve" smooth="yes"/>
      <point x="111.07692307692308" y="700.0" type="line" smooth="yes"/>
      <point x="85.5" y="700.0"/>
      <point x="74.53846153846153" y="689.0384615384615"/>
      <point x="74.53846153846153" y="663.4615384615385" type="curve" smooth="yes"/>
      <point x="74.53846153846153" y="26.53846153846154" type="line" smooth="yes"/>
      <point x="74.53846153846153" y="7.961538461538462"/>
      <point x="90.46153846153847" y="-2.0"/>
    </contour>
    <contour>
      <point x="205.69230769230768" y="387.0769230769231" type="line"/>
      <point x="205.69230769230768" y="588.0384615384615" type="line"/>
      <point x="313.03846153846155" y="588.0384615384615" type="line" smooth="yes"/>
      <point x="358.3076923076923" y="588.0384615384615"/>
      <point x="416.65384615384613" y="570.3076923076923"/>
      <point x="416.65384615384613" y="488.96153846153845" type="curve" smooth="yes"/>
      <point x="416.65384615384613" y="404.15384615384613"/>
      <point x="356.5769230769231" y="387.0769230769231"/>
      <point x="317.88461538461536" y="387.0769230769231" type="curve" smooth="yes"/>
    </contour>
  </outline>
</glyph>
<glyph name="Q" format="2">
  <advance width="731.0"/>
  <unicode hex="0051"/>
  <outline>
    <contour>
      <point x="641.3461538461538" y="-146.69230769230768" type="curve" smooth="yes"/>
      <point x="670.2307692307693" y="-146.69230769230768"/>
      <point x="691.8461538461538" y="-69.6923076923077"/>
      <point x="691.8461538461538" y="-55.07692307692308" type="curve" smooth="yes"/>
      <point x="691.8461538461538" y="-48.07692307692308"/>
      <point x="686.8461538461538" y="-42.42307692307692"/>
      <point x="677.8461538461538" y="-39.42307692307692" type="curve" smooth="yes"/>
      <point x="509.61538461538464" y="18.0" type="line"/>
      <point x="509.61538461538464" y="22.0" type="line"/>
      <point x="620.6538461538462" y="68.11538461538461"/>
      <point x="681.8461538461538" y="179.8846153846154"/>
      <point x="681.8461538461538" y="348.96153846153845" type="curve" smooth="yes"/>
      <point x="681.8461538461538" y="581.0"/>
      <point x="569.9230769230769" y="707.3076923076923"/>
      <point x="365.65384615384613" y="707.3076923076923" type="curve" smooth="yes"/>
      <point x="161.73076923076923" y="707.3076923076923"/>
      <point x="49.15384615384615" y="581.3461538461538"/>
      <point x="49.15384615384615" y="348.96153846153845" type="curve" smooth="yes"/>
      <point x="49.15384615384615" y="173.8846153846154"/>
      <point x="112.8076923076923" y="59.92307692307692"/>
      <point x="233.57692307692307" y="12.538461538461538" type="curve" smooth="yes"/>
      <point x="510.0576923076923" y="-95.73076923076923"/>
      <point x="630.6538461538462" y="-146.69230769230768"/>
    </contour>
    <contour>
      <point x="365.65384615384613" y="101.0" type="curve" smooth="yes"/>
      <point x="247.92307692307693" y="101.0"/>
      <point x="183.96153846153845" y="187.8846153846154"/>
      <point x="183.96153846153845" y="348.96153846153845" type="curve" smooth="yes"/>
      <point x="183.96153846153845" y="508.4230769230769"/>
      <point x="247.92307692307693" y="594.6923076923077"/>
      <point x="365.65384615384613" y="594.6923076923077" type="curve" smooth="yes"/>
      <point x="483.7307692307692" y="594.6923076923077"/>
      <point x="547.0384615384615" y="508.0769230769231"/>
      <point x="547.0384615384615" y="348.96153846153845" type="curve" smooth="yes"/>
      <point x="547.0384615384615" y="188.23076923076923"/>
      <point x="483.7307692307692" y="101.0"/>
    </contour>
  </outline>
</glyph>
<glyph name="R" format="2">
  <advance width="610.0"/>
  <unicode hex="0052"/>
  <anchor x="315.0" y="0.0" name="bottom"/>
  <anchor x="291.7307692307692" y="700.0" name="top"/>
  <outline>
    <contour>
      <point x="131.76923076923077" y="-2.0" type="curve" smooth="yes"/>
      <point x="156.76923076923077" y="-2.0" type="line" smooth="yes"/>
      <point x="193.92307692307693" y="-2.0"/>
      <point x="209.84615384615384" y="7.961538461538462"/>
      <point x="209.84615384615384" y="26.53846153846154" type="curve" smooth="yes"/>
      <point x="209.84615384615384" y="285.7692307692308" type="line"/>
      <point x="266.5" y="285.7692307692308" type="line" smooth="yes"/>
      <point x="336.0" y="285.7692307692308"/>
      <point x="360.65384615384613" y="265.7692307692308"/>
      <point x="384.11538461538464" y="212.6153846153846" type="curve" smooth="yes"/>
      <point x="462.0769230769231" y="17.26923076923077" type="line" smooth="yes"/>
      <point x="467.71153846153845" y="3.3461538461538463"/>
      <point x="487.96153846153845" y="-2.0"/>
      <point x="513.8461538461538" y="-2.0" type="curve" smooth="yes"/>
      <point x="544.1153846153846" y="-2.0" type="line" smooth="yes"/>
      <point x="580.9615384615385" y="-2.0"/>
      <point x="597.8846153846154" y="5.3076923076923075"/>
      <point x="597.8846153846154" y="16.615384615384617" type="curve" smooth="yes"/>
      <point x="597.8846153846154" y="20.923076923076923"/>
      <point x="596.2307692307693" y="26.576923076923077"/>
      <point x="593.5769230769231" y="33.88461538461539" type="curve" smooth="yes"/>
      <point x="509.03846153846155" y="245.92307692307693" type="line" smooth="yes"/>
      <point x="488.9230769230769" y="296.88461538461536"/>
      <point x="461.6923076923077" y="337.96153846153845"/>
      <point x="430.8076923076923" y="349.34615384615387" type="curve"/>
      <point x="430.8076923076923" y="353.34615384615387" type="line"/>
      <point x="500.15384615384613" y="380.03846153846155"/>
      <point x="547.1153846153846" y="435.6923076923077"/>
      <point x="547.1153846153846" y="515.8076923076923" type="curve" smooth="yes"/>
      <point x="547.1153846153846" y="637.8846153846154"/>
      <point x="468.0" y="700.0"/>
      <point x="300.88461538461536" y="700.0" type="curve" smooth="yes"/>
      <point x="115.23076923076923" y="700.0" type="line" smooth="yes"/>
      <point x="89.65384615384616" y="700.0"/>
      <point x="78.6923076923077" y="689.0384615384615"/>
      <point x="78.6923076923077" y="663.4615384615385" type="curve" smooth="yes"/>
      <point x="78.6923076923077" y="26.53846153846154" type="line" smooth="yes"/>
      <point x="78.6923076923077" y="7.961538461538462"/>
      <point x="94.61538461538461" y="-2.0"/>
    </contour>
    <contour>
      <point x="209.84615384615384" y="399.03846153846155" type="line"/>
      <point x="209.84615384615384" y="588.0384615384615" type="line"/>
      <point x="310.65384615384613" y="588.0384615384615" type="line" smooth="yes"/>
      <point x="372.6923076923077" y="588.0384615384615"/>
      <point x="412.3076923076923" y="555.9615384615385"/>
      <point x="412.3076923076923" y="497.84615384615387" type="curve" smooth="yes"/>
      <point x="412.3076923076923" y="443.61538461538464"/>
      <point x="369.38461538461536" y="399.03846153846155"/>
      <point x="317.65384615384613" y="399.03846153846155" type="curve" smooth="yes"/>
    </contour>
  </outline>
</glyph>
<glyph name="S" format="2">
  <advance width="500.0"/>
  <unicode hex="0053"/>
  <anchor x="250.0" y="0.0" name="bottom"/>
  <anchor x="250.0" y="700.0" name="top"/>
  <outline>
    <contour>
      <point x="252.5" y="-7.3076923076923075" type="curve" smooth="yes"/>
      <point x="370.5" y="-7.3076923076923075"/>
      <point x="477.11538461538464" y="54.92307692307692"/>
      <point x="477.11538461538464" y="203.03846153846155" type="curve" smooth="yes"/>
      <point x="477.11538461538464" y="339.03846153846155"/>
      <point x="377.11538461538464" y="379.6923076923077"/>
      <point x="292.6923076923077" y="413.6923076923077" type="curve" smooth="yes"/>
      <point x="230.17307692307693" y="438.5769230769231"/>
      <point x="175.65384615384616" y="457.7307692307692"/>
      <point x="175.65384615384616" y="518.9615384615385" type="curve" smooth="yes"/>
      <point x="175.65384615384616" y="559.2692307692307"/>
      <point x="204.15384615384616" y="594.6923076923077"/>
      <point x="281.11538461538464" y="594.6923076923077" type="curve" smooth="yes"/>
      <point x="320.0" y="594.6923076923077"/>
      <point x="347.11538461538464" y="585.5769230769231"/>
      <point x="366.15384615384613" y="577.8461538461538" type="curve" smooth="yes"/>
      <point x="382.4230769230769" y="570.8461538461538"/>
      <point x="392.38461538461536" y="565.1923076923077"/>
      <point x="399.03846153846155" y="565.1923076923077" type="curve" smooth="yes"/>
      <point x="418.1923076923077" y="565.1923076923077"/>
      <point x="446.0769230769231" y="617.5769230769231"/>
      <point x="446.0769230769231" y="640.4230769230769" type="curve" smooth="yes"/>
      <point x="446.0769230769231" y="651.0769230769231"/>
      <point x="438.0769230769231" y="661.3846153846154"/>
      <point x="424.7692307692308" y="670.3461538461538" type="curve" smooth="yes"/>
      <point x="393.7307692307692" y="691.6923076923077"/>
      <point x="333.61538461538464" y="707.3076923076923"/>
      <point x="272.65384615384613" y="707.3076923076923" type="curve" smooth="yes"/>
      <point x="149.76923076923077" y="707.3076923076923"/>
      <point x="40.84615384615385" y="642.7307692307693"/>
      <point x="40.84615384615385" y="511.1923076923077" type="curve" smooth="yes"/>
      <point x="40.84615384615385" y="387.38461538461536"/>
      <point x="114.8076923076923" y="344.5769230769231"/>
      <point x="189.34615384615384" y="311.5769230769231" type="curve" smooth="yes"/>
      <point x="264.71153846153845" y="277.9807692307692"/>
      <point x="342.3076923076923" y="258.1923076923077"/>
      <point x="342.3076923076923" y="191.26923076923077" type="curve" smooth="yes"/>
      <point x="342.3076923076923" y="129.42307692307693"/>
      <point x="289.9230769230769" y="104.65384615384616"/>
      <point x="235.5" y="104.65384615384616" type="curve" smooth="yes"/>
      <point x="174.57692307692307" y="104.65384615384616"/>
      <point x="131.76923076923077" y="127.38461538461539"/>
      <point x="105.42307692307692" y="141.07692307692307" type="curve" smooth="yes"/>
      <point x="93.46153846153847" y="147.73076923076923"/>
      <point x="85.15384615384616" y="152.3846153846154"/>
      <point x="79.84615384615384" y="152.3846153846154" type="curve" smooth="yes"/>
      <point x="62.30769230769231" y="152.3846153846154"/>
      <point x="27.192307692307693" y="101.3076923076923"/>
      <point x="27.192307692307693" y="75.5" type="curve" smooth="yes"/>
      <point x="27.192307692307693" y="65.88461538461539"/>
      <point x="35.5" y="53.61538461538461"/>
      <point x="52.07692307692308" y="42.0" type="curve" smooth="yes"/>
      <point x="86.6923076923077" y="16.692307692307693"/>
      <point x="157.03846153846155" y="-7.3076923076923075"/>
    </contour>
  </outline>
</glyph>
<glyph name="T" format="2">
  <advance width="549.0"/>
  <unicode hex="0054"/>
  <anchor x="268.46153846153845" y="0.0" name="bottom"/>
  <anchor x="275.0" y="350.0" name="center"/>
  <anchor x="275.0" y="700.0" name="top"/>
  <outline>
    <contour>
      <point x="262.1923076923077" y="-2.0" type="curve" smooth="yes"/>
      <point x="287.84615384615387" y="-2.0" type="line" smooth="yes"/>
      <point x="325.0" y="-2.0"/>
      <point x="340.9230769230769" y="7.961538461538462"/>
      <point x="340.9230769230769" y="26.53846153846154" type="curve" smooth="yes"/>
      <point x="340.9230769230769" y="588.0384615384615" type="line"/>
      <point x="510.3076923076923" y="588.0384615384615" type="line" smooth="yes"/>
      <point x="528.8846153846154" y="588.0384615384615"/>
      <point x="536.8461538461538" y="600.9615384615385"/>
      <point x="536.8461538461538" y="631.1153846153846" type="curve" smooth="yes"/>
      <point x="536.8461538461538" y="656.9230769230769" type="line" smooth="yes"/>
      <point x="536.8461538461538" y="687.0769230769231"/>
      <point x="528.8846153846154" y="700.0"/>
      <point x="510.3076923076923" y="700.0" type="curve" smooth="yes"/>
      <point x="38.69230769230769" y="700.0" type="line" smooth="yes"/>
      <point x="20.115384615384613" y="700.0"/>
      <point x="12.153846153846153" y="687.0769230769231"/>
      <point x="12.153846153846153" y="656.9230769230769" type="curve" smooth="yes"/>
      <point x="12.153846153846153" y="631.1153846153846" type="line" smooth="yes"/>
      <point x="12.153846153846153" y="600.9615384615385"/>
      <point x="20.115384615384613" y="588.0384615384615"/>
      <point x="38.69230769230769" y="588.0384615384615" type="curve" smooth="yes"/>
      <point x="209.1153846153846" y="588.0384615384615" type="line"/>
      <point x="209.1153846153846" y="26.53846153846154" type="line" smooth="yes"/>
      <point x="209.1153846153846" y="7.961538461538462"/>
      <point x="225.03846153846155" y="-2.0"/>
    </contour>
  </outline>
</glyph>
<glyph name="U" format="2">
  <advance width="712.0"/>
  <unicode hex="0055"/>
  <anchor x="356.34615384615387" y="0.0" name="bottom"/>
  <anchor x="562.6923076923077" y="702.0" name="horn"/>
  <anchor x="418.38461538461536" y="0.0" name="ogonek"/>
  <anchor x="356.0" y="700.0" name="top"/>
  <outline>
    <contour>
      <point x="356.0" y="-7.3076923076923075" type="curve" smooth="yes"/>
      <point x="536.5769230769231" y="-7.3076923076923075"/>
      <point x="640.1153846153846" y="80.0"/>
      <point x="640.1153846153846" y="230.53846153846155" type="curve" smooth="yes"/>
      <point x="640.1153846153846" y="673.4615384615385" type="line" smooth="yes"/>
      <point x="640.1153846153846" y="692.0384615384615"/>
      <point x="624.1923076923077" y="702.0"/>
      <point x="587.0384615384615" y="702.0" type="curve" smooth="yes"/>
      <point x="562.6923076923077" y="702.0" type="line" smooth="yes"/>
      <point x="525.5384615384615" y="702.0"/>
      <point x="509.61538461538464" y="692.0384615384615"/>
      <point x="509.61538461538464" y="673.4615384615385" type="curve" smooth="yes"/>
      <point x="509.61538461538464" y="236.03846153846155" type="line" smooth="yes"/>
      <point x="509.61538461538464" y="159.80769230769232"/>
      <point x="446.0" y="104.65384615384616"/>
      <point x="356.0" y="104.65384615384616" type="curve" smooth="yes"/>
      <point x="266.34615384615387" y="104.65384615384616"/>
      <point x="203.03846153846155" y="159.46153846153845"/>
      <point x="203.03846153846155" y="236.03846153846155" type="curve" smooth="yes"/>
      <point x="203.03846153846155" y="673.4615384615385" type="line" smooth="yes"/>
      <point x="203.03846153846155" y="692.0384615384615"/>
      <point x="187.1153846153846" y="702.0"/>
      <point x="149.96153846153845" y="702.0" type="curve" smooth="yes"/>
      <point x="124.96153846153847" y="702.0" type="line" smooth="yes"/>
      <point x="87.8076923076923" y="702.0"/>
      <point x="71.88461538461539" y="692.0384615384615"/>
      <point x="71.88461538461539" y="673.4615384615385" type="curve" smooth="yes"/>
      <point x="71.88461538461539" y="230.53846153846155" type="line" smooth="yes"/>
      <point x="71.88461538461539" y="80.0"/>
      <point x="175.07692307692307" y="-7.3076923076923075"/>
    </contour>
  </outline>
</glyph>
<glyph name="V" format="2">
  <advance width="617.0"/>
  <unicode hex="0056"/>
  <outline>
    <contour>
      <point x="286.46153846153845" y="-2.0" type="curve" smooth="yes"/>
      <point x="331.1923076923077" y="-2.0" type="line" smooth="yes"/>
      <point x="357.0769230769231" y="-2.0"/>
      <point x="377.0" y="2.6538461538461537"/>
      <point x="381.65384615384613" y="17.26923076923077" type="curve" smooth="yes"/>
      <point x="602.1538461538462" y="665.1153846153846" type="line" smooth="yes"/>
      <point x="604.1538461538462" y="671.7692307692307"/>
      <point x="605.1538461538462" y="677.0769230769231"/>
      <point x="605.1538461538462" y="681.7307692307693" type="curve" smooth="yes"/>
      <point x="605.1538461538462" y="694.6923076923077"/>
      <point x="588.8846153846154" y="702.0"/>
      <point x="551.0384615384615" y="702.0" type="curve" smooth="yes"/>
      <point x="530.0" y="702.0" type="line" smooth="yes"/>
      <point x="504.11538461538464" y="702.0"/>
      <point x="483.53846153846155" y="695.3846153846154"/>
      <point x="477.5769230769231" y="677.5" type="curve" smooth="yes"/>
      <point x="335.7307692307692" y="249.0" type="line" smooth="yes"/>
      <point x="325.7307692307692" y="217.69230769230768"/>
      <point x="316.0769230769231" y="180.0769230769231"/>
      <point x="312.34615384615387" y="155.5769230769231" type="curve"/>
      <point x="308.6923076923077" y="155.5769230769231" type="line"/>
      <point x="305.65384615384613" y="178.34615384615384"/>
      <point x="296.34615384615387" y="215.6153846153846"/>
      <point x="285.65384615384613" y="248.65384615384616" type="curve" smooth="yes"/>
      <point x="145.3846153846154" y="677.5" type="line" smooth="yes"/>
      <point x="139.42307692307693" y="696.0384615384615"/>
      <point x="118.84615384615384" y="702.0"/>
      <point x="92.96153846153847" y="702.0" type="curve" smooth="yes"/>
      <point x="66.61538461538461" y="702.0" type="line" smooth="yes"/>
      <point x="28.76923076923077" y="702.0"/>
      <point x="11.846153846153847" y="694.3461538461538"/>
      <point x="11.846153846153847" y="681.7307692307693" type="curve" smooth="yes"/>
      <point x="11.846153846153847" y="677.0769230769231"/>
      <point x="13.5" y="671.7692307692307"/>
      <point x="15.5" y="665.4615384615385" type="curve" smooth="yes"/>
      <point x="236.0" y="17.26923076923077" type="line" smooth="yes"/>
      <point x="240.65384615384616" y="2.6538461538461537"/>
      <point x="260.5769230769231" y="-2.0"/>
    </contour>
  </outline>
</glyph>
<glyph name="W" format="2">
  <advance width="910.0"/>
  <unicode hex="0057"/>
  <anchor x="457.61538461538464" y="700.0" name="top"/>
  <outline>
    <contour>
      <point x="231.23076923076923" y="-2.0" type="curve" smooth="yes"/>
      <point x="292.5" y="-2.0" type="line" smooth="yes"/>
      <point x="317.7307692307692" y="-2.0"/>
      <point x="339.3076923076923" y="3.9615384615384617"/>
      <point x="343.61538461538464" y="21.192307692307693" type="curve" smooth="yes"/>
      <point x="429.3076923076923" y="359.84615384615387" type="line" smooth="yes"/>
      <point x="436.03846153846155" y="387.34615384615387"/>
      <point x="445.38461538461536" y="444.8076923076923"/>
      <point x="452.0" y="493.46153846153845" type="curve"/>
      <point x="456.0" y="493.46153846153845" type="line"/>
      <point x="463.9230769230769" y="435.3076923076923"/>
      <point x="474.65384615384613" y="373.0"/>
      <point x="481.15384615384613" y="348.0769230769231" type="curve" smooth="yes"/>
      <point x="562.4230769230769" y="20.53846153846154" type="line" smooth="yes"/>
      <point x="566.0769230769231" y="3.9615384615384617"/>
      <point x="587.6538461538462" y="-2.0"/>
      <point x="612.8846153846154" y="-2.0" type="curve" smooth="yes"/>
      <point x="674.8076923076923" y="-2.0" type="line" smooth="yes"/>
      <point x="700.0384615384615" y="-2.0"/>
      <point x="721.6153846153846" y="3.9615384615384617"/>
      <point x="725.9230769230769" y="20.53846153846154" type="curve" smooth="yes"/>
      <point x="891.0769230769231" y="664.4615384615385" type="line" smooth="yes"/>
      <point x="892.7307692307693" y="669.7692307692307"/>
      <point x="893.4230769230769" y="675.8076923076923"/>
      <point x="893.4230769230769" y="679.1153846153846" type="curve" smooth="yes"/>
      <point x="893.4230769230769" y="693.3846153846154"/>
      <point x="876.5" y="702.0"/>
      <point x="838.0" y="702.0" type="curve" smooth="yes"/>
      <point x="828.7307692307693" y="702.0" type="line" smooth="yes"/>
      <point x="796.3076923076923" y="702.0"/>
      <point x="775.3846153846154" y="694.0769230769231"/>
      <point x="771.0769230769231" y="676.1923076923077" type="curve" smooth="yes"/>
      <point x="678.8461538461538" y="297.34615384615387" type="line" smooth="yes"/>
      <point x="667.6153846153846" y="250.5"/>
      <point x="654.6923076923077" y="182.03846153846155"/>
      <point x="649.0" y="138.26923076923077" type="curve"/>
      <point x="645.0" y="138.26923076923077" type="line"/>
      <point x="642.0" y="178.1153846153846"/>
      <point x="629.3846153846154" y="251.42307692307693"/>
      <point x="616.4230769230769" y="307.8076923076923" type="curve" smooth="yes"/>
      <point x="524.9615384615385" y="682.3846153846154" type="line" smooth="yes"/>
      <point x="521.3076923076923" y="697.3461538461538"/>
      <point x="503.34615384615387" y="702.0"/>
      <point x="475.5" y="702.0" type="curve" smooth="yes"/>
      <point x="445.11538461538464" y="702.0" type="line" smooth="yes"/>
      <point x="417.2692307692308" y="702.0"/>
      <point x="399.3076923076923" y="697.3461538461538"/>
      <point x="395.65384615384613" y="682.3846153846154" type="curve" smooth="yes"/>
      <point x="300.15384615384613" y="297.03846153846155" type="line" smooth="yes"/>
      <point x="289.53846153846155" y="255.23076923076923"/>
      <point x="277.3076923076923" y="189.8846153846154"/>
      <point x="269.3076923076923" y="138.26923076923077" type="curve"/>
      <point x="265.3076923076923" y="138.26923076923077" type="line"/>
      <point x="262.3076923076923" y="185.92307692307693"/>
      <point x="250.65384615384616" y="258.9230769230769"/>
      <point x="239.65384615384616" y="307.8076923076923" type="curve" smooth="yes"/>
      <point x="150.1153846153846" y="676.1923076923077" type="line" smooth="yes"/>
      <point x="145.80769230769232" y="694.0769230769231"/>
      <point x="124.88461538461539" y="702.0"/>
      <point x="92.46153846153847" y="702.0" type="curve" smooth="yes"/>
      <point x="72.0" y="702.0" type="line" smooth="yes"/>
      <point x="33.5" y="702.0"/>
      <point x="16.576923076923077" y="693.0384615384615"/>
      <point x="16.576923076923077" y="679.1153846153846" type="curve" smooth="yes"/>
      <point x="16.576923076923077" y="675.1153846153846"/>
      <point x="17.923076923076923" y="669.7692307692307"/>
      <point x="18.923076923076923" y="664.4615384615385" type="curve" smooth="yes"/>
      <point x="180.76923076923077" y="20.53846153846154" type="line" smooth="yes"/>
      <point x="185.07692307692307" y="3.9615384615384617"/>
      <point x="203.3846153846154" y="-2.0"/>
    </contour>
  </outline>
</glyph>
<glyph name="X" format="2">
  <advance width="611.0"/>
  <unicode hex="0058"/>
  <outline>
    <contour>
      <point x="69.26923076923077" y="-2.0" type="curve" smooth="yes"/>
      <point x="96.88461538461539" y="-2.0" type="line" smooth="yes"/>
      <point x="122.07692307692308" y="-2.0"/>
      <point x="141.3846153846154" y="-0.3076923076923077"/>
      <point x="151.65384615384616" y="15.26923076923077" type="curve" smooth="yes"/>
      <point x="306.2692307692308" y="251.3846153846154" type="line"/>
      <point x="456.9230769230769" y="15.615384615384615" type="line" smooth="yes"/>
      <point x="465.5769230769231" y="1.6538461538461537"/>
      <point x="484.8076923076923" y="-2.0"/>
      <point x="511.03846153846155" y="-2.0" type="curve" smooth="yes"/>
      <point x="542.0769230769231" y="-2.0" type="line" smooth="yes"/>
      <point x="582.6153846153846" y="-2.0"/>
      <point x="599.1923076923077" y="4.653846153846154"/>
      <point x="599.1923076923077" y="16.307692307692307" type="curve" smooth="yes"/>
      <point x="599.1923076923077" y="22.615384615384617"/>
      <point x="596.1923076923077" y="29.923076923076923"/>
      <point x="590.5384615384615" y="38.88461538461539" type="curve" smooth="yes"/>
      <point x="381.88461538461536" y="365.4230769230769" type="line"/>
      <point x="574.6923076923077" y="661.1153846153846" type="line" smooth="yes"/>
      <point x="580.5" y="670.0769230769231"/>
      <point x="584.0" y="678.0384615384615"/>
      <point x="584.0" y="683.6923076923077" type="curve" smooth="yes"/>
      <point x="584.0" y="695.6923076923077"/>
      <point x="566.4230769230769" y="702.0"/>
      <point x="526.8846153846154" y="702.0" type="curve" smooth="yes"/>
      <point x="499.3076923076923" y="702.0" type="line" smooth="yes"/>
      <point x="474.11538461538464" y="702.0"/>
      <point x="454.15384615384613" y="699.6538461538462"/>
      <point x="444.53846153846155" y="684.7307692307693" type="curve" smooth="yes"/>
      <point x="308.96153846153845" y="479.34615384615387" type="line"/>
      <point x="179.03846153846155" y="684.3846153846154" type="line" smooth="yes"/>
      <point x="170.3846153846154" y="698.3461538461538"/>
      <point x="151.15384615384616" y="702.0"/>
      <point x="124.92307692307692" y="702.0" type="curve" smooth="yes"/>
      <point x="93.26923076923077" y="702.0" type="line" smooth="yes"/>
      <point x="52.73076923076923" y="702.0"/>
      <point x="35.5" y="694.6923076923077"/>
      <point x="35.5" y="683.6923076923077" type="curve" smooth="yes"/>
      <point x="35.5" y="677.3846153846154"/>
      <point x="39.15384615384615" y="670.0769230769231"/>
      <point x="44.80769230769231" y="661.1153846153846" type="curve" smooth="yes"/>
      <point x="233.69230769230768" y="365.0" type="line"/>
      <point x="21.46153846153846" y="38.88461538461539" type="line" smooth="yes"/>
      <point x="15.153846153846153" y="29.26923076923077"/>
      <point x="12.153846153846153" y="21.96153846153846"/>
      <point x="12.153846153846153" y="16.307692307692307" type="curve" smooth="yes"/>
      <point x="12.153846153846153" y="4.3076923076923075"/>
      <point x="29.076923076923077" y="-2.0"/>
    </contour>
  </outline>
</glyph>
<glyph name="Y" format="2">
  <advance width="559.0"/>
  <unicode hex="0059"/>
  <anchor x="280.96153846153845" y="0.0" name="bottom"/>
  <anchor x="280.0" y="700.0" name="top"/>
  <outline>
    <contour>
      <point x="267.15384615384613" y="-2.0" type="curve" smooth="yes"/>
      <point x="292.15384615384613" y="-2.0" type="line" smooth="yes"/>
      <point x="329.3076923076923" y="-2.0"/>
      <point x="345.2307692307692" y="7.961538461538462"/>
      <point x="345.2307692307692" y="26.53846153846154" type="curve" smooth="yes"/>
      <point x="345.2307692307692" y="340.96153846153845" type="line"/>
      <point x="548.0384615384615" y="660.4615384615385" type="line" smooth="yes"/>
      <point x="553.5192307692307" y="669.4230769230769"/>
      <point x="556.6923076923077" y="677.3846153846154"/>
      <point x="556.6923076923077" y="683.0384615384615" type="curve" smooth="yes"/>
      <point x="556.6923076923077" y="694.6923076923077"/>
      <point x="540.4615384615385" y="701.6538461538462"/>
      <point x="502.0" y="702.0" type="curve"/>
      <point x="476.03846153846155" y="702.0" type="line"/>
      <point x="450.15384615384613" y="702.0"/>
      <point x="429.53846153846155" y="698.3461538461538"/>
      <point x="421.2307692307692" y="684.7307692307693" type="curve" smooth="yes"/>
      <point x="282.65384615384613" y="459.3076923076923" type="line"/>
      <point x="146.1153846153846" y="684.3846153846154" type="line" smooth="yes"/>
      <point x="137.46153846153845" y="698.3461538461538"/>
      <point x="118.23076923076923" y="702.0"/>
      <point x="92.0" y="702.0" type="curve" smooth="yes"/>
      <point x="60.07692307692308" y="702.0" type="line" smooth="yes"/>
      <point x="19.53846153846154" y="702.0"/>
      <point x="2.3076923076923066" y="694.6923076923077"/>
      <point x="2.3076923076923066" y="683.0384615384615" type="curve" smooth="yes"/>
      <point x="2.3076923076923066" y="677.3846153846154"/>
      <point x="5.961538461538462" y="669.4230769230769"/>
      <point x="11.615384615384615" y="660.4615384615385" type="curve" smooth="yes"/>
      <point x="214.07692307692307" y="343.96153846153845" type="line"/>
      <point x="214.07692307692307" y="26.53846153846154" type="line" smooth="yes"/>
      <point x="214.07692307692307" y="7.961538461538462"/>
      <point x="230.0" y="-2.0"/>
    </contour>
  </outline>
</glyph>
<glyph name="Z" format="2">
  <advance width="616.0"/>
  <unicode hex="005A"/>
  <anchor x="305.5769230769231" y="0.0" name="bottom"/>
  <anchor x="308.0" y="700.0" name="top"/>
  <outline>
    <contour>
      <point x="64.61538461538461" y="0.0" type="curve"/>
      <point x="549.6538461538462" y="0.0" type="line" smooth="yes"/>
      <point x="568.2307692307693" y="0.0"/>
      <point x="576.1923076923077" y="13.26923076923077"/>
      <point x="576.1923076923077" y="44.46153846153846" type="curve" smooth="yes"/>
      <point x="576.1923076923077" y="67.5" type="line" smooth="yes"/>
      <point x="576.1923076923077" y="98.6923076923077"/>
      <point x="568.2307692307693" y="111.96153846153845"/>
      <point x="549.6538461538462" y="111.96153846153845" type="curve" smooth="yes"/>
      <point x="214.8846153846154" y="111.96153846153845" type="line"/>
      <point x="572.5769230769231" y="608.1923076923077" type="line" smooth="yes"/>
      <point x="575.8846153846154" y="612.5"/>
      <point x="576.8846153846154" y="617.1538461538462"/>
      <point x="576.8846153846154" y="621.5" type="curve" smooth="yes"/>
      <point x="576.8846153846154" y="645.7692307692307"/>
      <point x="557.9615384615385" y="700.0"/>
      <point x="545.0769230769231" y="700.0" type="curve" smooth="yes"/>
      <point x="87.73076923076923" y="700.0" type="line" smooth="yes"/>
      <point x="69.15384615384616" y="700.0"/>
      <point x="61.19230769230769" y="686.7307692307693"/>
      <point x="61.19230769230769" y="655.5384615384615" type="curve" smooth="yes"/>
      <point x="61.19230769230769" y="632.5" type="line" smooth="yes"/>
      <point x="61.19230769230769" y="601.3076923076923"/>
      <point x="69.15384615384616" y="588.0384615384615"/>
      <point x="87.73076923076923" y="588.0384615384615" type="curve" smooth="yes"/>
      <point x="394.11538461538464" y="588.0384615384615" type="line"/>
      <point x="33.15384615384615" y="87.23076923076923" type="line" smooth="yes"/>
      <point x="31.807692307692307" y="84.88461538461539"/>
      <point x="30.807692307692307" y="80.88461538461539"/>
      <point x="30.807692307692307" y="76.53846153846155" type="curve" smooth="yes"/>
      <point x="30.807692307692307" y="51.96153846153847"/>
      <point x="50.03846153846154" y="0.0"/>
    </contour>
  </outline>
</glyph>
<glyph name="bracketleft" format="2">
  <advance width="291.0"/>
  <unicode hex="005B"/>
  <outline>
    <contour>
      <point x="110.1923076923077" y="-138.0" type="curve" smooth="yes"/>
      <point x="234.46153846153845" y="-138.0" type="line" smooth="yes"/>
      <point x="253.03846153846155" y="-138.0"/>
      <point x="261.0" y="-127.38461538461539"/>
      <point x="261.0" y="-101.8076923076923" type="curve" smooth="yes"/>
      <point x="261.0" y="-90.61538461538461" type="line" smooth="yes"/>
      <point x="261.0" y="-65.03846153846153"/>
      <point x="253.03846153846155" y="-54.42307692307692"/>
      <point x="234.46153846153845" y="-54.42307692307692" type="curve" smooth="yes"/>
      <point x="174.46153846153845" y="-54.42307692307692" type="line"/>
      <point x="174.46153846153845" y="684.0769230769231" type="line"/>
      <point x="234.46153846153845" y="684.0769230769231" type="line" smooth="yes"/>
      <point x="253.03846153846155" y="684.0769230769231"/>
      <point x="261.0" y="694.6923076923077"/>
      <point x="261.0" y="720.2692307692307" type="curve" smooth="yes"/>
      <point x="261.0" y="731.8076923076923" type="line" smooth="yes"/>
      <point x="261.0" y="757.3846153846154"/>
      <point x="253.03846153846155" y="768.0"/>
      <point x="234.46153846153845" y="768.0" type="curve" smooth="yes"/>
      <point x="110.1923076923077" y="768.0" type="line" smooth="yes"/>
      <point x="84.61538461538461" y="768.0"/>
      <point x="73.65384615384616" y="757.0384615384615"/>
      <point x="73.65384615384616" y="731.4615384615385" type="curve" smooth="yes"/>
      <point x="73.65384615384616" y="-101.46153846153847" type="line" smooth="yes"/>
      <point x="73.65384615384616" y="-127.03846153846153"/>
      <point x="84.61538461538461" y="-138.0"/>
    </contour>
  </outline>
</glyph>
<glyph name="backslash" format="2">
  <advance width="422.0"/>
  <unicode hex="005C"/>
  <outline>
    <contour>
      <point x="358.8076923076923" y="-77.96153846153847" type="curve" smooth="yes"/>
      <point x="371.96153846153845" y="-77.96153846153847" type="line" smooth="yes"/>
      <point x="400.7307692307692" y="-77.96153846153847"/>
      <point x="413.0" y="-73.0"/>
      <point x="413.0" y="-62.30769230769231" type="curve" smooth="yes"/>
      <point x="413.0" y="-57.92307692307692"/>
      <point x="408.65384615384613" y="-48.23076923076923"/>
      <point x="404.65384615384613" y="-38.23076923076923" type="curve" smooth="yes"/>
      <point x="112.88461538461539" y="677.6923076923077" type="line" smooth="yes"/>
      <point x="104.88461538461539" y="697.0384615384615"/>
      <point x="88.6923076923077" y="702.3461538461538"/>
      <point x="61.15384615384615" y="702.3461538461538" type="curve" smooth="yes"/>
      <point x="51.26923076923077" y="702.3461538461538" type="line" smooth="yes"/>
      <point x="20.846153846153847" y="702.3461538461538"/>
      <point x="9.0" y="696.6923076923077"/>
      <point x="9.0" y="686.3461538461538" type="curve" smooth="yes"/>
      <point x="9.0" y="682.0"/>
      <point x="11.384615384615383" y="674.1923076923077"/>
      <point x="17.73076923076923" y="659.5" type="curve" smooth="yes"/>
      <point x="310.15384615384613" y="-56.42307692307692" type="line" smooth="yes"/>
      <point x="317.11538461538464" y="-74.3076923076923"/>
      <point x="332.65384615384613" y="-77.96153846153847"/>
    </contour>
  </outline>
</glyph>
<glyph name="bracketright" format="2">
  <advance width="291.0"/>
  <unicode hex="005D"/>
  <outline>
    <contour>
      <point x="57.19230769230769" y="-138.0" type="curve" smooth="yes"/>
      <point x="181.46153846153845" y="-138.0" type="line" smooth="yes"/>
      <point x="207.03846153846155" y="-138.0"/>
      <point x="218.0" y="-127.03846153846153"/>
      <point x="218.0" y="-101.46153846153847" type="curve" smooth="yes"/>
      <point x="218.0" y="731.4615384615385" type="line" smooth="yes"/>
      <point x="218.0" y="757.0384615384615"/>
      <point x="207.03846153846155" y="768.0"/>
      <point x="181.46153846153845" y="768.0" type="curve" smooth="yes"/>
      <point x="57.19230769230769" y="768.0" type="line" smooth="yes"/>
      <point x="38.61538461538461" y="768.0"/>
      <point x="30.653846153846153" y="757.3846153846154"/>
      <point x="30.653846153846153" y="731.8076923076923" type="curve" smooth="yes"/>
      <point x="30.653846153846153" y="720.2692307692307" type="line" smooth="yes"/>
      <point x="30.653846153846153" y="694.6923076923077"/>
      <point x="38.61538461538461" y="684.0769230769231"/>
      <point x="57.19230769230769" y="684.0769230769231" type="curve" smooth="yes"/>
      <point x="117.1923076923077" y="684.0769230769231" type="line"/>
      <point x="117.1923076923077" y="-54.42307692307692" type="line"/>
      <point x="57.19230769230769" y="-54.42307692307692" type="line" smooth="yes"/>
      <point x="38.61538461538461" y="-54.42307692307692"/>
      <point x="30.653846153846153" y="-65.03846153846153"/>
      <point x="30.653846153846153" y="-90.61538461538461" type="curve" smooth="yes"/>
      <point x="30.653846153846153" y="-101.8076923076923" type="line" smooth="yes"/>
      <point x="30.653846153846153" y="-127.38461538461539"/>
      <point x="38.61538461538461" y="-138.0"/>
    </contour>
  </outline>
</glyph>
<glyph name="asciicircum" format="2">
  <advance width="450.0"/>
  <unicode hex="005E"/>
  <outline>
    <contour>
      <point x="71.5" y="318.6923076923077" type="curve"/>
      <point x="86.61538461538461" y="318.6923076923077" type="line" smooth="yes"/>
      <point x="109.5" y="318.6923076923077"/>
      <point x="123.42307692307692" y="327.0"/>
      <point x="131.73076923076923" y="346.2692307692308" type="curve" smooth="yes"/>
      <point x="225.0" y="571.9615384615385" type="line"/>
      <point x="317.9230769230769" y="346.2692307692308" type="line" smooth="yes"/>
      <point x="326.0576923076923" y="327.0"/>
      <point x="341.15384615384613" y="318.6923076923077"/>
      <point x="364.03846153846155" y="318.6923076923077" type="curve" smooth="yes"/>
      <point x="379.15384615384613" y="318.6923076923077" type="line" smooth="yes"/>
      <point x="399.4230769230769" y="318.6923076923077"/>
      <point x="409.4230769230769" y="325.38461538461536"/>
      <point x="409.4230769230769" y="335.7692307692308" type="curve" smooth="yes"/>
      <point x="409.4230769230769" y="339.7692307692308"/>
      <point x="408.09615384615387" y="344.7692307692308"/>
      <point x="405.7692307692308" y="350.4230769230769" type="curve" smooth="yes"/>
      <point x="278.15384615384613" y="658.7692307692307" type="line" smooth="yes"/>
      <point x="270.34615384615387" y="677.3846153846154"/>
      <point x="257.88461538461536" y="685.3076923076923"/>
      <point x="238.92307692307693" y="685.3076923076923" type="curve" smooth="yes"/>
      <point x="211.73076923076923" y="685.3076923076923" type="line" smooth="yes"/>
      <point x="192.1153846153846" y="685.3076923076923"/>
      <point x="179.98076923076923" y="677.3846153846154"/>
      <point x="172.5" y="658.7692307692307" type="curve" smooth="yes"/>
      <point x="44.88461538461539" y="350.4230769230769" type="line" smooth="yes"/>
      <point x="42.55769230769231" y="344.7692307692308"/>
      <point x="41.230769230769226" y="339.7692307692308"/>
      <point x="41.230769230769226" y="335.7692307692308" type="curve" smooth="yes"/>
      <point x="41.230769230769226" y="325.38461538461536"/>
      <point x="51.230769230769226" y="318.6923076923077"/>
    </contour>
  </outline>
</glyph>
<glyph name="underscore" format="2">
  <advance width="535.0"/>
  <unicode hex="005F"/>
  <outline>
    <contour>
      <point x="6.538461538461538" y="-138.0" type="curve" smooth="yes"/>
      <point x="528.8076923076923" y="-138.0" type="line" smooth="yes"/>
      <point x="547.3846153846154" y="-138.0"/>
      <point x="555.3461538461538" y="-126.11538461538461"/>
      <point x="555.3461538461538" y="-98.38461538461539" type="curve" smooth="yes"/>
      <point x="555.3461538461538" y="-91.03846153846153" type="line" smooth="yes"/>
      <point x="555.3461538461538" y="-63.30769230769231"/>
      <point x="547.3846153846154" y="-51.42307692307692"/>
      <point x="528.8076923076923" y="-51.42307692307692" type="curve" smooth="yes"/>
      <point x="6.538461538461538" y="-51.42307692307692" type="line" smooth="yes"/>
      <point x="-12.038461538461538" y="-51.42307692307692"/>
      <point x="-20.0" y="-63.30769230769231"/>
      <point x="-20.0" y="-91.03846153846153" type="curve" smooth="yes"/>
      <point x="-20.0" y="-98.38461538461539" type="line" smooth="yes"/>
      <point x="-20.0" y="-126.11538461538461"/>
      <point x="-12.038461538461538" y="-138.0"/>
    </contour>
  </outline>
</glyph>
<glyph name="grave" format="2">
  <advance width="180.6153846153846"/>
  <unicode hex="0060"/>
  <outline>
    <contour>
      <point x="146.19230769230768" y="573.3846153846154" type="curve" smooth="yes"/>
      <point x="173.6153846153846" y="573.3846153846154"/>
      <point x="180.6153846153846" y="579.0384615384615"/>
      <point x="180.6153846153846" y="587.6923076923077" type="curve" smooth="yes"/>
      <point x="180.6153846153846" y="594.3461538461538"/>
      <point x="175.6153846153846" y="601.3846153846154"/>
      <point x="168.30769230769232" y="615.3461538461538" type="curve" smooth="yes"/>
      <point x="128.30769230769232" y="688.7307692307693" type="line" smooth="yes"/>
      <point x="116.6923076923077" y="710.3076923076923"/>
      <point x="106.34615384615384" y="718.0"/>
      <point x="51.26923076923077" y="718.0" type="curve" smooth="yes"/>
      <point x="15.384615384615385" y="718.0"/>
      <point x="0.0" y="714.0"/>
      <point x="0.0" y="701.3461538461538" type="curve" smooth="yes"/>
      <point x="0.0" y="691.0384615384615"/>
      <point x="7.0" y="679.3846153846154"/>
      <point x="21.76923076923077" y="663.2692307692307" type="curve" smooth="yes"/>
      <point x="77.73076923076923" y="601.3076923076923" type="line" smooth="yes"/>
      <point x="98.03846153846153" y="579.0"/>
      <point x="117.88461538461539" y="573.3846153846154"/>
    </contour>
  </outline>
</glyph>
<glyph name="a" format="2">
  <advance width="545.0"/>
  <unicode hex="0061"/>
  <anchor x="268.84615384615387" y="0.0" name="bottom"/>
  <anchor x="463.7692307692308" y="0.6538461538461539" name="ogonek"/>
  <anchor x="273.0" y="523.0" name="top"/>
  <outline>
    <contour>
      <point x="200.3846153846154" y="-7.3076923076923075" type="curve" smooth="yes"/>
      <point x="286.5" y="-7.3076923076923075"/>
      <point x="336.9230769230769" y="45.30769230769231"/>
      <point x="354.65384615384613" y="68.34615384615384" type="curve"/>
      <point x="360.65384615384613" y="41.0"/>
      <point x="363.6923076923077" y="-1.0"/>
      <point x="392.9230769230769" y="-1.0" type="curve" smooth="yes"/>
      <point x="413.7692307692308" y="-1.0"/>
      <point x="484.84615384615387" y="5.615384615384615"/>
      <point x="484.84615384615387" y="27.884615384615387" type="curve" smooth="yes"/>
      <point x="484.84615384615387" y="43.34615384615385"/>
      <point x="472.84615384615387" y="70.57692307692308"/>
      <point x="472.84615384615387" y="166.30769230769232" type="curve" smooth="yes"/>
      <point x="472.84615384615387" y="366.7692307692308" type="line" smooth="yes"/>
      <point x="472.84615384615387" y="464.46153846153845"/>
      <point x="410.3076923076923" y="530.3076923076923"/>
      <point x="264.0769230769231" y="530.3076923076923" type="curve" smooth="yes"/>
      <point x="156.8846153846154" y="530.3076923076923"/>
      <point x="74.11538461538461" y="494.2692307692308"/>
      <point x="74.11538461538461" y="463.03846153846155" type="curve" smooth="yes"/>
      <point x="74.11538461538461" y="445.5"/>
      <point x="101.65384615384616" y="393.4230769230769"/>
      <point x="120.23076923076923" y="393.4230769230769" type="curve" smooth="yes"/>
      <point x="131.53846153846155" y="393.4230769230769"/>
      <point x="178.69230769230768" y="428.88461538461536"/>
      <point x="257.9230769230769" y="428.88461538461536" type="curve" smooth="yes"/>
      <point x="322.61538461538464" y="428.88461538461536"/>
      <point x="347.0" y="402.96153846153845"/>
      <point x="347.0" y="362.53846153846155" type="curve" smooth="yes"/>
      <point x="347.0" y="324.6923076923077" type="line"/>
      <point x="127.96153846153847" y="324.0"/>
      <point x="44.42307692307692" y="252.19230769230768"/>
      <point x="44.42307692307692" y="140.07692307692307" type="curve" smooth="yes"/>
      <point x="44.42307692307692" y="50.80769230769231"/>
      <point x="96.1923076923077" y="-7.3076923076923075"/>
    </contour>
    <contour>
      <point x="233.80769230769232" y="94.46153846153847" type="curve" smooth="yes"/>
      <point x="192.84615384615384" y="94.46153846153847"/>
      <point x="171.69230769230768" y="116.92307692307692"/>
      <point x="171.69230769230768" y="151.6153846153846" type="curve" smooth="yes"/>
      <point x="171.69230769230768" y="219.0"/>
      <point x="248.8846153846154" y="236.0"/>
      <point x="347.0" y="236.34615384615384" type="curve"/>
      <point x="347.0" y="159.53846153846155" type="line"/>
      <point x="322.6923076923077" y="123.53846153846155"/>
      <point x="283.9230769230769" y="94.46153846153847"/>
    </contour>
  </outline>
</glyph>
<glyph name="b" format="2">
  <advance width="569.0"/>
  <unicode hex="0062"/>
  <outline>
    <contour>
      <point x="333.4230769230769" y="-7.3076923076923075" type="curve" smooth="yes"/>
      <point x="445.5769230769231" y="-7.3076923076923075"/>
      <point x="522.8461538461538" y="94.23076923076923"/>
      <point x="522.8461538461538" y="262.0" type="curve" smooth="yes"/>
      <point x="522.8461538461538" y="428.46153846153845"/>
      <point x="444.0769230769231" y="530.3076923076923"/>
      <point x="314.61538461538464" y="530.3076923076923" type="curve" smooth="yes"/>
      <point x="262.4230769230769" y="530.3076923076923"/>
      <point x="225.65384615384616" y="512.5769230769231"/>
      <point x="198.42307692307693" y="492.38461538461536" type="curve"/>
      <point x="198.42307692307693" y="724.7692307692307" type="line" smooth="yes"/>
      <point x="198.42307692307693" y="743.3461538461538"/>
      <point x="182.5" y="753.3076923076923"/>
      <point x="145.34615384615384" y="753.3076923076923" type="curve" smooth="yes"/>
      <point x="125.65384615384616" y="753.3076923076923" type="line" smooth="yes"/>
      <point x="88.5" y="753.3076923076923"/>
      <point x="72.57692307692308" y="743.3461538461538"/>
      <point x="72.57692307692308" y="724.7692307692307" type="curve" smooth="yes"/>
      <point x="72.57692307692308" y="26.53846153846154" type="line" smooth="yes"/>
      <point x="72.57692307692308" y="7.961538461538462"/>
      <point x="87.46153846153847" y="-2.0"/>
      <point x="122.1923076923077" y="-2.0" type="curve" smooth="yes"/>
      <point x="131.42307692307693" y="-2.0" type="line" smooth="yes"/>
      <point x="155.8846153846154" y="-2.0"/>
      <point x="168.80769230769232" y="2.3076923076923075"/>
      <point x="176.07692307692307" y="19.153846153846153" type="curve" smooth="yes"/>
      <point x="182.42307692307693" y="33.15384615384615"/>
      <point x="187.42307692307693" y="49.53846153846154"/>
      <point x="190.76923076923077" y="67.6923076923077" type="curve"/>
      <point x="222.76923076923077" y="21.923076923076923"/>
      <point x="273.15384615384613" y="-7.3076923076923075"/>
    </contour>
    <contour>
      <point x="298.7692307692308" y="97.07692307692308" type="curve" smooth="yes"/>
      <point x="258.6923076923077" y="97.07692307692308"/>
      <point x="224.3846153846154" y="123.6923076923077"/>
      <point x="198.42307692307693" y="159.53846153846155" type="curve"/>
      <point x="198.42307692307693" y="400.1923076923077" type="line"/>
      <point x="221.34615384615384" y="416.46153846153845"/>
      <point x="251.96153846153845" y="428.1923076923077"/>
      <point x="287.11538461538464" y="428.1923076923077" type="curve" smooth="yes"/>
      <point x="359.11538461538464" y="428.1923076923077"/>
      <point x="394.3076923076923" y="371.0"/>
      <point x="394.3076923076923" y="264.4230769230769" type="curve" smooth="yes"/>
      <point x="394.3076923076923" y="156.34615384615384"/>
      <point x="362.0769230769231" y="97.07692307692308"/>
    </contour>
  </outline>
</glyph>
<glyph name="c" format="2">
  <advance width="485.0"/>
  <unicode hex="0063"/>
  <anchor x="289.9230769230769" y="0.0" name="bottom"/>
  <anchor x="275.6923076923077" y="523.0" name="top"/>
  <outline>
    <contour>
      <point x="295.38461538461536" y="-7.3076923076923075" type="curve" smooth="yes"/>
      <point x="347.0769230769231" y="-7.3076923076923075"/>
      <point x="464.15384615384613" y="11.538461538461538"/>
      <point x="464.15384615384613" y="56.11538461538461" type="curve" smooth="yes"/>
      <point x="464.15384615384613" y="74.03846153846153"/>
      <point x="437.61538461538464" y="123.46153846153847"/>
      <point x="418.38461538461536" y="123.46153846153847" type="curve" smooth="yes"/>
      <point x="415.4230769230769" y="123.46153846153847"/>
      <point x="410.11538461538464" y="120.8076923076923"/>
      <point x="402.8076923076923" y="118.15384615384616" type="curve"/>
      <point x="383.8269230769231" y="110.13461538461539"/>
      <point x="349.7307692307692" y="94.11538461538461"/>
      <point x="299.61538461538464" y="94.11538461538461" type="curve" smooth="yes"/>
      <point x="210.80769230769232" y="94.11538461538461"/>
      <point x="176.0" y="147.57692307692307"/>
      <point x="176.0" y="263.38461538461536" type="curve" smooth="yes"/>
      <point x="176.0" y="378.1923076923077"/>
      <point x="217.30769230769232" y="428.88461538461536"/>
      <point x="300.0769230769231" y="428.88461538461536" type="curve" smooth="yes"/>
      <point x="346.2307692307692" y="428.88461538461536"/>
      <point x="376.6923076923077" y="414.84615384615387"/>
      <point x="394.6923076923077" y="406.1923076923077" type="curve" smooth="yes"/>
      <point x="402.0" y="402.71153846153845"/>
      <point x="406.96153846153845" y="400.2307692307692"/>
      <point x="410.2692307692308" y="400.2307692307692" type="curve" smooth="yes"/>
      <point x="425.88461538461536" y="400.2307692307692"/>
      <point x="456.0" y="451.3076923076923"/>
      <point x="456.0" y="469.2692307692308" type="curve" smooth="yes"/>
      <point x="456.0" y="507.65384615384613"/>
      <point x="368.61538461538464" y="530.3076923076923"/>
      <point x="295.53846153846155" y="530.3076923076923" type="curve" smooth="yes"/>
      <point x="138.69230769230768" y="530.3076923076923"/>
      <point x="45.46153846153846" y="448.8076923076923"/>
      <point x="45.46153846153846" y="260.0769230769231" type="curve" smooth="yes"/>
      <point x="45.46153846153846" y="76.23076923076923"/>
      <point x="127.5" y="-7.3076923076923075"/>
    </contour>
  </outline>
</glyph>
<glyph name="d" format="2">
  <advance width="565.0"/>
  <unicode hex="0064"/>
  <anchor x="287.53846153846155" y="0.0" name="bottom"/>
  <anchor x="418.38461538461536" y="630.0" name="center"/>
  <anchor x="283.0" y="752.0" name="top"/>
  <anchor x="521.8076923076923" y="750.0" name="topright"/>
  <outline>
    <contour>
      <point x="234.8846153846154" y="-7.3076923076923075" type="curve" smooth="yes"/>
      <point x="295.15384615384613" y="-7.3076923076923075"/>
      <point x="345.53846153846155" y="21.923076923076923"/>
      <point x="377.53846153846155" y="67.6923076923077" type="curve"/>
      <point x="383.53846153846155" y="41.0"/>
      <point x="386.5769230769231" y="-1.0"/>
      <point x="415.8076923076923" y="-1.0" type="curve" smooth="yes"/>
      <point x="436.65384615384613" y="-1.0"/>
      <point x="507.7307692307692" y="5.615384615384615"/>
      <point x="507.7307692307692" y="27.884615384615387" type="curve" smooth="yes"/>
      <point x="507.7307692307692" y="43.34615384615385"/>
      <point x="495.7307692307692" y="70.57692307692308"/>
      <point x="495.7307692307692" y="166.30769230769232" type="curve" smooth="yes"/>
      <point x="495.7307692307692" y="724.7692307692307" type="line" smooth="yes"/>
      <point x="495.7307692307692" y="743.3461538461538"/>
      <point x="479.8076923076923" y="753.3076923076923"/>
      <point x="442.65384615384613" y="753.3076923076923" type="curve" smooth="yes"/>
      <point x="422.96153846153845" y="753.3076923076923" type="line" smooth="yes"/>
      <point x="385.8076923076923" y="753.3076923076923"/>
      <point x="369.88461538461536" y="743.3461538461538"/>
      <point x="369.88461538461536" y="724.7692307692307" type="curve" smooth="yes"/>
      <point x="369.88461538461536" y="492.38461538461536" type="line"/>
      <point x="342.65384615384613" y="512.5769230769231"/>
      <point x="305.88461538461536" y="530.3076923076923"/>
      <point x="253.69230769230768" y="530.3076923076923" type="curve" smooth="yes"/>
      <point x="124.23076923076923" y="530.3076923076923"/>
      <point x="45.46153846153846" y="428.46153846153845"/>
      <point x="45.46153846153846" y="261.65384615384613" type="curve" smooth="yes"/>
      <point x="45.46153846153846" y="94.23076923076923"/>
      <point x="122.73076923076923" y="-7.3076923076923075"/>
    </contour>
    <contour>
      <point x="269.53846153846155" y="97.07692307692308" type="curve" smooth="yes"/>
      <point x="206.23076923076923" y="97.07692307692308"/>
      <point x="174.0" y="156.34615384615384"/>
      <point x="174.0" y="264.4230769230769" type="curve" smooth="yes"/>
      <point x="174.0" y="371.0"/>
      <point x="209.19230769230768" y="428.1923076923077"/>
      <point x="281.53846153846155" y="428.1923076923077" type="curve" smooth="yes"/>
      <point x="317.38461538461536" y="428.1923076923077"/>
      <point x="346.96153846153845" y="416.46153846153845"/>
      <point x="369.88461538461536" y="400.1923076923077" type="curve"/>
      <point x="369.88461538461536" y="159.53846153846155" type="line"/>
      <point x="343.9230769230769" y="123.6923076923077"/>
      <point x="309.61538461538464" y="97.07692307692308"/>
    </contour>
  </outline>
</glyph>
<glyph name="e" format="2">
  <advance width="539.0"/>
  <unicode hex="0065"/>
  <anchor x="270.0" y="0.0" name="bottom"/>
  <anchor x="399.38461538461536" y="0.0" name="ogonek"/>
  <anchor x="278.2692307692308" y="523.0" name="top"/>
  <outline>
    <contour>
      <point x="301.96153846153845" y="-7.3076923076923075" type="curve" smooth="yes"/>
      <point x="373.53846153846155" y="-7.3076923076923075"/>
      <point x="481.96153846153845" y="20.923076923076923"/>
      <point x="481.96153846153845" y="61.92307692307692" type="curve" smooth="yes"/>
      <point x="481.96153846153845" y="78.8076923076923"/>
      <point x="455.0769230769231" y="128.92307692307693"/>
      <point x="435.84615384615387" y="128.92307692307693" type="curve" smooth="yes"/>
      <point x="423.2307692307692" y="128.92307692307693"/>
      <point x="377.5" y="94.11538461538461"/>
      <point x="306.1923076923077" y="94.11538461538461" type="curve" smooth="yes"/>
      <point x="229.42307692307693" y="94.11538461538461"/>
      <point x="185.03846153846155" y="127.76923076923077"/>
      <point x="177.69230769230768" y="218.5" type="curve"/>
      <point x="453.8076923076923" y="218.5" type="line" smooth="yes"/>
      <point x="466.46153846153845" y="218.5"/>
      <point x="498.5769230769231" y="256.0"/>
      <point x="498.5769230769231" y="271.2692307692308" type="curve" smooth="yes"/>
      <point x="498.5769230769231" y="421.0"/>
      <point x="436.11538461538464" y="530.3076923076923"/>
      <point x="286.03846153846155" y="530.3076923076923" type="curve" smooth="yes"/>
      <point x="139.57692307692307" y="530.3076923076923"/>
      <point x="46.5" y="448.0769230769231"/>
      <point x="46.5" y="258.0" type="curve" smooth="yes"/>
      <point x="46.5" y="90.76923076923077"/>
      <point x="126.15384615384616" y="-7.3076923076923075"/>
    </contour>
    <contour>
      <point x="177.69230769230768" y="308.15384615384613" type="line"/>
      <point x="187.96153846153845" y="394.84615384615387"/>
      <point x="227.42307692307693" y="428.88461538461536"/>
      <point x="285.0" y="428.88461538461536" type="curve" smooth="yes"/>
      <point x="345.38461538461536" y="428.88461538461536"/>
      <point x="373.61538461538464" y="382.4230769230769"/>
      <point x="373.61538461538464" y="308.15384615384613" type="curve"/>
    </contour>
  </outline>
</glyph>
<glyph name="g" format="2">
  <advance width="546.0"/>
  <unicode hex="0067"/>
  <anchor x="273.0" y="523.0" name="top"/>
  <outline>
    <contour>
      <point x="258.88461538461536" y="-212.0" type="curve" smooth="yes"/>
      <point x="414.9230769230769" y="-212.0"/>
      <point x="509.96153846153845" y="-149.15384615384616"/>
      <point x="509.96153846153845" y="-48.57692307692308" type="curve" smooth="yes"/>
      <point x="509.96153846153845" y="48.65384615384615"/>
      <point x="434.38461538461536" y="77.96153846153847"/>
      <point x="352.88461538461536" y="91.57692307692308" type="curve" smooth="yes"/>
      <point x="273.5769230769231" y="104.1923076923077"/>
      <point x="196.23076923076923" y="103.53846153846155"/>
      <point x="196.23076923076923" y="147.53846153846155" type="curve" smooth="yes"/>
      <point x="196.23076923076923" y="176.5"/>
      <point x="212.8846153846154" y="189.57692307692307"/>
      <point x="273.15384615384613" y="189.57692307692307" type="curve" smooth="yes"/>
      <point x="392.34615384615387" y="189.57692307692307"/>
      <point x="474.7307692307692" y="247.19230769230768"/>
      <point x="474.7307692307692" y="357.5" type="curve" smooth="yes"/>
      <point x="474.7307692307692" y="383.34615384615387"/>
      <point x="466.7692307692308" y="410.0"/>
      <point x="449.5769230769231" y="428.53846153846155" type="curve"/>
      <point x="451.2307692307692" y="431.84615384615387" type="line"/>
      <point x="465.38461538461536" y="427.84615384615387"/>
      <point x="498.5" y="423.53846153846155"/>
      <point x="509.2692307692308" y="423.53846153846155" type="curve" smooth="yes"/>
      <point x="524.5769230769231" y="423.53846153846155"/>
      <point x="531.8846153846154" y="435.8076923076923"/>
      <point x="531.8846153846154" y="464.65384615384613" type="curve" smooth="yes"/>
      <point x="531.8846153846154" y="479.9230769230769" type="line" smooth="yes"/>
      <point x="531.8846153846154" y="510.0769230769231"/>
      <point x="523.9230769230769" y="523.0"/>
      <point x="505.34615384615387" y="523.0" type="curve" smooth="yes"/>
      <point x="337.0769230769231" y="523.0" type="line"/>
      <point x="315.15384615384613" y="527.6538461538462"/>
      <point x="291.2307692307692" y="530.3076923076923"/>
      <point x="266.3076923076923" y="530.3076923076923" type="curve" smooth="yes"/>
      <point x="143.84615384615384" y="530.3076923076923"/>
      <point x="57.53846153846154" y="473.34615384615387"/>
      <point x="57.53846153846154" y="357.5" type="curve" smooth="yes"/>
      <point x="57.53846153846154" y="290.3076923076923"/>
      <point x="88.5" y="242.53846153846155"/>
      <point x="140.26923076923077" y="215.84615384615384" type="curve"/>
      <point x="103.3076923076923" y="193.5"/>
      <point x="82.34615384615384" y="162.5"/>
      <point x="82.34615384615384" y="123.76923076923077" type="curve" smooth="yes"/>
      <point x="82.34615384615384" y="89.03846153846153"/>
      <point x="97.34615384615384" y="62.07692307692308"/>
      <point x="123.61538461538461" y="46.34615384615385" type="curve"/>
      <point x="122.61538461538461" y="43.03846153846154" type="line"/>
      <point x="67.07692307692308" y="20.73076923076923"/>
      <point x="33.0" y="-22.346153846153847"/>
      <point x="33.0" y="-76.42307692307692" type="curve" smooth="yes"/>
      <point x="33.0" y="-169.5"/>
      <point x="112.76923076923077" y="-212.0"/>
    </contour>
    <contour>
      <point x="269.88461538461536" y="-111.61538461538461" type="curve" smooth="yes"/>
      <point x="187.57692307692307" y="-111.61538461538461"/>
      <point x="154.15384615384616" y="-92.23076923076923"/>
      <point x="154.15384615384616" y="-55.19230769230769" type="curve" smooth="yes"/>
      <point x="154.15384615384616" y="-26.884615384615387"/>
      <point x="175.92307692307693" y="-3.8461538461538467"/>
      <point x="209.8846153846154" y="9.192307692307692" type="curve"/>
      <point x="311.4230769230769" y="-4.0"/>
      <point x="388.11538461538464" y="-4.9615384615384635"/>
      <point x="388.11538461538464" y="-52.92307692307692" type="curve" smooth="yes"/>
      <point x="388.11538461538464" y="-90.88461538461539"/>
      <point x="349.61538461538464" y="-111.61538461538461"/>
    </contour>
    <contour>
      <point x="265.96153846153845" y="283.7692307692308" type="curve" smooth="yes"/>
      <point x="217.0" y="283.7692307692308"/>
      <point x="176.76923076923077" y="303.8076923076923"/>
      <point x="176.76923076923077" y="359.7692307692308" type="curve" smooth="yes"/>
      <point x="176.76923076923077" y="415.4230769230769"/>
      <point x="217.0" y="436.11538461538464"/>
      <point x="265.96153846153845" y="436.11538461538464" type="curve" smooth="yes"/>
      <point x="314.9230769230769" y="436.11538461538464"/>
      <point x="355.5" y="415.4230769230769"/>
      <point x="355.5" y="359.7692307692308" type="curve" smooth="yes"/>
      <point x="355.5" y="303.8076923076923"/>
      <point x="314.9230769230769" y="283.7692307692308"/>
    </contour>
  </outline>
</glyph>
<glyph name="h" format="2">
  <advance width="565.0"/>
  <unicode hex="0068"/>
  <anchor x="281.34615384615387" y="0.0" name="bottom"/>
  <anchor x="168.73076923076923" y="630.0" name="center"/>
  <anchor x="138.57692307692307" y="731.5384615384615" name="top"/>
  <outline>
    <contour>
      <point x="128.07692307692307" y="-2.0" type="curve" smooth="yes"/>
      <point x="147.76923076923077" y="-2.0" type="line" smooth="yes"/>
      <point x="184.92307692307693" y="-2.0"/>
      <point x="200.84615384615384" y="7.961538461538462"/>
      <point x="200.84615384615384" y="26.53846153846154" type="curve" smooth="yes"/>
      <point x="200.84615384615384" y="363.11538461538464" type="line"/>
      <point x="208.69230769230768" y="378.15384615384613"/>
      <point x="244.0" y="425.2692307692308"/>
      <point x="296.7692307692308" y="425.2692307692308" type="curve" smooth="yes"/>
      <point x="349.0769230769231" y="425.2692307692308"/>
      <point x="373.9230769230769" y="397.0769230769231"/>
      <point x="373.9230769230769" y="351.15384615384613" type="curve" smooth="yes"/>
      <point x="373.9230769230769" y="26.53846153846154" type="line" smooth="yes"/>
      <point x="373.9230769230769" y="7.961538461538462"/>
      <point x="389.84615384615387" y="-2.0"/>
      <point x="427.0" y="-2.0" type="curve" smooth="yes"/>
      <point x="446.6923076923077" y="-2.0" type="line" smooth="yes"/>
      <point x="483.84615384615387" y="-2.0"/>
      <point x="499.7692307692308" y="7.961538461538462"/>
      <point x="499.7692307692308" y="26.53846153846154" type="curve" smooth="yes"/>
      <point x="499.7692307692308" y="368.3076923076923" type="line" smooth="yes"/>
      <point x="499.7692307692308" y="487.96153846153845"/>
      <point x="433.53846153846155" y="530.3076923076923"/>
      <point x="346.0" y="530.3076923076923" type="curve" smooth="yes"/>
      <point x="284.61538461538464" y="530.3076923076923"/>
      <point x="233.23076923076923" y="498.2692307692308"/>
      <point x="200.84615384615384" y="461.96153846153845" type="curve"/>
      <point x="200.84615384615384" y="724.7692307692307" type="line" smooth="yes"/>
      <point x="200.84615384615384" y="743.3461538461538"/>
      <point x="184.92307692307693" y="753.3076923076923"/>
      <point x="147.76923076923077" y="753.3076923076923" type="curve" smooth="yes"/>
      <point x="128.07692307692307" y="753.3076923076923" type="line" smooth="yes"/>
      <point x="90.92307692307692" y="753.3076923076923"/>
      <point x="75.0" y="743.3461538461538"/>
      <point x="75.0" y="724.7692307692307" type="curve" smooth="yes"/>
      <point x="75.0" y="26.53846153846154" type="line" smooth="yes"/>
      <point x="75.0" y="7.961538461538462"/>
      <point x="90.92307692307692" y="-2.0"/>
    </contour>
  </outline>
</glyph>
<glyph name="k" format="2">
  <advance width="521.0"/>
  <unicode hex="006B"/>
  <anchor x="261.0" y="0.0" name="bottom"/>
  <outline>
    <contour>
      <point x="128.76923076923077" y="-2.0" type="curve" smooth="yes"/>
      <point x="148.46153846153845" y="-2.0" type="line" smooth="yes"/>
      <point x="185.6153846153846" y="-2.0"/>
      <point x="201.53846153846155" y="7.961538461538462"/>
      <point x="201.53846153846155" y="26.53846153846154" type="curve" smooth="yes"/>
      <point x="201.53846153846155" y="246.69230769230768" type="line"/>
      <point x="205.53846153846155" y="247.34615384615384" type="line"/>
      <point x="365.65384615384613" y="14.923076923076923" type="line" smooth="yes"/>
      <point x="375.0" y="0.9615384615384617"/>
      <point x="397.0" y="-2.0"/>
      <point x="423.5769230769231" y="-2.0" type="curve" smooth="yes"/>
      <point x="452.4230769230769" y="-2.0" type="line" smooth="yes"/>
      <point x="488.65384615384613" y="-2.0"/>
      <point x="504.9230769230769" y="2.9615384615384617"/>
      <point x="504.9230769230769" y="12.653846153846153" type="curve" smooth="yes"/>
      <point x="504.9230769230769" y="17.96153846153846"/>
      <point x="502.59615384615387" y="23.26923076923077"/>
      <point x="496.5769230769231" y="31.923076923076923" type="curve" smooth="yes"/>
      <point x="290.8076923076923" y="326.11538461538464" type="line"/>
      <point x="289.5" y="244.69230769230768" type="line"/>
      <point x="473.96153846153845" y="490.6923076923077" type="line" smooth="yes"/>
      <point x="480.3076923076923" y="498.6923076923077"/>
      <point x="483.3076923076923" y="505.6923076923077"/>
      <point x="483.3076923076923" y="510.6923076923077" type="curve" smooth="yes"/>
      <point x="483.3076923076923" y="519.0"/>
      <point x="467.7307692307692" y="525.0"/>
      <point x="434.5769230769231" y="525.0" type="curve" smooth="yes"/>
      <point x="409.0" y="525.0" type="line" smooth="yes"/>
      <point x="382.4230769230769" y="525.0"/>
      <point x="361.40384615384613" y="522.6538461538462"/>
      <point x="350.7692307692308" y="507.7307692307692" type="curve" smooth="yes"/>
      <point x="205.53846153846155" y="310.46153846153845" type="line"/>
      <point x="201.53846153846155" y="311.11538461538464" type="line"/>
      <point x="201.53846153846155" y="724.7692307692307" type="line" smooth="yes"/>
      <point x="201.53846153846155" y="743.3461538461538"/>
      <point x="185.6153846153846" y="753.3076923076923"/>
      <point x="148.46153846153845" y="753.3076923076923" type="curve" smooth="yes"/>
      <point x="128.76923076923077" y="753.3076923076923" type="line" smooth="yes"/>
      <point x="91.61538461538461" y="753.3076923076923"/>
      <point x="75.6923076923077" y="743.3461538461538"/>
      <point x="75.6923076923077" y="724.7692307692307" type="curve" smooth="yes"/>
      <point x="75.6923076923077" y="26.53846153846154" type="line" smooth="yes"/>
      <point x="75.6923076923077" y="7.961538461538462"/>
      <point x="91.61538461538461" y="-2.0"/>
    </contour>
  </outline>
</glyph>
<glyph name="l" format="2">
  <advance width="297.0"/>
  <unicode hex="006C"/>
  <anchor x="181.6153846153846" y="0.0" name="bottom"/>
  <anchor x="281.1923076923077" y="371.53846153846155" name="center"/>
  <anchor x="132.19230769230768" y="720.0" name="top"/>
  <anchor x="240.34615384615384" y="752.0" name="topright"/>
  <outline>
    <contour>
      <point x="209.69230769230768" y="-7.3076923076923075" type="curve" smooth="yes"/>
      <point x="239.30769230769232" y="-7.3076923076923075"/>
      <point x="297.7307692307692" y="-4.3076923076923075"/>
      <point x="297.7307692307692" y="35.11538461538461" type="curve" smooth="yes"/>
      <point x="297.7307692307692" y="43.11538461538461"/>
      <point x="288.11538461538464" y="98.46153846153847"/>
      <point x="270.1923076923077" y="98.46153846153847" type="curve" smooth="yes"/>
      <point x="263.15384615384613" y="98.46153846153847"/>
      <point x="253.57692307692307" y="94.11538461538461"/>
      <point x="237.65384615384616" y="94.11538461538461" type="curve" smooth="yes"/>
      <point x="210.6153846153846" y="94.11538461538461"/>
      <point x="195.42307692307693" y="107.46153846153847"/>
      <point x="195.42307692307693" y="147.84615384615384" type="curve" smooth="yes"/>
      <point x="195.42307692307693" y="724.7692307692307" type="line" smooth="yes"/>
      <point x="195.42307692307693" y="743.3461538461538"/>
      <point x="179.5" y="753.3076923076923"/>
      <point x="142.34615384615384" y="753.3076923076923" type="curve" smooth="yes"/>
      <point x="122.65384615384616" y="753.3076923076923" type="line" smooth="yes"/>
      <point x="85.5" y="753.3076923076923"/>
      <point x="69.57692307692308" y="743.3461538461538"/>
      <point x="69.57692307692308" y="724.7692307692307" type="curve" smooth="yes"/>
      <point x="69.57692307692308" y="146.3846153846154" type="line" smooth="yes"/>
      <point x="69.57692307692308" y="33.65384615384615"/>
      <point x="130.92307692307693" y="-7.3076923076923075"/>
    </contour>
  </outline>
</glyph>
